<?xml version="1.0" encoding="utf-8" ?><!DOCTYPE svg PUBLIC "-//W3C//DTD SVG 1.1//EN" "http://www.w3.org/Graphics/SVG/1.1/DTD/svg11.dtd"><svg width="280px" height="280px" viewBox="-6 0 274 280" version="1.1" xmlns="http://www.w3.org/2000/svg" xmlns:xlink="http://www.w3.org/1999/xlink"><desc>Py-Avataaars</desc> <g id="x36" stroke="none" stroke-width="1" fill="none" fill-rule="evenodd"><defs><circle id="x20" cx="120" cy="120" r="120"/><path id="x22" d="M12,160 C12,226.27417 65.72583,280 132,280 C198.27417,280 252,226.27417 252,160 L264,160 L264,-1.42108547e-14 L-3.19744231e-14,-1.42108547e-14 L-3.19744231e-14,160 L12,160 Z"/><path id="x18" d="M124,144.610951 L124,163 L128,163 L128,163 C167.764502,163 200,195.235498 200,235 L200,244 L0,244 L0,235 C-4.86974701e-15,195.235498 32.235498,163 72,163 L72,163 L76,163 L76,144.610951 C58.7626345,136.422372 46.3722246,119.687011 44.3051388,99.8812385 C38.4803105,99.0577866 34,94.0521096 34,88 L34,74 C34,68.0540074 38.3245733,63.1180731 44,62.1659169 L44,56 L44,56 C44,25.072054 69.072054,5.68137151e-15 100,0 L100,0 L100,0 C130.927946,-5.68137151e-15 156,25.072054 156,56 L156,62.1659169 C161.675427,63.1180731 166,68.0540074 166,74 L166,88 C166,94.0521096 161.51969,99.0577866 155.694861,99.8812385 C153.627775,119.687011 141.237365,136.422372 124,144.610951 Z"/></defs><g id="x34" transform="translate(-825,-1100)"><g transform="translate(825,1100)"> <g id="x30" stroke-width="1" fill-rule="evenodd" transform="translate(12,40)"><mask id="x13" fill="#FFFFFF"><use xlink:href="#x20"/></mask><use id="x29" fill="#E6E6E6" xlink:href="#x20"/><g id="x32" mask="url('#x13')" fill="#FFFFFF"><rect id="x33" x="0" y="0" width="240" height="240"/></g></g> <mask id="x21" fill="#FFFFFF"><use xlink:href="#x22"/></mask> <g id="x35" stroke-width="1" fill-rule="evenodd" mask="url('#x21')"><g id="x31" transform="translate(32,36)"><mask id="x23" fill="#FFFFFF"><use xlink:href="#x18"/></mask><use fill="#D0C6AC" xlink:href="#x18"/><g id="x11" mask="url('#x23')" fill="#FD9841"><g transform="translate(0,0)" id="x12"><rect x="0" y="0" width="264" height="280"/></g></g> <path id="x28" d="M156,79 L156,102 C156,132.927946 130.927946,158 100,158 C69.072054,158 44,132.927946 44,102 L44,79 L44,94 C44,124.927946 69.072054,150 100,150 C130.927946,150 156,124.927946 156,94 L156,79 Z" fill-opacity="0.1" fill="#000000" mask="url('#x23')"/></g><g id="x53" transform="translate(0,170)"><defs><path id="x19" d="M181.544255,32.3304167 C210.784209,41.4878872 232,68.7921987 232,101.051724 L232,110 L32,110 L32,101.051724 C32,68.3969699 53.7388273,40.8195914 83.5340368,32.0020332 C83.182234,33.4201865 83,34.8712315 83,36.3476251 C83,52.6289957 105.161905,65.8276544 132.5,65.8276544 C159.838095,65.8276544 182,52.6289957 182,36.3476251 C182,34.9849859 181.844766,33.6439396 181.544255,32.3304167 Z"/></defs><mask id="x25" fill="#FFFFFF"><use xlink:href="#x19"/></mask><use id="x52" fill="#E6E6E6" fill-rule="evenodd" xlink:href="#x19"/><g id="py-avataaars-clothes-clothe-color-palette-blue_01" mask="url('#x25')" fill-rule="evenodd" fill="#65C9FF"><rect id="x54" x="0" y="0" width="264" height="110"/></g></g><g id="x51" transform="translate(76,82)" fill="#000000"><g id="x44" transform="translate(2,52)"><defs><path id="x16" d="M35.117844,15.1280772 C36.1757121,24.6198025 44.2259873,32 54,32 C63.8042055,32 71.8740075,24.574136 72.8917593,15.0400546 C72.9736685,14.272746 72.1167429,13 71.042767,13 C56.1487536,13 44.7379213,13 37.0868244,13 C36.0066168,13 35.0120058,14.1784435 35.117844,15.1280772 Z"/><rect id="x15" x="39" y="2" width="31" height="16" rx="5"/></defs><mask id="x27" fill="#FFFFFF"><use xlink:href="#x16"/></mask><use id="x43" fill-opacity="0.7" fill="#000000" fill-rule="evenodd" xlink:href="#x16"/><use id="x42" stroke-width="1" fill-rule="evenodd" mask="url('#x27')" fill="#FFFFFF" xlink:href="#x15"/><g id="x41" stroke-width="1" fill-rule="evenodd" mask="url('#x27')" fill="#FF4F6D"><g transform="translate(38,24)"><circle cx="11" cy="11" r="11"/><circle cx="21" cy="11" r="11"/></g></g></g><g id="x40" transform="translate(28,40)" fill-opacity="0.16"><path id="x39" d="M16,8 C16,12.418278 21.372583,16 28,16 L28,16 C34.627417,16 40,12.418278 40,8"/></g><g id="x47" transform="translate(0,8)" fill-opacity="0.6"><path id="x46" d="M27.2409577,20.3455337 C26.462715,21.3574913 26,22.6247092 26,24 C26,27.3137085 28.6862915,30 32,30 C35.3137085,30 38,27.3137085 38,24 C38,23.7097898 37.9793961,23.4243919 37.9395713,23.1451894 C37.9474218,22.9227843 37.9097825,22.6709538 37.8153518,22.4071242 C37.7703692,22.2814477 37.7221152,22.1572512 37.6706873,22.0345685 C37.3370199,21.0717264 36.7650456,20.2202109 36.0253277,19.550585 C33.898886,17.3173253 30.5064735,16 26.9975803,16 C22.1644225,16 18.006676,18.648508 16.1601674,22.4473116 C15.6201012,23.5583844 16.5467928,24.3002944 17.4375392,23.5716412 C19.8737584,21.5787519 23.2572061,20.3437884 26.9975803,20.3437884 C27.0788767,20.3437884 27.1600045,20.3443718 27.2409577,20.3455337 Z"/><path id="x45" d="M85.2409577,20.3455337 C84.462715,21.3574913 84,22.6247092 84,24 C84,27.3137085 86.6862915,30 90,30 C93.3137085,30 96,27.3137085 96,24 C96,23.7097898 95.9793961,23.4243919 95.9395713,23.1451894 C95.9474218,22.9227843 95.9097825,22.6709538 95.8153518,22.4071242 C95.7703692,22.2814477 95.7221152,22.1572512 95.6706873,22.0345685 C95.3370199,21.0717264 94.7650456,20.2202109 94.0253277,19.550585 C91.898886,17.3173253 88.5064735,16 84.9975803,16 C80.1644225,16 76.006676,18.648508 74.1601674,22.4473116 C73.6201012,23.5583844 74.5467928,24.3002944 75.4375392,23.5716412 C77.8737584,21.5787519 81.2572061,20.3437884 84.9975803,20.3437884 C85.0788767,20.3437884 85.1600045,20.3443718 85.2409577,20.3455337 Z"/></g><g id="x50" fill-opacity="0.6"><path id="x49" d="M26.0390934,6.21012364 C20.2775554,6.98346216 11.2929313,12.0052479 12.04426,17.8178111 C12.0689481,18.0080543 12.3567302,18.0673468 12.4809077,17.9084937 C14.9674041,14.7203351 34.1927973,10.0365481 41.1942673,11.0147151 C41.8350523,11.1044465 42.2580662,10.4430343 41.8210501,10.0302067 C38.0765663,6.49485426 31.2003792,5.51224825 26.0390934,6.21012364" transform="translate(27,12) rotate(5.0) translate(-27,-12)"/><path id="x48" d="M85.0390934,6.21012364 C79.2775554,6.98346216 70.2929313,12.0052479 71.04426,17.8178111 C71.0689481,18.0080543 71.3567302,18.0673468 71.4809077,17.9084937 C73.9674041,14.7203351 93.1927973,10.0365481 100.194267,11.0147151 C100.835052,11.1044465 101.258066,10.4430343 100.82105,10.0302067 C97.0765663,6.49485426 90.2003792,5.51224825 85.0390934,6.21012364" transform="translate(86,12) scale(-1, 1) rotate(5.0) translate(-86,-12)"/></g></g><g id="x0" stroke-width="1" fill-rule="evenodd"><defs><rect id="x14" x="0" y="0" width="264" height="280"/><filter id="x37" x="-0.8%" y="-2.0%" width="101.5%" height="108.0%" filterUnits="objectBoundingBox"><feOffset dx="0" dy="2" in="SourceAlpha" result="shadowOffsetOuter1"/><feColorMatrix values="0 0 0 0 0 0 0 0 0 0 0 0 0 0 0 0 0 0 0.16 0" type="matrix" in="shadowOffsetOuter1" result="shadowMatrixOuter1"/><feMerge><feMergeNode in="shadowMatrixOuter1"/><feMergeNode in="SourceGraphic"/></feMerge></filter></defs><mask id="x26" fill="#FFFFFF"><use xlink:href="#x14"/></mask><g id="x1"/><g id="x2" mask="url('#x26')"><g transform="translate(-1,0)"><g id="x5" transform="translate(49,72)"><defs><path id="x17" d='M105.017591,94.1296214 C101.150441,99.7213834 98.257542,95.9467308 94.1374777,92.8762163 C91.6567227,91.0272796 87.9608129,88.7275108 84.5044337,88.8410391 C81.0477114,88.7275108 77.3518016,91.0272796 74.8710466,92.8762163 C70.7509822,95.9467308 67.8580835,99.7213834 63.9909333,94.1296214 C61.0884259,89.9323547 62.3028943,82.8739117 65.014944,78.9027173 C68.8738581,73.2512381 74.1088724,75.9847769 79.9622738,75.3400279 C81.5538829,75.1648137 83.1526985,74.7228407 84.5044337,74 C85.856169,74.7228407 87.4546414,75.1648137 89.0462504,75.3400279 C94.899995,75.9847769 100.134666,73.2512381 103.993923,78.9027173 C106.70563,82.8739117 107.920098,89.9323547 105.017591,94.1296214 M140.39109,26 C136.966521,40.0748212 135.393023,54.4337754 132.909944,68.6711471 C132.392536,71.6390145 131.826063,74.5963095 131.224594,77.5496398 C131.098329,78.1697764 130.973781,80.4725746 130.362704,80.7643064 C128.511632,81.6484223 124.739149,76.9466834 123.730409,75.8851496 C121.196893,73.219256 118.684993,70.5292442 115.599415,68.437233 C109.364783,64.2102603 102.065485,61.7108818 94.4700836,61.117837 C91.2922091,60.8693859 86.9951134,61.3025234 84.000116,63.1104016 C81.0051185,61.3025234 76.7080229,60.8693859 73.5298053,61.117837 C65.9344039,61.7108818 58.6351055,64.2102603 52.4004739,68.437233 C49.3148957,70.5292442 46.8033387,73.219256 44.2694796,75.8851496 C43.2607395,76.9466834 39.4882573,81.6484223 37.6371849,80.7643064 C37.0261079,80.4725746 36.9015594,78.1697764 36.7752954,77.5496398 C36.1738255,74.5963095 35.6073527,71.6390145 35.0899445,68.6711471 C32.6072086,54.4337754 31.0337113,40.0748212 27.6091415,26 C26.6127533,26 25.7385119,44.7478165 25.6273446,46.4945731 C25.174784,53.5889755 24.6463963,60.5254529 25.3216346,67.6261326 C26.485803,79.8749043 27.6993791,95.2339402 37.032627,104.58753 C45.4659003,113.039493 57.7103052,114.806417 68.2713185,120.141327 C69.631059,120.828202 71.4347824,121.676306 73.3798667,122.37111 C75.4289129,123.934171 79.4926946,125 84.1740722,125 C89.0846465,125 93.3155222,123.827456 95.2540874,122.137856 C96.9548781,121.49261 98.5180822,120.752874 99.7285704,120.141327 C110.288776,114.805245 122.533989,113.039493 130.967262,104.58753 C140.30051,95.2339402 141.514086,79.8749043 142.678597,67.6261326 C143.353493,60.5254529 142.825105,53.5889755 142.372887,46.4945731 C142.261377,44.7478165 141.387136,26 140.39109,26 Z' /></defs><mask id="x24" fill="#FFFFFF"><use xlink:href="#x17"/></mask><use id="x4" fill="#252E32" fill-rule="evenodd" xlink:href="#x17"/><g id="x55" mask="url('#x24')" fill="#2C1B18"><g transform="translate(-32,0)" id="x3"><rect x="0" y="0" width="264" height="244"/></g></g></g><g id="x10" fill="none" transform="translate(62,85)" stroke-width="1"><defs><filter id="x38" x="-0.8%" y="-2.4%" width="101.5%" height="109.8%" filterUnits="objectBoundingBox"><feOffset dx="0" dy="2" in="SourceAlpha" result="shadowOffsetOuter1"/><feColorMatrix values="0 0 0 0 0 0 0 0 0 0 0 0 0 0 0 0 0 0 0.2 0" type="matrix" in="shadowOffsetOuter1" result="shadowMatrixOuter1"/><feMerge><feMergeNode in="shadowMatrixOuter1"/><feMergeNode in="SourceGraphic"/></feMerge></filter></defs><g id="x6" filter="url('#x38')" transform="translate(6,7)" fill="#252C2F"><path id="x9" d="M34,41 L31.2421498,41 C17.3147125,41 9,33.3359286 9,20.5 C9,10.127 10.8170058,0 32.5299306,0 L35.4700694,0 C57.1829942,0 59,10.127 59,20.5 C59,32.5686429 48.7212748,41 34,41 Z M32.3853606,6 C13,6 13,12.8410159 13,21.5015498 C13,28.5719428 16.116254,37 30.9709365,37 L34,37 C46.3649085,37 55,30.6270373 55,21.5015498 C55,12.8410159 55,6 35.6146394,6 L32.3853606,6 Z" fill-rule="nonzero"/><path id="x8" d="M96,41 L93.2421498,41 C79.3147125,41 71,33.3359286 71,20.5 C71,10.127 72.8170058,0 94.5299306,0 L97.4700694,0 C119.182994,0 121,10.127 121,20.5 C121,32.5686429 110.721275,41 96,41 Z M94.3853606,6 C75,6 75,12.8410159 75,21.5015498 C75,28.5719428 78.1194833,37 92.9709365,37 L96,37 C108.364909,37 117,30.6270373 117,21.5015498 C117,12.8410159 117,6 97.6146394,6 L94.3853606,6 Z" fill-rule="nonzero"/><path id="x7" d="M2.95454545,5.77156439 C3.64590909,5.09629136 11.2095455,0 32.5,0 C50.3513636,0 54.1302273,1.85267217 59.8502273,4.6518809 L60.2689233,4.85850899 C60.6666014,4.99901896 62.7002447,5.68982981 65.0790606,5.76579519 C67.2462948,5.67278567 69.1000195,5.08540191 69.641698,4.89719767 C76.1703915,1.7220864 82.5610971,0 97.5,0 C118.790455,0 126.354091,5.09629136 127.045455,5.77156439 C128.679318,5.77156439 130,7.06150904 130,8.65734659 L130,11.5431288 C130,13.1389663 128.679318,14.428911 127.045455,14.428911 C127.045455,14.428911 120.143997,14.428911 120.143997,17.3146932 C120.143997,20.2004754 118.181818,13.1389663 118.181818,11.5431288 L118.181818,8.73240251 C114.578575,7.35340151 108.128411,4.78617535 97.5,4.78617535 C85.6584651,4.78617535 79.7610984,6.88602813 74.7022935,8.97112368 L74.7588636,9.10752861 L74.7563667,11.0937608 L72.5391666,16.4436339 L69.8004908,15.3608351 C69.5558969,15.2641292 69.0281396,15.090392 68.2963505,14.9099044 C66.256272,14.4067419 64.1589087,14.253569 62.3040836,14.6343084 C61.6235903,14.7739931 60.9922286,14.9836085 60.4128127,15.266732 L57.7704824,16.5578701 L55.1266751,11.3962031 L55.2440909,9.10175705 L55.3248203,8.90683855 C50.9620526,6.87386374 46.9392639,4.78617535 32.5,4.78617535 C21.8721459,4.78617535 15.422131,7.3524397 11.8181818,8.7314671 L11.8181818,11.5431288 C11.8181818,13.1389663 8.86363636,20.2004754 8.86363636,17.3146932 C8.86363636,14.428911 2.95454545,14.428911 2.95454545,14.428911 C1.32363636,14.428911 0,13.1389663 0,11.5431288 L0,8.65734659 C0,7.06150904 1.32363636,5.77156439 2.95454545,5.77156439 Z" fill-rule="nonzero"/></g></g> </g></g></g> </g></g></g></g></svg>