<?xml version="1.0" encoding="utf-8" ?><!DOCTYPE svg PUBLIC "-//W3C//DTD SVG 1.1//EN" "http://www.w3.org/Graphics/SVG/1.1/DTD/svg11.dtd"><svg width="280px" height="280px" viewBox="-6 0 274 280" version="1.1" xmlns="http://www.w3.org/2000/svg" xmlns:xlink="http://www.w3.org/1999/xlink"><desc>Py-Avataaars</desc> <g id="x43" stroke="none" stroke-width="1" fill="none" fill-rule="evenodd"><defs><circle id="x23" cx="120" cy="120" r="120"/><path id="x15" d="M12,160 C12,226.27417 65.72583,280 132,280 C198.27417,280 252,226.27417 252,160 L264,160 L264,-1.42108547e-14 L-3.19744231e-14,-1.42108547e-14 L-3.19744231e-14,160 L12,160 Z"/><path id="x20" d="M124,144.610951 L124,163 L128,163 L128,163 C167.764502,163 200,195.235498 200,235 L200,244 L0,244 L0,235 C-4.86974701e-15,195.235498 32.235498,163 72,163 L72,163 L76,163 L76,144.610951 C58.7626345,136.422372 46.3722246,119.687011 44.3051388,99.8812385 C38.4803105,99.0577866 34,94.0521096 34,88 L34,74 C34,68.0540074 38.3245733,63.1180731 44,62.1659169 L44,56 L44,56 C44,25.072054 69.072054,5.68137151e-15 100,0 L100,0 L100,0 C130.927946,-5.68137151e-15 156,25.072054 156,56 L156,62.1659169 C161.675427,63.1180731 166,68.0540074 166,74 L166,88 C166,94.0521096 161.51969,99.0577866 155.694861,99.8812385 C153.627775,119.687011 141.237365,136.422372 124,144.610951 Z"/></defs><g id="x41" transform="translate(-825,-1100)"><g transform="translate(825,1100)"> <g id="x37" stroke-width="1" fill-rule="evenodd" transform="translate(12,40)"><mask id="x19" fill="#FFFFFF"><use xlink:href="#x23"/></mask><use id="x36" fill="#E6E6E6" xlink:href="#x23"/><g id="x39" mask="url('#x19')" fill="#FF488E"><rect id="x40" x="0" y="0" width="240" height="240"/></g></g> <mask id="x24" fill="#FFFFFF"><use xlink:href="#x15"/></mask> <g id="x42" stroke-width="1" fill-rule="evenodd" mask="url('#x24')"><g id="x38" transform="translate(32,36)"><mask id="x27" fill="#FFFFFF"><use xlink:href="#x20"/></mask><use fill="#D0C6AC" xlink:href="#x20"/><g id="x14" mask="url('#x27')" fill="#D08B5B"><g transform="translate(0,0)" id="x13"><rect x="0" y="0" width="264" height="280"/></g></g> <path id="x35" d="M156,79 L156,102 C156,132.927946 130.927946,158 100,158 C69.072054,158 44,132.927946 44,102 L44,79 L44,94 C44,124.927946 69.072054,150 100,150 C130.927946,150 156,124.927946 156,94 L156,79 Z" fill-opacity="0.1" fill="#000000" mask="url('#x27')"/></g><g id="x64" transform="translate(0,170)"><defs><path id="x25" d="M165.624032,29.2681342 C202.760022,32.1373245 232,63.1798426 232,101.051724 L232,110 L32,110 L32,101.051724 C32,62.8348009 61.7752018,31.5722494 99.3929298,29.1967444 C99.1342224,30.2735458 99,31.3767131 99,32.5 C99,44.3741221 113.998461,54 132.5,54 C151.001539,54 166,44.3741221 166,32.5 C166,31.4015235 165.871641,30.3222877 165.624025,29.2681336 Z"/></defs><mask id="x29" fill="#FFFFFF"><use xlink:href="#x25"/></mask><use id="x63" fill="#E6E6E6" fill-rule="evenodd" xlink:href="#x25"/><g id="py-avataaars-clothes-clothe-color-palette-blue_03" mask="url('#x29')" fill-rule="evenodd" fill="#25557C"><rect id="x65" x="0" y="0" width="264" height="110"/></g><g id="x62" mask="url('#x29'" fill-rule="evenodd" fill="#FFFFFF"><g transform="translate(77,58)" id="x61"><path d="M65.2820354,19.9288113 C64.9841617,22.7059411 59.588846,24.2025715 57.6102394,22.3766824 C56.6984983,21.5350479 56.6825881,19.8029182 56.4815012,18.6751632 C56.1014249,16.5420247 55.8256486,14.4172496 55.7306295,12.2519776 C55.6727342,10.9274596 55.3253621,9.86749314 56.7745135,9.67029008 C57.65797,9.55055964 58.5675014,10.137767 59.2896464,10.6026028 C61.736719,12.1758255 65.6201265,16.7414286 65.2820354,19.9288113 M52.8813831,14.0756657 C53.1659984,16.901216 54.2014853,21.8145656 51.9457767,24.1810024 C49.9296045,26.2960933 45.7863308,24.19905 45.1631825,21.7084809 C44.3897714,18.6188195 47.4383369,14.9274245 49.307782,12.8387447 C49.881874,12.1969544 51.151594,10.4256483 52.1442119,11.018578 C52.526056,11.2461539 52.8367463,13.6301981 52.8813831,14.0756657 M54.3212536,25.1062722 C54.9678252,23.5832306 61.2342228,28.1246236 58.2744891,30.2850536 C57.7918806,30.6376421 54.1148633,31.7513112 53.4099544,31.2274906 C51.9250051,30.1235056 53.8408548,26.2630794 54.3212536,25.1062722 M73.3250687,17.5267194 C72.8817937,2.05112066 53.065234,-2.31331777 42.4756895,6.50447654 C38.426551,9.87585667 36.113389,14.0039155 36.0073212,19.2826191 C35.9171635,23.7544627 36.6256081,27.9718792 40.0409914,31.0465744 C41.5219631,32.379896 42.5004386,33.1955596 43.2862243,35.0170469 C44.1095756,36.9234899 44.4852324,39.3524331 46.0280771,40.8495037 C46.8788292,41.6752915 48.1176128,42.3417322 49.2940816,41.8091079 C51.455655,40.8301355 50.7644465,37.8320326 51.4194152,36.1606486 C53.4559171,41.1294616 58.6302582,42.7141291 59.5694002,36.4097935 C60.6000257,38.2286397 63.2945899,40.610483 65.268335,38.6195243 C66.0806376,37.8003393 66.2030575,36.4705391 66.3409457,35.3929652 C66.5857855,33.4807998 66.1601884,32.7294032 67.6955199,31.4180909 C71.7349355,27.9683578 73.4691441,22.7464381 73.3250687,17.5267194"/></g></g></g><g id="x60" transform="translate(76,82)" fill="#000000"><g id="x51" transform="translate(2,52)"><defs><path id="x17" d="M35.117844,15.1280772 C36.1757121,24.6198025 44.2259873,32 54,32 C63.8042055,32 71.8740075,24.574136 72.8917593,15.0400546 C72.9736685,14.272746 72.1167429,13 71.042767,13 C56.1487536,13 44.7379213,13 37.0868244,13 C36.0066168,13 35.0120058,14.1784435 35.117844,15.1280772 Z"/><rect id="x18" x="39" y="2" width="31" height="16" rx="5"/></defs><mask id="x30" fill="#FFFFFF"><use xlink:href="#x17"/></mask><use id="x50" fill-opacity="0.7" fill="#000000" fill-rule="evenodd" xlink:href="#x17"/><use id="x49" stroke-width="1" fill-rule="evenodd" mask="url('#x30')" fill="#FFFFFF" xlink:href="#x18"/><g id="x48" stroke-width="1" fill-rule="evenodd" mask="url('#x30')" fill="#FF4F6D"><g transform="translate(38,24)"><circle cx="11" cy="11" r="11"/><circle cx="21" cy="11" r="11"/></g></g></g><g id="x47" transform="translate(28,40)" fill-opacity="0.16"><path id="x46" d="M16,8 C16,12.418278 21.372583,16 28,16 L28,16 C34.627417,16 40,12.418278 40,8"/></g><g id="x56" transform="translate(0,8)"><defs><path id="x28" d="M14,14.0481187 C23.6099827,14.0481187 28,18.4994466 28,11.5617716 C28,4.62409673 21.7319865,0 14,0 C6.2680135,0 0,4.62409673 0,11.5617716 C0,18.4994466 4.39001726,14.0481187 14,14.0481187 Z"/><path id="x16" d="M14,14.0481187 C23.6099827,14.0481187 28,18.4994466 28,11.5617716 C28,4.62409673 21.7319865,0 14,0 C6.2680135,0 0,4.62409673 0,11.5617716 C0,18.4994466 4.39001726,14.0481187 14,14.0481187 Z"/></defs><g id="x55" transform="translate(16,13)"><mask id="x32" fill="#FFFFFF"><use xlink:href="#x28"/></mask><use id="x52" fill="#FFFFFF" xlink:href="#x28"/><circle fill-opacity="0.7" fill="#000000" mask="url('#x32')" cx="14" cy="10" r="6"/></g><g id="x54" transform="translate(68,13)"><mask id="x34" fill="#FFFFFF"><use xlink:href="#x16"/></mask><use id="x53" fill="#FFFFFF" xlink:href="#x16"/><circle fill-opacity="0.7" fill="#000000" mask="url('#x34')" cx="14" cy="10" r="6"/></g></g><g id="x59" fill-opacity="0.6"><path id="x58" d="M38.5686071,10.7022978 C33.5865557,11.2384494 28.6553385,11.1338998 23.6562444,11.1010606 C19.8231061,11.0762636 15.91974,10.6892291 12.3246118,12.5091287 C11.6361455,12.8572921 7.8767609,14.9449324 8.00311195,16.0108688 C8.10389896,16.8633498 12.0128479,18.0636592 12.7165939,18.2838164 C16.4280826,19.4452548 19.9241869,18.9282036 23.6870976,18.5703225 C28.3024371,18.1316834 32.9139567,18.1745756 37.5322346,17.8739956 C40.6422336,17.6719334 45.4224171,16.9769469 46.8293214,13.1484895 C47.2530382,11.9954284 46.8152171,9.73353891 46.3074622,8.50642195 C46.1050066,8.01751871 45.5634602,7.84963624 45.1688335,8.14921095 C43.7560524,9.22218432 40.9851444,10.4425994 38.5686071,10.7022978" transform="translate(27.5, 13.500000) rotate(2.0) translate(-27.5, -13.500000)"/><path id="x57" d="M95.5686071,10.7022978 C90.5865557,11.2384494 85.6553385,11.1338998 80.6562444,11.1010606 C76.8231061,11.0762636 72.91974,10.6892291 69.3246118,12.5091287 C68.6361455,12.8572921 64.8767609,14.9449324 65.003112,16.0108688 C65.103899,16.8633498 69.0128479,18.0636592 69.7165939,18.2838164 C73.4280826,19.4452548 76.9241869,18.9282036 80.6870976,18.5703225 C85.3024371,18.1316834 89.9139567,18.1745756 94.5322346,17.8739956 C97.6422336,17.6719334 102.422417,16.9769469 103.829321,13.1484895 C104.253038,11.9954284 103.815217,9.73353891 103.307462,8.50642195 C103.105007,8.01751871 102.56346,7.84963624 102.168833,8.14921095 C100.756052,9.22218432 97.9851444,10.4425994 95.5686071,10.7022978" transform="translate(84.5, 13.500000) scale(-1, 1) rotate(2.0) translate(-84.5, -13.500000)"/></g></g><g id="x0"><defs><rect id="x22" x="0" y="0" width="264" height="280"/><path id="x21" d="M66,0 L66,0 C102.450793,-6.69590214e-15 132,29.5492065 132,66 L132,71 L0,71 L0,66 C-4.46393476e-15,29.5492065 29.5492065,6.69590214e-15 66,0 Z"/><filter id="x44" x="-0.7%" y="-1.7%" width="101.4%" height="106.8%" filterUnits="objectBoundingBox" ><feOffset dx="0" dy="2" in="SourceAlpha" result="shadowOffsetOuter1"/><feColorMatrix values="0 0 0 0 0 0 0 0 0 0 0 0 0 0 0 0 0 0 0.1 0" type="matrix" in="shadowOffsetOuter1"/></filter><path id="x26" d="M67.2846026,61.4514246 C83.229708,49.8171415 105.159178,44 133.073012,44 C160.985408,44 182.871592,49.8165424 198.731564,61.4496271 L198.731562,61.4496305 C200.786183,62.956669 202.000006,65.3523289 202.000006,67.900394 L202.000004,98.3697692 C202.000004,100.578907 200.209144,102.369768 198.000006,102.369768 C197.244444,102.369768 196.504332,102.155773 195.865355,101.752558 C179.223261,91.2508526 158.536251,86 133.804323,86 C108.883259,86 87.640395,91.3314713 70.0757313,101.994414 L70.0757317,101.994414 C68.1873241,103.140806 65.7271332,102.539283 64.5807417,100.650875 C64.2008775,100.02514 64.0000054,99.3071624 64.0000054,98.5751499 L64,67.914014 C64,65.358892 65.2205159,62.9574773 67.2846026,61.4514246 Z"/></defs><mask id="x33" fill="#FFFFFF"><use xlink:href="#x22"/></mask><g id="x2"/><g id="x6" transform="translate(-1,0)"><g id="x5" stroke-width="1" fill-rule="evenodd" transform="translate(67,12)"><circle id="x1" fill="#F4F4F4" cx="66" cy="8" r="20"/><mask id="x31" fill="#FFFFFF"><use xlink:href="#x21"/></mask><use id="x3" fill="#D8D8D8" xlink:href="#x21"/><g id="py-avataaars-top-hat-color-gray_01" mask="url('#x31')" fill-rule="evenodd" fill="#E6E6E6"><rect id="x7" x="0" y="0" width="264" height="280"/></g> </g><g id="x4"><use fill="#000000" fill-opacity="1" filter="url('#x26')" xlink:href="#x26"/><use fill="#F4F4F4" fill-rule="evenodd" xlink:href="#x26"/></g><g id="x12" fill="none" transform="translate(62,85)" stroke-width="1"><defs><filter id="x45" x="-0.8%" y="-2.0%" width="101.5%" height="108.0%" filterUnits="objectBoundingBox"><feOffset dx="0" dy="2" in="SourceAlpha" result="shadowOffsetOuter1"/><feColorMatrix values="0 0 0 0 0 0 0 0 0 0 0 0 0 0 0 0 0 0 0.16 0" type="matrix" in="shadowOffsetOuter1" result="shadowMatrixOuter1"/><feMerge><feMergeNode in="shadowMatrixOuter1"/><feMergeNode in="SourceGraphic"/></feMerge></filter></defs><g id="x8" filter="url('#x45')" transform="translate(5,2)"><path id="x9" d="M66,11.1111111 C54.9625586,11.1111111 53.3705645,2.0266011 30.6705882,0.740740741 C7.98552275,-0.283199952 0.815225204,6.4494855 0.776470588,11.1111111 C0.813236892,15.4042795 -0.352293566,26.5612661 14.3647059,39.6296296 C29.1367705,55.1420807 44.2704162,49.8818301 49.6941176,44.8148148 C55.1352081,42.4731118 61.3403442,21.4596351 66,21.4814815 C70.6596558,21.5033279 76.8647919,42.4731118 82.3058824,44.8148148 C87.7295838,49.8818301 102.86323,55.1420807 117.635294,39.6296296 C132.352294,26.5612661 131.186763,15.4042795 131.223529,11.1111111 C131.184775,6.4494855 124.014477,-0.283199952 101.329412,0.740740741 C78.6294355,2.0266011 77.0374414,11.1111111 66,11.1111111 Z" fill="#F4F4F4" fill-rule="nonzero"/><path id="x10" d="M55.1294118,21.4814815 C55.5103632,13.8233491 42.2156493,5.64243259 27.9529412,5.92592593 C13.6973442,6.22450879 11.8417942,15.3786982 11.6470588,18.8888889 C11.2982286,27.0220633 20.014463,45.3037598 36.1058824,44.8148148 C52.1972736,44.305848 54.9092435,26.5344305 55.1294118,21.4814815 Z" fill="#2F383B" fill-rule="nonzero"/><path id="x11" d="M120.352941,21.4814815 C120.733893,13.8233491 107.439179,5.64243259 93.1764706,5.92592593 C78.9208736,6.22450879 77.0653236,15.3786982 76.8705882,18.8888889 C76.521758,27.0220633 85.2379924,45.3037598 101.329412,44.8148148 C117.420803,44.305848 120.132773,26.5344305 120.352941,21.4814815 Z" fill="#2F383B" fill-rule="nonzero" transform="translate(98.611765, 25.370370) scale(-1, 1) translate(-98.611765, -25.370370)"/></g></g> </g></g> </g></g></g></g></svg>