<?xml version="1.0" encoding="utf-8" ?><!DOCTYPE svg PUBLIC "-//W3C//DTD SVG 1.1//EN" "http://www.w3.org/Graphics/SVG/1.1/DTD/svg11.dtd"><svg width="280px" height="280px" viewBox="-6 0 274 280" version="1.1" xmlns="http://www.w3.org/2000/svg" xmlns:xlink="http://www.w3.org/1999/xlink"><desc>Py-Avataaars</desc> <g id="x36" stroke="none" stroke-width="1" fill="none" fill-rule="evenodd"><defs><circle id="x21" cx="120" cy="120" r="120"/><path id="x16" d="M12,160 C12,226.27417 65.72583,280 132,280 C198.27417,280 252,226.27417 252,160 L264,160 L264,-1.42108547e-14 L-3.19744231e-14,-1.42108547e-14 L-3.19744231e-14,160 L12,160 Z"/><path id="x11" d="M124,144.610951 L124,163 L128,163 L128,163 C167.764502,163 200,195.235498 200,235 L200,244 L0,244 L0,235 C-4.86974701e-15,195.235498 32.235498,163 72,163 L72,163 L76,163 L76,144.610951 C58.7626345,136.422372 46.3722246,119.687011 44.3051388,99.8812385 C38.4803105,99.0577866 34,94.0521096 34,88 L34,74 C34,68.0540074 38.3245733,63.1180731 44,62.1659169 L44,56 L44,56 C44,25.072054 69.072054,5.68137151e-15 100,0 L100,0 L100,0 C130.927946,-5.68137151e-15 156,25.072054 156,56 L156,62.1659169 C161.675427,63.1180731 166,68.0540074 166,74 L166,88 C166,94.0521096 161.51969,99.0577866 155.694861,99.8812385 C153.627775,119.687011 141.237365,136.422372 124,144.610951 Z"/></defs><g id="x34" transform="translate(-825,-1100)"><g transform="translate(825,1100)"> <g id="x30" stroke-width="1" fill-rule="evenodd" transform="translate(12,40)"><mask id="x15" fill="#FFFFFF"><use xlink:href="#x21"/></mask><use id="x29" fill="#E6E6E6" xlink:href="#x21"/><g id="x32" mask="url('#x15')" fill="#262E33"><rect id="x33" x="0" y="0" width="240" height="240"/></g></g> <mask id="x14" fill="#FFFFFF"><use xlink:href="#x16"/></mask> <g id="x35" stroke-width="1" fill-rule="evenodd" mask="url('#x14')"><g id="x31" transform="translate(32,36)"><mask id="x20" fill="#FFFFFF"><use xlink:href="#x11"/></mask><use fill="#D0C6AC" xlink:href="#x11"/><g id="x9" mask="url('#x20')" fill="#FD9841"><g transform="translate(0,0)" id="x10"><rect x="0" y="0" width="264" height="280"/></g></g> <path id="x28" d="M156,79 L156,102 C156,132.927946 130.927946,158 100,158 C69.072054,158 44,132.927946 44,102 L44,79 L44,94 C44,124.927946 69.072054,150 100,150 C130.927946,150 156,124.927946 156,94 L156,79 Z" fill-opacity="0.1" fill="#000000" mask="url('#x20')"/></g><g id="x55" transform="translate(0,170)"><defs><path id="x18" d="M165.960472,29.2949161 C202.936473,32.3249982 232,63.2942856 232,101.051724 L232,110 L32,110 L32,101.051724 C32,62.9525631 61.591985,31.7649812 99.0454063,29.2195264 C99.0152598,29.5931145 99,29.9692272 99,30.3476251 C99,42.2107177 113.998461,51.8276544 132.5,51.8276544 C151.001539,51.8276544 166,42.2107177 166,30.3476251 C166,29.9946691 165.986723,29.6437014 165.960472,29.2949161 Z"/></defs><mask id="x25" fill="#FFFFFF"><use xlink:href="#x18"/></mask><use id="x54" fill="#E6E6E6" fill-rule="evenodd" xlink:href="#x18"/><g id="py-avataaars-clothes-clothe-color-palette-blue_01" mask="url('#x25')" fill-rule="evenodd" fill="#65C9FF"><rect id="x56" x="0" y="0" width="264" height="110"/></g> <g id="x52" opacity="0.6" stroke-width="1" fill-rule="evenodd" mask="url('#x25')" fill-opacity="0.16" fill="#000000"><g transform="translate(92,4)" id="x53"><ellipse cx="40.5" cy="27.8476251" rx="39.6351047" ry="26.9138272"/></g></g></g><g id="x51" transform="translate(76,82)" fill="#000000"><g id="x43" transform="translate(2,52)"><defs><path id="x13" d="M35.117844,15.1280772 C36.1757121,24.6198025 44.2259873,32 54,32 C63.8042055,32 71.8740075,24.574136 72.8917593,15.0400546 C72.9736685,14.272746 72.1167429,13 71.042767,13 C56.1487536,13 44.7379213,13 37.0868244,13 C36.0066168,13 35.0120058,14.1784435 35.117844,15.1280772 Z"/><rect id="x12" x="39" y="2" width="31" height="16" rx="5"/></defs><mask id="x24" fill="#FFFFFF"><use xlink:href="#x13"/></mask><use id="x42" fill-opacity="0.7" fill="#000000" fill-rule="evenodd" xlink:href="#x13"/><use id="x41" stroke-width="1" fill-rule="evenodd" mask="url('#x24')" fill="#FFFFFF" xlink:href="#x12"/><g id="x40" stroke-width="1" fill-rule="evenodd" mask="url('#x24')" fill="#FF4F6D"><g transform="translate(38,24)"><circle cx="11" cy="11" r="11"/><circle cx="21" cy="11" r="11"/></g></g></g><g id="x39" transform="translate(28,40)" fill-opacity="0.16"><path id="x38" d="M16,8 C16,12.418278 21.372583,16 28,16 L28,16 C34.627417,16 40,12.418278 40,8"/></g><g id="x46" transform="translate(0,8)" fill-opacity="0.6"><circle id="x45" cx="30" cy="22" r="6"/><circle id="x44" cx="82" cy="22" r="6"/></g><g id="x50" fill-opacity="0.6"><g id="x49" transform="translate(12,6)"><path id="x48" d="M3.63024536,11.1585767 C7.54515501,5.64986673 18.2779197,2.56083721 27.5230268,4.83118046 C28.5957248,5.0946055 29.6788665,4.43856013 29.9422916,3.36586212 C30.2057166,2.2931641 29.5496712,1.21002236 28.4769732,0.94659732 C17.7403633,-1.69001789 5.31209962,1.88699832 0.369754639,8.84142326 C-0.270109626,9.74178291 -0.0589363917,10.9903811 0.84142326,11.6302454 C1.74178291,12.2701096 2.9903811,12.0589364 3.63024536,11.1585767 Z" fill-rule="nonzero"/><path id="x47" d="M61.6302454,11.1585767 C65.545155,5.64986673 76.2779197,2.56083721 85.5230268,4.83118046 C86.5957248,5.0946055 87.6788665,4.43856013 87.9422916,3.36586212 C88.2057166,2.2931641 87.5496712,1.21002236 86.4769732,0.94659732 C75.7403633,-1.69001789 63.3120996,1.88699832 58.3697546,8.84142326 C57.7298904,9.74178291 57.9410636,10.9903811 58.8414233,11.6302454 C59.7417829,12.2701096 60.9903811,12.0589364 61.6302454,11.1585767 Z" fill-rule="nonzero" transform="translate(73.000154, 6.039198) scale(-1, 1) translate(-73.000154, -6.039198)"/></g></g></g><g id="x0" stroke-width="1" fill-rule="evenodd"><defs><rect id="x17" x="0" y="0" width="264" height="280"/><path id="x19" d="M90.9102919,55.3613196 L175.085702,55.3613196 C193.333279,44.8338001 196.759397,26.1510357 183.849606,9.92600089 C180.635746,5.88682054 175.085702,21.6755614 158.028596,22.6504878 C140.97149,23.6254143 142.608865,16.3498661 124.45759,19.0739248 C106.306316,21.7979835 108.311575,36.37843 96.4671989,39.8768239 C88.5709482,42.2090865 86.7186458,47.370585 90.9102919,55.3613196 Z"/><filter id="x37" x="-0.8%" y="-2.0%" width="101.5%" height="108.0%" filterUnits="objectBoundingBox"><feOffset dx="0" dy="2" in="SourceAlpha" result="shadowOffsetOuter1"/><feColorMatrix values="0 0 0 0 0 0 0 0 0 0 0 0 0 0 0 0 0 0 0.16 0" type="matrix" in="shadowOffsetOuter1" result="shadowMatrixOuter1"/><feMerge><feMergeNode in="shadowMatrixOuter1"/><feMergeNode in="SourceGraphic"/></feMerge></filter></defs><mask id="x27" fill="#FFFFFF"><use xlink:href="#x17"/></mask><g id="x1"/><g id="x3" mask="url('#x27')"><g transform="translate(-1,0)"><g id="x8" transform="translate(49,72)"><defs><path id="x22" d="M84.0002865,69.2970648 C77.2083681,65.7112456 67.5782013,65.1489138 62.3885276,67.1316942 C56.6144416,69.3374281 51.5052994,75.5829845 42.6388201,72.8283797 C42.2699314,72.7136458 41.9094725,73.0449523 42.0204089,73.408662 C43.3937943,77.9183313 51.0278347,81.0068878 53.6221945,81.1080652 C64.961124,81.549609 74.0949802,72.8302891 84.0002865,72.1614794 C93.9055921,72.8302891 103.03945,81.549609 114.378714,81.1080652 C116.972736,81.0068878 124.607113,77.9183313 125.980498,73.408662 C126.091098,73.0449523 125.730639,72.7136458 125.36175,72.8283797 C116.495271,75.5829845 111.386129,69.3374281 105.612044,67.1316942 C100.422371,65.1489138 90.7922044,65.7112456 84.0002865,69.2970648 Z"/></defs><mask id="x23" fill="#FFFFFF"><use xlink:href="#x22"/></mask><use id="x6" fill="#28354B" fill-rule="evenodd" xlink:href="#x22"/><g id="x57" mask="url('#x23')" fill="#B58143"><g transform="translate(-32,0)" id="x7"><rect x="0" y="0" width="264" height="244"/></g></g></g> <mask id="x26" fill="#FFFFFF"><use xlink:href="#x19"/></mask><use id="x2" stroke="none" fill="#252E32" fill-rule="evenodd" xlink:href="#x19"/><g id="x4" mask="url('#x26')" fill="#B58143"><g transform="translate(0,0) " id="x5"><rect x="0" y="0" width="264" height="280"/></g></g> </g></g></g> </g></g></g></g></svg>