<?xml version="1.0" encoding="utf-8" ?><!DOCTYPE svg PUBLIC "-//W3C//DTD SVG 1.1//EN" "http://www.w3.org/Graphics/SVG/1.1/DTD/svg11.dtd"><svg width="280px" height="280px" viewBox="-6 0 274 280" version="1.1" xmlns="http://www.w3.org/2000/svg" xmlns:xlink="http://www.w3.org/1999/xlink"><desc>Py-Avataaars</desc> <g id="x38" stroke="none" stroke-width="1" fill="none" fill-rule="evenodd"><defs><circle id="x15" cx="120" cy="120" r="120"/><path id="x22" d="M12,160 C12,226.27417 65.72583,280 132,280 C198.27417,280 252,226.27417 252,160 L264,160 L264,-1.42108547e-14 L-3.19744231e-14,-1.42108547e-14 L-3.19744231e-14,160 L12,160 Z"/><path id="x17" d="M124,144.610951 L124,163 L128,163 L128,163 C167.764502,163 200,195.235498 200,235 L200,244 L0,244 L0,235 C-4.86974701e-15,195.235498 32.235498,163 72,163 L72,163 L76,163 L76,144.610951 C58.7626345,136.422372 46.3722246,119.687011 44.3051388,99.8812385 C38.4803105,99.0577866 34,94.0521096 34,88 L34,74 C34,68.0540074 38.3245733,63.1180731 44,62.1659169 L44,56 L44,56 C44,25.072054 69.072054,5.68137151e-15 100,0 L100,0 L100,0 C130.927946,-5.68137151e-15 156,25.072054 156,56 L156,62.1659169 C161.675427,63.1180731 166,68.0540074 166,74 L166,88 C166,94.0521096 161.51969,99.0577866 155.694861,99.8812385 C153.627775,119.687011 141.237365,136.422372 124,144.610951 Z"/></defs><g id="x36" transform="translate(-825,-1100)"><g transform="translate(825,1100)"> <g id="x32" stroke-width="1" fill-rule="evenodd" transform="translate(12,40)"><mask id="x21" fill="#FFFFFF"><use xlink:href="#x15"/></mask><use id="x31" fill="#E6E6E6" xlink:href="#x15"/><g id="x34" mask="url('#x21')" fill="#3C4F5C"><rect id="x35" x="0" y="0" width="240" height="240"/></g></g> <mask id="x20" fill="#FFFFFF"><use xlink:href="#x22"/></mask> <g id="x37" stroke-width="1" fill-rule="evenodd" mask="url('#x20')"><g id="x33" transform="translate(32,36)"><mask id="x23" fill="#FFFFFF"><use xlink:href="#x17"/></mask><use fill="#D0C6AC" xlink:href="#x17"/><g id="x12" mask="url('#x23')" fill="#FD9841"><g transform="translate(0,0)" id="x13"><rect x="0" y="0" width="264" height="280"/></g></g> <path id="x30" d="M156,79 L156,102 C156,132.927946 130.927946,158 100,158 C69.072054,158 44,132.927946 44,102 L44,79 L44,94 C44,124.927946 69.072054,150 100,150 C130.927946,150 156,124.927946 156,94 L156,79 Z" fill-opacity="0.1" fill="#000000" mask="url('#x23')"/></g><g id="x57" transform="translate(0,170)"><defs><path id="x18" d="M108,13.0708856 C90.0813006,15.075938 76.2798424,20.5518341 76.004203,34.6449676 C50.1464329,45.5680933 32,71.1646257 32,100.999485 L32,100.999485 L32,110 L232,110 L232,100.999485 C232,71.1646257 213.853567,45.5680933 187.995797,34.6449832 C187.720158,20.5518341 173.918699,15.075938 156,13.0708856 L156,32 L156,32 C156,45.254834 145.254834,56 132,56 L132,56 C118.745166,56 108,45.254834 108,32 L108,13.0708856 Z"/></defs><mask id="x29" fill="#FFFFFF"><use xlink:href="#x18"/></mask><use id="x56" fill="#B7C1DB" fill-rule="evenodd" xlink:href="#x18"/><g id="py-avataaars-clothes-clothe-color-palette-blue_03" mask="url('#x29')" fill-rule="evenodd" fill="#25557C"><rect id="x58" x="0" y="0" width="264" height="110"/></g> <path id="x54" d="M102,61.7390531 L102,110 L95,110 L95,58.1502625 C97.2037542,59.4600576 99.5467694,60.6607878 102,61.7390531 Z M169,58.1502625 L169,98.5 C169,100.432997 167.432997,102 165.5,102 C163.567003,102 162,100.432997 162,98.5 L162,61.7390531 C164.453231,60.6607878 166.796246,59.4600576 169,58.1502625 Z" fill="#F4F4F4" fill-rule="evenodd" mask="url('#x29')"/><path id="x55" d="M90.9601329,12.7243537 C75.9093095,15.5711782 65.5,21.2428847 65.5,32.3076923 C65.5,52.0200095 98.5376807,68 132,68 C165.462319,68 198.5,52.0200095 198.5,32.3076923 C198.5,21.2428847 188.09069,15.5711782 173.039867,12.7243537 C182.124921,16.0744598 188,21.7060546 188,31.0769231 C188,51.4689754 160.178795,68 132,68 C103.821205,68 76,51.4689754 76,31.0769231 C76,21.7060546 81.8750795,16.0744598 90.9601329,12.7243537 Z" fill-opacity="0.16" fill="#000000" fill-rule="evenodd" mask="url('#x29')"/></g><g id="x53" transform="translate(76,82)" fill="#000000"><g id="x43" transform="translate(2,52)" fill-opacity="0.7"><path id="x42" d="M40,15 C40,22.7319865 46.2680135,29 54,29 L54,29 C61.7319865,29 68,22.7319865 68,15"/></g><g id="x41" transform="translate(28,40)" fill-opacity="0.16"><path id="x40" d="M16,8 C16,12.418278 21.372583,16 28,16 L28,16 C34.627417,16 40,12.418278 40,8"/></g><g id="x48" transform="translate(0,8)"><defs><path id="x16" d="M14,14.0481187 C23.6099827,14.0481187 28,18.4994466 28,11.5617716 C28,4.62409673 21.7319865,0 14,0 C6.2680135,0 0,4.62409673 0,11.5617716 C0,18.4994466 4.39001726,14.0481187 14,14.0481187 Z"/><path id="x19" d="M14,14.0481187 C23.6099827,14.0481187 28,18.4994466 28,11.5617716 C28,4.62409673 21.7319865,0 14,0 C6.2680135,0 0,4.62409673 0,11.5617716 C0,18.4994466 4.39001726,14.0481187 14,14.0481187 Z"/></defs><g id="x47" transform="translate(16,13)"><mask id="x28" fill="#FFFFFF"><use xlink:href="#x16"/></mask><use id="x44" fill="#FFFFFF" xlink:href="#x16"/><circle fill-opacity="0.7" fill="#000000" mask="url('#x28')" cx="14" cy="10" r="6"/></g><g id="x46" transform="translate(68,13)"><mask id="x25" fill="#FFFFFF"><use xlink:href="#x19"/></mask><use id="x45" fill="#FFFFFF" xlink:href="#x19"/><circle fill-opacity="0.7" fill="#000000" mask="url('#x25')" cx="14" cy="10" r="6"/></g></g><g id="x52" fill-opacity="0.6"><g id="x51" transform="translate(12,6)"><path id="x50" d="M3.63024536,11.1585767 C7.54515501,5.64986673 18.2779197,2.56083721 27.5230268,4.83118046 C28.5957248,5.0946055 29.6788665,4.43856013 29.9422916,3.36586212 C30.2057166,2.2931641 29.5496712,1.21002236 28.4769732,0.94659732 C17.7403633,-1.69001789 5.31209962,1.88699832 0.369754639,8.84142326 C-0.270109626,9.74178291 -0.0589363917,10.9903811 0.84142326,11.6302454 C1.74178291,12.2701096 2.9903811,12.0589364 3.63024536,11.1585767 Z" fill-rule="nonzero"/><path id="x49" d="M61.6302454,11.1585767 C65.545155,5.64986673 76.2779197,2.56083721 85.5230268,4.83118046 C86.5957248,5.0946055 87.6788665,4.43856013 87.9422916,3.36586212 C88.2057166,2.2931641 87.5496712,1.21002236 86.4769732,0.94659732 C75.7403633,-1.69001789 63.3120996,1.88699832 58.3697546,8.84142326 C57.7298904,9.74178291 57.9410636,10.9903811 58.8414233,11.6302454 C59.7417829,12.2701096 60.9903811,12.0589364 61.6302454,11.1585767 Z" fill-rule="nonzero" transform="translate(73.000154, 6.039198) scale(-1, 1) translate(-73.000154, -6.039198)"/></g></g></g><g id="x0" stroke-width="1" fill-rule="evenodd"><defs><rect id="x14" x="0" y="0" width="264" height="280"/><path id="x24" d="M148.859344,69 C148.952588,70.3212062 149,71.6550662 149,73 L149,111 C149,133.339168 135.919579,152.623239 117,161.610951 L117,170.317435 C135.145605,171.815797 152.721153,174.335027 163.000169,177 C172.952646,163.439362 185.884594,150.800081 186.000169,126 C186.085192,107.014914 158.324059,30.4276364 146.000169,15 C137.861928,4.81215989 117.30504,1.44935656 93.0001685,1 C68.6952966,0.550643437 48.9231015,6.50878211 41,16 C30.3189583,28.7950013 -0.0850232975,107.014914 4.92293245e-13,126 C0.115574613,150.800081 13.047523,163.439362 23,177 C33.2789946,174.335033 50.8544902,171.815807 69,170.317444 L69,161.610951 C50.0804213,152.623239 37,133.339168 37,111 L37,73 L37,73 C37,71.6550662 37.0474121,70.3212062 37.1406562,69 L65.3735517,69 L69.2529753,47.5561285 L72.058097,69 L148.859344,69 Z"/></defs><mask id="x27" fill="#FFFFFF"><use xlink:href="#x14"/></mask><g id="x2"/><g id="x5" mask="url('#x27')"><g transform="translate(-1,0)"><path id="x1" d="M69.0330562,76.212888 C81.9708809,43.1292208 95.6458945,26.5873873 110.058097,26.5873873 C110.596882,26.5873873 139.311316,26.3494141 158.112657,26.226792 C178.767149,35.5853581 193,55.3036503 193,78.114622 L193,93 L110.058097,93 L107.252975,69.820435 L103.373552,93 L69,93 L69,78.114622 C69,77.478246 69.0110772,76.844277 69.0330621,76.2128728 L69.0330562,76.212888 Z" fill-opacity="0.16" fill="#000000" fill-rule="evenodd"/><g id="x3" stroke-width="1" fill="none" fill-rule="evenodd" transform="translate(40,19)"><mask id="x26" fill="#FFFFFF"><use xlink:href="#x24"/></mask><use id="x4" fill="#E6E6E6" xlink:href="#x24"/><g id="x6-blonde_golden" mask="url('#x26')" fill="#D6B370"><g transform="translate(0,0) " id="x6"><rect x="0" y="0" width="264" height="280"/></g></g> </g><g id="x11" fill="none" transform="translate(62,85)" stroke-width="1"><defs><filter id="x39" x="-0.8%" y="-2.4%" width="101.5%" height="109.8%" filterUnits="objectBoundingBox"><feOffset dx="0" dy="2" in="SourceAlpha" result="shadowOffsetOuter1"/><feColorMatrix values="0 0 0 0 0 0 0 0 0 0 0 0 0 0 0 0 0 0 0.2 0" type="matrix" in="shadowOffsetOuter1" result="shadowMatrixOuter1"/><feMerge><feMergeNode in="shadowMatrixOuter1"/><feMergeNode in="SourceGraphic"/></feMerge></filter></defs><g id="x7" filter="url('#x39')" transform="translate(6,7)" fill="#252C2F"><path id="x10" d="M34,41 L31.2421498,41 C17.3147125,41 9,33.3359286 9,20.5 C9,10.127 10.8170058,0 32.5299306,0 L35.4700694,0 C57.1829942,0 59,10.127 59,20.5 C59,32.5686429 48.7212748,41 34,41 Z M32.3853606,6 C13,6 13,12.8410159 13,21.5015498 C13,28.5719428 16.116254,37 30.9709365,37 L34,37 C46.3649085,37 55,30.6270373 55,21.5015498 C55,12.8410159 55,6 35.6146394,6 L32.3853606,6 Z" fill-rule="nonzero"/><path id="x9" d="M96,41 L93.2421498,41 C79.3147125,41 71,33.3359286 71,20.5 C71,10.127 72.8170058,0 94.5299306,0 L97.4700694,0 C119.182994,0 121,10.127 121,20.5 C121,32.5686429 110.721275,41 96,41 Z M94.3853606,6 C75,6 75,12.8410159 75,21.5015498 C75,28.5719428 78.1194833,37 92.9709365,37 L96,37 C108.364909,37 117,30.6270373 117,21.5015498 C117,12.8410159 117,6 97.6146394,6 L94.3853606,6 Z" fill-rule="nonzero"/><path id="x8" d="M2.95454545,5.77156439 C3.64590909,5.09629136 11.2095455,0 32.5,0 C50.3513636,0 54.1302273,1.85267217 59.8502273,4.6518809 L60.2689233,4.85850899 C60.6666014,4.99901896 62.7002447,5.68982981 65.0790606,5.76579519 C67.2462948,5.67278567 69.1000195,5.08540191 69.641698,4.89719767 C76.1703915,1.7220864 82.5610971,0 97.5,0 C118.790455,0 126.354091,5.09629136 127.045455,5.77156439 C128.679318,5.77156439 130,7.06150904 130,8.65734659 L130,11.5431288 C130,13.1389663 128.679318,14.428911 127.045455,14.428911 C127.045455,14.428911 120.143997,14.428911 120.143997,17.3146932 C120.143997,20.2004754 118.181818,13.1389663 118.181818,11.5431288 L118.181818,8.73240251 C114.578575,7.35340151 108.128411,4.78617535 97.5,4.78617535 C85.6584651,4.78617535 79.7610984,6.88602813 74.7022935,8.97112368 L74.7588636,9.10752861 L74.7563667,11.0937608 L72.5391666,16.4436339 L69.8004908,15.3608351 C69.5558969,15.2641292 69.0281396,15.090392 68.2963505,14.9099044 C66.256272,14.4067419 64.1589087,14.253569 62.3040836,14.6343084 C61.6235903,14.7739931 60.9922286,14.9836085 60.4128127,15.266732 L57.7704824,16.5578701 L55.1266751,11.3962031 L55.2440909,9.10175705 L55.3248203,8.90683855 C50.9620526,6.87386374 46.9392639,4.78617535 32.5,4.78617535 C21.8721459,4.78617535 15.422131,7.3524397 11.8181818,8.7314671 L11.8181818,11.5431288 C11.8181818,13.1389663 8.86363636,20.2004754 8.86363636,17.3146932 C8.86363636,14.428911 2.95454545,14.428911 2.95454545,14.428911 C1.32363636,14.428911 0,13.1389663 0,11.5431288 L0,8.65734659 C0,7.06150904 1.32363636,5.77156439 2.95454545,5.77156439 Z" fill-rule="nonzero"/></g></g> </g></g></g> </g></g></g></g></svg>