<?xml version="1.0" encoding="utf-8" ?><!DOCTYPE svg PUBLIC "-//W3C//DTD SVG 1.1//EN" "http://www.w3.org/Graphics/SVG/1.1/DTD/svg11.dtd"><svg width="280px" height="280px" viewBox="-6 0 274 280" version="1.1" xmlns="http://www.w3.org/2000/svg" xmlns:xlink="http://www.w3.org/1999/xlink"><desc>Py-Avataaars</desc> <g id="x33" stroke="none" stroke-width="1" fill="none" fill-rule="evenodd"><defs><circle id="x19" cx="120" cy="120" r="120"/><path id="x10" d="M12,160 C12,226.27417 65.72583,280 132,280 C198.27417,280 252,226.27417 252,160 L264,160 L264,-1.42108547e-14 L-3.19744231e-14,-1.42108547e-14 L-3.19744231e-14,160 L12,160 Z"/><path id="x21" d="M124,144.610951 L124,163 L128,163 L128,163 C167.764502,163 200,195.235498 200,235 L200,244 L0,244 L0,235 C-4.86974701e-15,195.235498 32.235498,163 72,163 L72,163 L76,163 L76,144.610951 C58.7626345,136.422372 46.3722246,119.687011 44.3051388,99.8812385 C38.4803105,99.0577866 34,94.0521096 34,88 L34,74 C34,68.0540074 38.3245733,63.1180731 44,62.1659169 L44,56 L44,56 C44,25.072054 69.072054,5.68137151e-15 100,0 L100,0 L100,0 C130.927946,-5.68137151e-15 156,25.072054 156,56 L156,62.1659169 C161.675427,63.1180731 166,68.0540074 166,74 L166,88 C166,94.0521096 161.51969,99.0577866 155.694861,99.8812385 C153.627775,119.687011 141.237365,136.422372 124,144.610951 Z"/></defs><g id="x31" transform="translate(-825,-1100)"><g transform="translate(825,1100)"> <g id="x28" stroke-width="1" fill-rule="evenodd" transform="translate(12,40)"><mask id="x17" fill="#FFFFFF"><use xlink:href="#x19"/></mask><use id="x27" fill="#E6E6E6" xlink:href="#x19"/><g id="x30-pastel_green" mask="url('#x17')" fill="#A7FFC4"><rect id="x30" x="0" y="0" width="240" height="240"/></g></g> <mask id="x16" fill="#FFFFFF"><use xlink:href="#x10"/></mask> <g id="x32" stroke-width="1" fill-rule="evenodd" mask="url('#x16')"><g id="x29" transform="translate(32,36)"><mask id="x14" fill="#FFFFFF"><use xlink:href="#x21"/></mask><use fill="#D0C6AC" xlink:href="#x21"/><g id="x8" mask="url('#x14')" fill="#F8D25C"><g transform="translate(0,0)" id="x9"><rect x="0" y="0" width="264" height="280"/></g></g> <path id="x26" d="M156,79 L156,102 C156,132.927946 130.927946,158 100,158 C69.072054,158 44,132.927946 44,102 L44,79 L44,94 C44,124.927946 69.072054,150 100,150 C130.927946,150 156,124.927946 156,94 L156,79 Z" fill-opacity="0.1" fill="#000000" mask="url('#x14')"/></g><g id="x51" transform="translate(0,170)"><defs><path id="x12" d="M94,29.6883435 L94,74 L170,74 L170,29.6883435 C179.362956,30.9893126 188.149952,34.0907916 196.00002,38.6318143 L196,110 L187,110 L77,110 L68,110 L68,38.6318027 C75.8500482,34.0907916 84.6370437,30.9893126 94,29.6883435 Z"/></defs><mask id="x25" fill="#FFFFFF"><use xlink:href="#x12"/></mask><use id="x48" fill="#B7C1DB" fill-rule="evenodd" xlink:href="#x12"/><g id="py-avataaars-clothes-clothe-color-palette-blue_02" mask="url('#x25')" fill-rule="evenodd" fill="#5199E4"><rect id="x52" x="0" y="0" width="264" height="110"/></g> <circle id="x50" fill="#F4F4F4" fill-rule="evenodd" cx="81" cy="83" r="5"/><circle id="x49" fill="#F4F4F4" fill-rule="evenodd" cx="183" cy="83" r="5"/></g><g id="x47" transform="translate(76,82)" fill="#000000"><g id="x40" transform="translate(2,52)"><defs><path id="x18" d="M35.117844,15.1280772 C36.1757121,24.6198025 44.2259873,32 54,32 C63.8042055,32 71.8740075,24.574136 72.8917593,15.0400546 C72.9736685,14.272746 72.1167429,13 71.042767,13 C56.1487536,13 44.7379213,13 37.0868244,13 C36.0066168,13 35.0120058,14.1784435 35.117844,15.1280772 Z"/><rect id="x15" x="39" y="2" width="31" height="16" rx="5"/></defs><mask id="x22" fill="#FFFFFF"><use xlink:href="#x18"/></mask><use id="x39" fill-opacity="0.7" fill="#000000" fill-rule="evenodd" xlink:href="#x18"/><use id="x38" stroke-width="1" fill-rule="evenodd" mask="url('#x22')" fill="#FFFFFF" xlink:href="#x15"/><g id="x37" stroke-width="1" fill-rule="evenodd" mask="url('#x22')" fill="#FF4F6D"><g transform="translate(38,24)"><circle cx="11" cy="11" r="11"/><circle cx="21" cy="11" r="11"/></g></g></g><g id="x36" transform="translate(28,40)" fill-opacity="0.16"><path id="x35" d="M16,8 C16,12.418278 21.372583,16 28,16 L28,16 C34.627417,16 40,12.418278 40,8"/></g><g id="x43" transform="translate(0,8)"><circle id="x53" fill="#FFFFFF" cx="82" cy="22" r="12"/><circle id="x41" fill-opacity="0.7" fill="#000000" cx="82" cy="22" r="6"/><path id="x42" d="M16.1601674,25.4473116 C18.006676,21.648508 22.1644225,19 26.9975803,19 C31.8136766,19 35.9591217,21.629842 37.8153518,25.4071242 C38.3667605,26.5291977 37.5821037,27.4474817 36.790607,26.7670228 C34.3395063,24.6597833 30.8587163,23.3437884 26.9975803,23.3437884 C23.2572061,23.3437884 19.8737584,24.5787519 17.4375392,26.5716412 C16.5467928,27.3002944 15.6201012,26.5583844 16.1601674,25.4473116 Z" fill-opacity="0.6" fill="#000000"/></g><g id="x46" fill-opacity="0.6"><path id="x44" d="M57.000525,12 C56.999825,11.9961 56.999825,11.9961 57.000525,12 M59.4596631,14.892451 C61.3120123,16.058698 64.1131185,16.7894891 65.7030886,17.0505179 C71.9486685,18.0766191 78.0153663,15.945512 84.1715051,15.0153209 C89.636055,14.1895424 95.8563653,13.4967455 100.86041,16.507708 C100.987756,16.584232 101.997542,17.2147893 102.524546,17.7511372 C102.91024,18.1443003 103.563259,18.0619945 103.822605,17.5722412 C105.241692,14.8939029 97.7243204,8.76008291 96.2812935,8.14993193 C89.7471082,5.39200867 81.0899445,8.32440654 74.4284137,9.38927986 C70.6888462,9.98718701 66.9279989,10.3803501 63.2409655,11.2908151 C61.9188284,11.6171635 60.6278928,12.2066818 59.3382119,12.3724317 C59.1848981,12.1429782 58.9889964,12 58.7633758,12 C57.5922879,12 55.8451696,15.4574504 58.0750241,15.6547468 C58.7728345,15.7164887 59.215997,15.3816732 59.4596631,14.892451 Z" transform="translate(80.5, 12.500000) rotate(-2.0) translate(-80.5, -12.500000)"/><path id="x45" d="M54.999475,12 C55.000175,11.9961 55.000175,11.9961 54.999475,12 M15.7187065,8.14993193 C22.2528918,5.39200867 30.9100555,8.32440654 37.5715863,9.38927986 C41.3111538,9.98718701 45.0720011,10.3803501 48.7590345,11.2908151 C50.2416282,11.6567696 51.6849876,12.3536477 53.1313394,12.4128263 C53.8325707,12.4413952 54.2674737,13.2763566 53.8149484,13.8242681 C52.3320222,15.6179895 48.3271239,16.7172136 46.2969114,17.0505179 C40.0513315,18.0766191 33.9846337,15.945512 27.8284949,15.0153209 C22.363945,14.1895424 16.1436347,13.4967455 11.1395899,16.507708 C11.0122444,16.584232 10.0024581,17.2147893 9.47545402,17.7511372 C9.0897602,18.1443003 8.43674067,18.0619945 8.17739482,17.5722412 C6.75830756,14.8939029 14.2756796,8.76008291 15.7187065,8.14993193 Z M54.9339874,11 C56.1050753,11 57.8521936,15.4015737 55.6223391,15.6527457 C53.3924847,15.9039176 53.7628995,11 54.9339874,11 Z" transform="translate(32.348682, 12.500000) rotate(2.0) translate(-32.348682, -12.500000)"/></g></g><g id="x0"><defs><rect id="x20" x="0" y="0" width="264" height="280"/><path id="x11" d="M66,0 L66,0 C102.450793,-6.69590214e-15 132,29.5492065 132,66 L132,71 L0,71 L0,66 C-4.46393476e-15,29.5492065 29.5492065,6.69590214e-15 66,0 Z"/><filter id="x34" x="-0.7%" y="-1.7%" width="101.4%" height="106.8%" filterUnits="objectBoundingBox" ><feOffset dx="0" dy="2" in="SourceAlpha" result="shadowOffsetOuter1"/><feColorMatrix values="0 0 0 0 0 0 0 0 0 0 0 0 0 0 0 0 0 0 0.1 0" type="matrix" in="shadowOffsetOuter1"/></filter><path id="x13" d="M67.2846026,61.4514246 C83.229708,49.8171415 105.159178,44 133.073012,44 C160.985408,44 182.871592,49.8165424 198.731564,61.4496271 L198.731562,61.4496305 C200.786183,62.956669 202.000006,65.3523289 202.000006,67.900394 L202.000004,98.3697692 C202.000004,100.578907 200.209144,102.369768 198.000006,102.369768 C197.244444,102.369768 196.504332,102.155773 195.865355,101.752558 C179.223261,91.2508526 158.536251,86 133.804323,86 C108.883259,86 87.640395,91.3314713 70.0757313,101.994414 L70.0757317,101.994414 C68.1873241,103.140806 65.7271332,102.539283 64.5807417,100.650875 C64.2008775,100.02514 64.0000054,99.3071624 64.0000054,98.5751499 L64,67.914014 C64,65.358892 65.2205159,62.9574773 67.2846026,61.4514246 Z"/></defs><mask id="x23" fill="#FFFFFF"><use xlink:href="#x20"/></mask><g id="x2"/><g id="x6" transform="translate(-1,0)"><g id="x5" stroke-width="1" fill-rule="evenodd" transform="translate(67,12)"><circle id="x1" fill="#F4F4F4" cx="66" cy="8" r="20"/><mask id="x24" fill="#FFFFFF"><use xlink:href="#x11"/></mask><use id="x3" fill="#D8D8D8" xlink:href="#x11"/><g id="py-avataaars-top-hat-color-pastel_blue" mask="url('#x24')" fill-rule="evenodd" fill="#B1E2FF"><rect id="x7" x="0" y="0" width="264" height="280"/></g> </g><g id="x4"><use fill="#000000" fill-opacity="1" filter="url('#x13')" xlink:href="#x13"/><use fill="#F4F4F4" fill-rule="evenodd" xlink:href="#x13"/></g> </g></g> </g></g></g></g></svg>