<?xml version="1.0" encoding="utf-8" ?><!DOCTYPE svg PUBLIC "-//W3C//DTD SVG 1.1//EN" "http://www.w3.org/Graphics/SVG/1.1/DTD/svg11.dtd"><svg width="280px" height="280px" viewBox="-6 0 274 280" version="1.1" xmlns="http://www.w3.org/2000/svg" xmlns:xlink="http://www.w3.org/1999/xlink"><desc>Py-Avataaars</desc> <g id="x29" stroke="none" stroke-width="1" fill="none" fill-rule="evenodd"><defs><circle id="x17" cx="120" cy="120" r="120"/><path id="x18" d="M12,160 C12,226.27417 65.72583,280 132,280 C198.27417,280 252,226.27417 252,160 L264,160 L264,-1.42108547e-14 L-3.19744231e-14,-1.42108547e-14 L-3.19744231e-14,160 L12,160 Z"/><path id="x14" d="M124,144.610951 L124,163 L128,163 L128,163 C167.764502,163 200,195.235498 200,235 L200,244 L0,244 L0,235 C-4.86974701e-15,195.235498 32.235498,163 72,163 L72,163 L76,163 L76,144.610951 C58.7626345,136.422372 46.3722246,119.687011 44.3051388,99.8812385 C38.4803105,99.0577866 34,94.0521096 34,88 L34,74 C34,68.0540074 38.3245733,63.1180731 44,62.1659169 L44,56 L44,56 C44,25.072054 69.072054,5.68137151e-15 100,0 L100,0 L100,0 C130.927946,-5.68137151e-15 156,25.072054 156,56 L156,62.1659169 C161.675427,63.1180731 166,68.0540074 166,74 L166,88 C166,94.0521096 161.51969,99.0577866 155.694861,99.8812385 C153.627775,119.687011 141.237365,136.422372 124,144.610951 Z"/></defs><g id="x27" transform="translate(-825,-1100)"><g transform="translate(825,1100)"> <g id="x24" stroke-width="1" fill-rule="evenodd" transform="translate(12,40)"><mask id="x11" fill="#FFFFFF"><use xlink:href="#x17"/></mask><use id="x23" fill="#E6E6E6" xlink:href="#x17"/><g id="x26-pastel_red" mask="url('#x11')" fill="#FFAFB9"><rect id="x26" x="0" y="0" width="240" height="240"/></g></g> <mask id="x13" fill="#FFFFFF"><use xlink:href="#x18"/></mask> <g id="x28" stroke-width="1" fill-rule="evenodd" mask="url('#x13')"><g id="x25" transform="translate(32,36)"><mask id="x12" fill="#FFFFFF"><use xlink:href="#x14"/></mask><use fill="#D0C6AC" xlink:href="#x14"/><g id="x9" mask="url('#x12')" fill="#D08B5B"><g transform="translate(0,0)" id="x8"><rect x="0" y="0" width="264" height="280"/></g></g> <path id="x22" d="M156,79 L156,102 C156,132.927946 130.927946,158 100,158 C69.072054,158 44,132.927946 44,102 L44,79 L44,94 C44,124.927946 69.072054,150 100,150 C130.927946,150 156,124.927946 156,94 L156,79 Z" fill-opacity="0.1" fill="#000000" mask="url('#x12')"/></g><g id="x45" transform="translate(0,170)"><defs><path id="x10" d="M165.960472,29.2949161 C202.936473,32.3249982 232,63.2942856 232,101.051724 L232,110 L32,110 L32,101.051724 C32,62.9525631 61.591985,31.7649812 99.0454063,29.2195264 C99.0152598,29.5931145 99,29.9692272 99,30.3476251 C99,42.2107177 113.998461,51.8276544 132.5,51.8276544 C151.001539,51.8276544 166,42.2107177 166,30.3476251 C166,29.9946691 165.986723,29.6437014 165.960472,29.2949161 Z"/></defs><mask id="x21" fill="#FFFFFF"><use xlink:href="#x10"/></mask><use id="x44" fill="#E6E6E6" fill-rule="evenodd" xlink:href="#x10"/><g id="x46" mask="url('#x21')" fill-rule="evenodd" fill="#FF5C5C"><rect id="x47" x="0" y="0" width="264" height="110"/></g> <g id="x42" opacity="0.6" stroke-width="1" fill-rule="evenodd" mask="url('#x21')" fill-opacity="0.16" fill="#000000"><g transform="translate(92,4)" id="x43"><ellipse cx="40.5" cy="27.8476251" rx="39.6351047" ry="26.9138272"/></g></g></g><g id="x41" transform="translate(76,82)" fill="#000000"><g id="x33" transform="translate(2,52)" fill-opacity="0.7"><path id="x32" d="M40,15 C40,22.7319865 46.2680135,29 54,29 L54,29 C61.7319865,29 68,22.7319865 68,15"/></g><g id="x31" transform="translate(28,40)" fill-opacity="0.16"><path id="x30" d="M16,8 C16,12.418278 21.372583,16 28,16 L28,16 C34.627417,16 40,12.418278 40,8"/></g><g id="x36" transform="translate(0,8)" fill-opacity="0.6"><circle id="x35" cx="30" cy="22" r="6"/><circle id="x34" cx="82" cy="22" r="6"/></g><g id="x40" fill-opacity="0.6"><g id="x39" transform="translate(12,0)"><path id="x38" d="M3.97579559,17.1279169 C5.47099148,7.60476158 18.0585488,1.10867597 27.1635167,5.30104271 C28.1668367,5.76301969 29.3546946,5.32417444 29.8166716,4.32085442 C30.2786486,3.3175344 29.8398033,2.12967649 28.8364833,1.66769952 C17.3488212,-3.62177466 1.93575948,4.3324746 0.0242044059,16.507492 C-0.147121205,17.5986938 0.598585765,18.6221744 1.68978754,18.7935 C2.78098932,18.9648257 3.80446998,18.2191187 3.97579559,17.1279169 Z" fill-rule="nonzero"/><path id="x37" d="M61.9757956,17.1279169 C63.4709915,7.60476158 76.0585488,1.10867597 85.1635167,5.30104271 C86.1668367,5.76301969 87.3546946,5.32417444 87.8166716,4.32085442 C88.2786486,3.3175344 87.8398033,2.12967649 86.8364833,1.66769952 C75.3488212,-3.62177466 59.9357595,4.3324746 58.0242044,16.507492 C57.8528788,17.5986938 58.5985858,18.6221744 59.6897875,18.7935 C60.7809893,18.9648257 61.80447,18.2191187 61.9757956,17.1279169 Z" fill-rule="nonzero" transform="translate(73.000097, 9.410436) scale(-1, 1) translate(-73.000097, -9.410436)"/></g></g></g><g id="x0" stroke-width="1" fill-rule="evenodd"><defs><rect id="x16" x="0" y="0" width="264" height="280"/><path id="x15" d="M148.859344,69 C148.952588,70.3212062 149,71.6550662 149,73 L149,111 C149,133.339168 135.919579,152.623239 117,161.610951 L117,170.317435 C135.145605,171.815797 152.721153,174.335027 163.000169,177 C172.952646,163.439362 185.884594,150.800081 186.000169,126 C186.085192,107.014914 158.324059,30.4276364 146.000169,15 C137.861928,4.81215989 117.30504,1.44935656 93.0001685,1 C68.6952966,0.550643437 48.9231015,6.50878211 41,16 C30.3189583,28.7950013 -0.0850232975,107.014914 4.92293245e-13,126 C0.115574613,150.800081 13.047523,163.439362 23,177 C33.2789946,174.335033 50.8544902,171.815807 69,170.317444 L69,161.610951 C50.0804213,152.623239 37,133.339168 37,111 L37,73 L37,73 C37,71.6550662 37.0474121,70.3212062 37.1406562,69 L65.3735517,69 L69.2529753,47.5561285 L72.058097,69 L148.859344,69 Z"/></defs><mask id="x19" fill="#FFFFFF"><use xlink:href="#x16"/></mask><g id="x2"/><g id="x5" mask="url('#x19')"><g transform="translate(-1,0)"><path id="x1" d="M69.0330562,76.212888 C81.9708809,43.1292208 95.6458945,26.5873873 110.058097,26.5873873 C110.596882,26.5873873 139.311316,26.3494141 158.112657,26.226792 C178.767149,35.5853581 193,55.3036503 193,78.114622 L193,93 L110.058097,93 L107.252975,69.820435 L103.373552,93 L69,93 L69,78.114622 C69,77.478246 69.0110772,76.844277 69.0330621,76.2128728 L69.0330562,76.212888 Z" fill-opacity="0.16" fill="#000000" fill-rule="evenodd"/><g id="x3" stroke-width="1" fill="none" fill-rule="evenodd" transform="translate(40,19)"><mask id="x20" fill="#FFFFFF"><use xlink:href="#x15"/></mask><use id="x4" fill="#E6E6E6" xlink:href="#x15"/><g id="x6" mask="url('#x20')" fill="#724133"><g transform="translate(0,0) " id="x7"><rect x="0" y="0" width="264" height="280"/></g></g> </g> </g></g></g> </g></g></g></g></svg>