<?xml version="1.0" encoding="utf-8" ?><!DOCTYPE svg PUBLIC "-//W3C//DTD SVG 1.1//EN" "http://www.w3.org/Graphics/SVG/1.1/DTD/svg11.dtd"><svg width="280px" height="280px" viewBox="-6 0 274 280" version="1.1" xmlns="http://www.w3.org/2000/svg" xmlns:xlink="http://www.w3.org/1999/xlink"><desc>Py-Avataaars</desc> <g id="x39" stroke="none" stroke-width="1" fill="none" fill-rule="evenodd"><defs><circle id="x13" cx="120" cy="120" r="120"/><path id="x22" d="M12,160 C12,226.27417 65.72583,280 132,280 C198.27417,280 252,226.27417 252,160 L264,160 L264,-1.42108547e-14 L-3.19744231e-14,-1.42108547e-14 L-3.19744231e-14,160 L12,160 Z"/><path id="x14" d="M124,144.610951 L124,163 L128,163 L128,163 C167.764502,163 200,195.235498 200,235 L200,244 L0,244 L0,235 C-4.86974701e-15,195.235498 32.235498,163 72,163 L72,163 L76,163 L76,144.610951 C58.7626345,136.422372 46.3722246,119.687011 44.3051388,99.8812385 C38.4803105,99.0577866 34,94.0521096 34,88 L34,74 C34,68.0540074 38.3245733,63.1180731 44,62.1659169 L44,56 L44,56 C44,25.072054 69.072054,5.68137151e-15 100,0 L100,0 L100,0 C130.927946,-5.68137151e-15 156,25.072054 156,56 L156,62.1659169 C161.675427,63.1180731 166,68.0540074 166,74 L166,88 C166,94.0521096 161.51969,99.0577866 155.694861,99.8812385 C153.627775,119.687011 141.237365,136.422372 124,144.610951 Z"/></defs><g id="x37" transform="translate(-825,-1100)"><g transform="translate(825,1100)"> <g id="x33" stroke-width="1" fill-rule="evenodd" transform="translate(12,40)"><mask id="x15" fill="#FFFFFF"><use xlink:href="#x13"/></mask><use id="x32" fill="#E6E6E6" xlink:href="#x13"/><g id="x35" mask="url('#x15')" fill="#262E33"><rect id="x36" x="0" y="0" width="240" height="240"/></g></g> <mask id="x18" fill="#FFFFFF"><use xlink:href="#x22"/></mask> <g id="x38" stroke-width="1" fill-rule="evenodd" mask="url('#x18')"><g id="x34" transform="translate(32,36)"><mask id="x19" fill="#FFFFFF"><use xlink:href="#x14"/></mask><use fill="#D0C6AC" xlink:href="#x14"/><g id="x11" mask="url('#x19')" fill="#EDB98A"><g transform="translate(0,0)" id="x12"><rect x="0" y="0" width="264" height="280"/></g></g> <path id="x31" d="M156,79 L156,102 C156,132.927946 130.927946,158 100,158 C69.072054,158 44,132.927946 44,102 L44,79 L44,94 C44,124.927946 69.072054,150 100,150 C130.927946,150 156,124.927946 156,94 L156,79 Z" fill-opacity="0.1" fill="#000000" mask="url('#x19')"/></g><g id="x54" transform="translate(0,170)"><defs><path id="x17" d="M171.319631,29.9364358 C205.706337,35.3665707 232,65.13854 232,101.051724 L232,110 L32,110 L32,101.051724 C32,65.1380521 58.2943778,35.3657617 92.6817711,29.9362145 C93.5835973,35.0053598 96.116393,39.8238432 100.236125,43.5389794 L100.236125,43.5389794 L129.321203,69.7676333 C130.843316,71.1402598 133.156684,71.1402598 134.678797,69.7676333 L134.678797,69.7676333 L163.763875,43.5389794 C164.189462,43.1551884 164.601167,42.7562772 164.998197,42.3430127 C168.414164,38.7873666 170.517305,34.4520434 171.319628,29.9364354 Z"/></defs><mask id="x27" fill="#FFFFFF"><use xlink:href="#x17"/></mask><use id="x53" fill="#E6E6E6" fill-rule="evenodd" xlink:href="#x17"/><g id="py-avataaars-clothes-clothe-color-palette-pastel_orange" mask="url('#x27')" fill-rule="evenodd" fill="#FFDEB5"><rect id="x55" x="0" y="0" width="264" height="110"/></g></g><g id="x52" transform="translate(76,82)" fill="#000000"><g id="x45" transform="translate(2,52)" fill="#000000" fill-opacity="0.7"><rect id="x44" x="42" y="18" width="24" height="6" rx="3"/></g><g id="x43" transform="translate(28,40)" fill-opacity="0.16"><path id="x42" d="M16,8 C16,12.418278 21.372583,16 28,16 L28,16 C34.627417,16 40,12.418278 40,8"/></g><g id="x48" transform="translate(0,8)" fill-opacity="0.8" fill-rule="nonzero" fill="#FF5353"><path id="x47" d="M35.9583333,10 C33.4074091,10 30.8837273,11.9797894 29.5,13.8206358 C28.1106364,11.9797894 25.5925909,10 23.0416667,10 C17.5523182,10 14,13.3341032 14,17.6412715 C14,23.3708668 18.4118636,26.771228 23.0416667,30.376724 C24.695,31.6133636 27.8223436,34.7777086 28.2083333,35.470905 C28.5943231,36.1641015 30.3143077,36.1885229 30.7916667,35.470905 C31.2690257,34.7532872 34.3021818,31.6133636 35.9583333,30.376724 C40.5853182,26.771228 45,23.3708668 45,17.6412715 C45,13.3341032 41.4476818,10 35.9583333,10 Z"/><path id="x46" d="M88.9583333,10 C86.4074091,10 83.8837273,11.9797894 82.5,13.8206358 C81.1106364,11.9797894 78.5925909,10 76.0416667,10 C70.5523182,10 67,13.3341032 67,17.6412715 C67,23.3708668 71.4118636,26.771228 76.0416667,30.376724 C77.695,31.6133636 80.8223436,34.7777086 81.2083333,35.470905 C81.5943231,36.1641015 83.3143077,36.1885229 83.7916667,35.470905 C84.2690257,34.7532872 87.3021818,31.6133636 88.9583333,30.376724 C93.5853182,26.771228 98,23.3708668 98,17.6412715 C98,13.3341032 94.4476818,10 88.9583333,10 Z"/></g><g id="x51" fill-opacity="0.6"><path id="x50" d="M22.7663531,1.57844898 L23.6772984,1.17582144 C28.9190996,-0.905265751 36.8645466,-0.0328729562 41.7227321,2.29911638 C42.2897848,2.57148957 41.9021563,3.4519421 41.3211012,3.40711006 C26.4021788,2.25602197 16.3582869,11.5525942 12.9460869,17.8470939 C12.8449215,18.0337142 12.5391523,18.05489 12.4635344,17.8808353 C10.156283,12.5620676 16.9134476,3.89614725 22.7663531,1.57844898 Z"/><path id="x49" d="M80.7663531,1.57844898 L81.6772984,1.17582144 C86.9190996,-0.905265751 94.8645466,-0.0328729562 99.7227321,2.29911638 C100.289785,2.57148957 99.9021563,3.4519421 99.3211012,3.40711006 C84.4021788,2.25602197 74.3582869,11.5525942 70.9460869,17.8470939 C70.8449215,18.0337142 70.5391523,18.05489 70.4635344,17.8808353 C68.156283,12.5620676 74.9134476,3.89614725 80.7663531,1.57844898 Z" transform="translate(85,9) scale(-1, 1) translate(-85,-9) "/></g></g><g id="x0"><defs><rect id="x20" x="0" y="0" width="264" height="280"/><path id="x24" d="M129.659138,38.3566287 C132.459581,45.3577056 134,52.9989608 134,61 L134,69 L2,69 L2,61 C2,52.9748603 3.54971254,45.3116754 6.36620203,38.2933809 C-0.0371821146,24.8304767 -1.28053094,13.7727805 2.63615554,5.12029235 C10.141056,2.84355825 18.8342301,4.64979084 28.7156778,10.5389901 C38.4862647,3.88774159 50.289117,-4.77047603e-15 63,-7.10542736e-15 L73,-7.10542736e-15 C85.7221104,-9.44244112e-15 97.5345852,3.89461262 107.310208,10.5566215 C117.203883,4.65339747 125.906912,2.84128775 133.419297,5.12029235 C137.342115,13.7863263 136.088729,24.8651051 129.659138,38.3566287 Z"/><path id="x21" d="M28.7156857,10.5389848 C18.758718,17.3171083 10.9122881,26.9651756 6.36620203,38.2933809 C-0.0371821146,24.8304767 -1.28053094,13.7727805 2.63615554,5.12029235 C10.1410556,2.84355836 18.8342292,4.64979066 28.7156763,10.5389892 Z M129.659138,38.3566287 C125.120833,27.0109143 117.273404,17.34646 107.310208,10.5566215 C117.203883,4.65339747 125.906912,2.84128775 133.419297,5.12029235 C137.342115,13.7863263 136.088729,24.8651051 129.659138,38.3566287 Z"/><path id="x25" d="M21.8615933,15.9591438 C17.3889306,20.0465694 13.5271638,24.7913314 10.4291788,30.040544 C7.50356643,21.9322189 7.00287124,16.3214118 8.92709323,13.2081228 C11.5782173,12.0615989 15.8897174,12.9786059 21.8615933,15.9591438 Z M125.352616,29.6737564 C122.278044,24.5465519 118.471613,19.9084198 114.077736,15.903773 C119.880509,13.0520429 124.083178,12.1889392 126.68574,13.3144617 C128.572308,16.3668294 128.127934,21.8199276 125.352616,29.6737564 Z"/><filter id="x41" x="-0.7%" y="-1.7%" width="101.4%" height="106.8%" filterUnits="objectBoundingBox" ><feOffset dx="0" dy="2" in="SourceAlpha" result="shadowOffsetOuter1"/><feColorMatrix values="0 0 0 0 0 0 0 0 0 0 0 0 0 0 0 0 0 0 0.1 0" type="matrix" in="shadowOffsetOuter1"/></filter><path id="x23" d="M67.2846026,61.4514246 C83.229708,49.8171415 105.159178,44 133.073012,44 C160.985408,44 182.871592,49.8165424 198.731564,61.4496271 L198.731562,61.4496305 C200.786183,62.956669 202.000006,65.3523289 202.000006,67.900394 L202.000004,98.3697692 C202.000004,100.578907 200.209144,102.369768 198.000006,102.369768 C197.244444,102.369768 196.504332,102.155773 195.865355,101.752558 C179.223261,91.2508526 158.536251,86 133.804323,86 C108.883259,86 87.640395,91.3314713 70.0757313,101.994414 L70.0757317,101.994414 C68.1873241,103.140806 65.7271332,102.539283 64.5807417,100.650875 C64.2008775,100.02514 64.0000054,99.3071624 64.0000054,98.5751499 L64,67.914014 C64,65.358892 65.2205159,62.9574773 67.2846026,61.4514246 Z"/></defs><mask id="x29" fill="#FFFFFF"><use xlink:href="#x20"/></mask><g id="x2"/><g id="x7" transform="translate(-1,0)"><g id="x6" stroke-width="1" fill-rule="evenodd" transform="translate(65,4)"><mask id="x30" fill="#FFFFFF"><use xlink:href="#x24"/></mask><use id="x4" fill="#D8D8D8" xlink:href="#x24"/><g id="py-avataaars-top-hat-color-pastel_green" mask="url('#x30')" fill-rule="evenodd" fill="#A7FFC4"><rect id="x8" x="0" y="0" width="264" height="280"/></g> <mask id="x28" fill="#FFFFFF"><use xlink:href="#x21"/></mask><use id="x1" fill-opacity="0.24" fill="#000000" xlink:href="#x21"/><mask id="x26" fill="#FFFFFF"><use xlink:href="#x25"/></mask><use id="x3" fill-opacity="0.3" fill="#FFFFFF" xlink:href="#x25"/></g><g id="x5"><use fill="#000000" fill-opacity="1" filter="url('#x23')" xlink:href="#x23"/><use fill="#F4F4F4" fill-rule="evenodd" xlink:href="#x23"/></g><g id="x10" fill="none" transform="translate(62,85)"><defs><path id="x16" d="M80.4646192,16.3941179 C84.3801509,8.45869677 92.552602,3 102,3 C110.919691,3 118.702887,7.86591082 122.839921,15.0880638 C123.050197,15.0306504 123.271519,15 123.5,15 L131.5,15 C132.880712,15 134,16.1192881 134,17.5 C134,18.8807119 132.880712,20 131.5,20 L124.963126,20 C125.637355,22.2145921 126,24.5649459 126,27 C126,40.254834 115.254834,51 102,51 C88.745166,51 78,40.254834 78,27 C78,25.5781066 78.1236513,24.1850936 78.3607874,22.8311273 C78.2762458,18.4553035 74.9135957,15 70.8624171,15 C67.1256697,15 63.9747186,17.9397535 63.4417635,21.8300629 C63.8073299,23.4951922 64,25.2250958 64,27 C64,40.254834 53.254834,51 40,51 C26.745166,51 16,40.254834 16,27 C16,24.5649459 16.3626451,22.2145921 17.0368738,20 L10.5,20 C9.11928813,20 8,18.8807119 8,17.5 C8,16.1192881 9.11928813,15 10.5,15 L10.5,15 L18.5,15 C18.728481,15 18.9498033,15.0306504 19.1600793,15.0880638 C23.2971127,7.86591082 31.0803092,3 40,3 C49.3521568,3 57.4549431,8.34919095 61.415666,16.15488 C63.4929212,13.0392725 66.9494432,11 70.8624171,11 C74.8746823,11 78.4070368,13.1440781 80.4646192,16.3941179 Z M40,47 C51.045695,47 60,38.045695 60,27 C60,15.954305 51.045695,7 40,7 C28.954305,7 20,15.954305 20,27 C20,38.045695 28.954305,47 40,47 Z M102,47 C113.045695,47 122,38.045695 122,27 C122,15.954305 113.045695,7 102,7 C90.954305,7 82,15.954305 82,27 C82,38.045695 90.954305,47 102,47 Z"/><filter id="x40" x="-0.8%" y="-2.1%" width="101.6%" height="108.3%" filterUnits="objectBoundingBox" ><feOffset in="SourceAlpha" dx="0" dy="2" result="shadowOffsetOuter1"/><feColorMatrix in="shadowOffsetOuter1" values="0 0 0 0 0 0 0 0 0 0 0 0 0 0 0 0 0 0 0.1 0" type="matrix"/></filter></defs><g id="x9"><use fill="#000000" fill-opacity="1" filter="url('#x40')" xlink:href="#x16"/><use fill="#252C2F" fill-rule="evenodd" xlink:href="#x16"/></g></g> </g></g> </g></g></g></g></svg>