<?xml version="1.0" encoding="utf-8" ?><!DOCTYPE svg PUBLIC "-//W3C//DTD SVG 1.1//EN" "http://www.w3.org/Graphics/SVG/1.1/DTD/svg11.dtd"><svg width="280px" height="280px" viewBox="-6 0 274 280" version="1.1" xmlns="http://www.w3.org/2000/svg" xmlns:xlink="http://www.w3.org/1999/xlink"><desc>Py-Avataaars</desc> <g id="x32" stroke="none" stroke-width="1" fill="none" fill-rule="evenodd"><defs><circle id="x20" cx="120" cy="120" r="120"/><path id="x12" d="M12,160 C12,226.27417 65.72583,280 132,280 C198.27417,280 252,226.27417 252,160 L264,160 L264,-1.42108547e-14 L-3.19744231e-14,-1.42108547e-14 L-3.19744231e-14,160 L12,160 Z"/><path id="x11" d="M124,144.610951 L124,163 L128,163 L128,163 C167.764502,163 200,195.235498 200,235 L200,244 L0,244 L0,235 C-4.86974701e-15,195.235498 32.235498,163 72,163 L72,163 L76,163 L76,144.610951 C58.7626345,136.422372 46.3722246,119.687011 44.3051388,99.8812385 C38.4803105,99.0577866 34,94.0521096 34,88 L34,74 C34,68.0540074 38.3245733,63.1180731 44,62.1659169 L44,56 L44,56 C44,25.072054 69.072054,5.68137151e-15 100,0 L100,0 L100,0 C130.927946,-5.68137151e-15 156,25.072054 156,56 L156,62.1659169 C161.675427,63.1180731 166,68.0540074 166,74 L166,88 C166,94.0521096 161.51969,99.0577866 155.694861,99.8812385 C153.627775,119.687011 141.237365,136.422372 124,144.610951 Z"/></defs><g id="x30" transform="translate(-825,-1100)"><g transform="translate(825,1100)"> <g id="x26" stroke-width="1" fill-rule="evenodd" transform="translate(12,40)"><mask id="x18" fill="#FFFFFF"><use xlink:href="#x20"/></mask><use id="x25" fill="#E6E6E6" xlink:href="#x20"/><g id="x28" mask="url('#x18')" fill="#FF5C5C"><rect id="x29" x="0" y="0" width="240" height="240"/></g></g> <mask id="x16" fill="#FFFFFF"><use xlink:href="#x12"/></mask> <g id="x31" stroke-width="1" fill-rule="evenodd" mask="url('#x16')"><g id="x27" transform="translate(32,36)"><mask id="x19" fill="#FFFFFF"><use xlink:href="#x11"/></mask><use fill="#D0C6AC" xlink:href="#x11"/><g id="x9" mask="url('#x19')" fill="#FFDBB4"><g transform="translate(0,0)" id="x10"><rect x="0" y="0" width="264" height="280"/></g></g> <path id="x24" d="M156,79 L156,102 C156,132.927946 130.927946,158 100,158 C69.072054,158 44,132.927946 44,102 L44,79 L44,94 C44,124.927946 69.072054,150 100,150 C130.927946,150 156,124.927946 156,94 L156,79 Z" fill-opacity="0.1" fill="#000000" mask="url('#x19')"/></g><g id="x54" transform="translate(0,170)"><defs><path id="x17" d="M105.192402,29.0517235 L104,29.0517235 L104,29.0517235 C64.235498,29.0517235 32,61.2872215 32,101.051724 L32,110 L232,110 L232,101.051724 C232,61.2872215 199.764502,29.0517235 160,29.0517235 L160,29.0517235 L158.807598,29.0517235 C158.934638,30.0353144 159,31.0364513 159,32.0517235 C159,45.8588423 146.911688,57.0517235 132,57.0517235 C117.088312,57.0517235 105,45.8588423 105,32.0517235 C105,31.0364513 105.065362,30.0353144 105.192402,29.0517235 Z"/></defs><mask id="x23" fill="#FFFFFF"><use xlink:href="#x17"/></mask><use id="x51" fill="#E6E6E6" fill-rule="evenodd" xlink:href="#x17"/><g id="x49" mask="url('#x23')" fill-rule="evenodd" fill="#262E33"><rect id="x53" x="0" y="0" width="264" height="110"/></g><g id="x52" stroke-width="1" fill-rule="evenodd" transform="translate(32,28)"><path id="x47" d="M68.784807,1.12222847 C30.512317,2.80409739 1.24427139e-14,34.3646437 0,73.0517235 L0,82 L69.3616767,82 C65.9607412,69.9199941 64,55.7087296 64,40.5 C64,26.1729736 65.7399891,12.7311115 68.784807,1.12222847 Z M131.638323,82 L200,82 L200,73.0517235 C200,34.7067641 170.024954,3.36285166 132.228719,1.17384225 C135.265163,12.7709464 137,26.1942016 137,40.5 C137,55.7087296 135.039259,69.9199941 131.638323,82 Z" fill="#3A4C5A"/><path id="x48" d="M149,58 L158.555853,50.83311 L158.555853,50.83311 C159.998897,49.7508275 161.987779,49.7682725 163.411616,50.8757011 L170,56 L149,58 Z" fill="#E6E6E6"/><path id="x46" d="M69,1.13686838e-13 C65,19.3333333 66.6666667,46.6666667 74,82 L58,82 L44,46 L50,37 L44,31 L63,1 C65.027659,0.369238637 67.027659,0.0359053037 69,1.13686838e-13 Z" fill="#2F4351"/><path id="x45" d="M151,1.13686838e-13 C147,19.3333333 148.666667,46.6666667 156,82 L140,82 L126,46 L132,37 L126,31 L145,1 C147.027659,0.369238637 149.027659,0.0359053037 151,1.13686838e-13 Z" fill="#2F4351" transform="translate(141,41) scale(-1, 1) translate(-141,-41)"/></g><path id="x50" d="M156,21.5390062 C162.772319,26.1359565 167,32.6563196 167,39.8878801 C167,47.2887711 162.572015,53.9447688 155.520105,58.5564942 L149.57933,53.8764929 L145,54.207887 L146,51.0567821 L145.922229,50.995516 C152.022491,47.8530505 156,42.7003578 156,36.8768102 L156,21.5390062 Z M108,21.5390062 C101.227681,26.1359565 97,32.6563196 97,39.8878801 C97,47.2887711 101.427985,53.9447688 108.479895,58.5564942 L114.42067,53.8764929 L119,54.207887 L118,51.0567821 L118.077771,50.995516 C111.977509,47.8530505 108,42.7003578 108,36.8768102 L108,21.5390062 Z" fill="#F2F2F2" fill-rule="evenodd"/></g><g id="x44" transform="translate(76,82)" fill="#000000"><g id="x37" transform="translate(2,52)" fill="#000000" fill-opacity="0.7"><rect id="x36" x="42" y="18" width="24" height="6" rx="3"/></g><g id="x35" transform="translate(28,40)" fill-opacity="0.16"><path id="x34" d="M16,8 C16,12.418278 21.372583,16 28,16 L28,16 C34.627417,16 40,12.418278 40,8"/></g><g id="x40" transform="translate(0,8)" fill-opacity="0.6"><path id="x39" d="M27.2409577,20.3455337 C26.462715,21.3574913 26,22.6247092 26,24 C26,27.3137085 28.6862915,30 32,30 C35.3137085,30 38,27.3137085 38,24 C38,23.7097898 37.9793961,23.4243919 37.9395713,23.1451894 C37.9474218,22.9227843 37.9097825,22.6709538 37.8153518,22.4071242 C37.7703692,22.2814477 37.7221152,22.1572512 37.6706873,22.0345685 C37.3370199,21.0717264 36.7650456,20.2202109 36.0253277,19.550585 C33.898886,17.3173253 30.5064735,16 26.9975803,16 C22.1644225,16 18.006676,18.648508 16.1601674,22.4473116 C15.6201012,23.5583844 16.5467928,24.3002944 17.4375392,23.5716412 C19.8737584,21.5787519 23.2572061,20.3437884 26.9975803,20.3437884 C27.0788767,20.3437884 27.1600045,20.3443718 27.2409577,20.3455337 Z"/><path id="x38" d="M85.2409577,20.3455337 C84.462715,21.3574913 84,22.6247092 84,24 C84,27.3137085 86.6862915,30 90,30 C93.3137085,30 96,27.3137085 96,24 C96,23.7097898 95.9793961,23.4243919 95.9395713,23.1451894 C95.9474218,22.9227843 95.9097825,22.6709538 95.8153518,22.4071242 C95.7703692,22.2814477 95.7221152,22.1572512 95.6706873,22.0345685 C95.3370199,21.0717264 94.7650456,20.2202109 94.0253277,19.550585 C91.898886,17.3173253 88.5064735,16 84.9975803,16 C80.1644225,16 76.006676,18.648508 74.1601674,22.4473116 C73.6201012,23.5583844 74.5467928,24.3002944 75.4375392,23.5716412 C77.8737584,21.5787519 81.2572061,20.3437884 84.9975803,20.3437884 C85.0788767,20.3437884 85.1600045,20.3443718 85.2409577,20.3455337 Z"/></g><g id="x43" fill-opacity="0.6"><path id="x42" d="M38.5686071,10.7022978 C33.5865557,11.2384494 28.6553385,11.1338998 23.6562444,11.1010606 C19.8231061,11.0762636 15.91974,10.6892291 12.3246118,12.5091287 C11.6361455,12.8572921 7.8767609,14.9449324 8.00311195,16.0108688 C8.10389896,16.8633498 12.0128479,18.0636592 12.7165939,18.2838164 C16.4280826,19.4452548 19.9241869,18.9282036 23.6870976,18.5703225 C28.3024371,18.1316834 32.9139567,18.1745756 37.5322346,17.8739956 C40.6422336,17.6719334 45.4224171,16.9769469 46.8293214,13.1484895 C47.2530382,11.9954284 46.8152171,9.73353891 46.3074622,8.50642195 C46.1050066,8.01751871 45.5634602,7.84963624 45.1688335,8.14921095 C43.7560524,9.22218432 40.9851444,10.4425994 38.5686071,10.7022978" transform="translate(27.5, 13.500000) rotate(2.0) translate(-27.5, -13.500000)"/><path id="x41" d="M95.5686071,10.7022978 C90.5865557,11.2384494 85.6553385,11.1338998 80.6562444,11.1010606 C76.8231061,11.0762636 72.91974,10.6892291 69.3246118,12.5091287 C68.6361455,12.8572921 64.8767609,14.9449324 65.003112,16.0108688 C65.103899,16.8633498 69.0128479,18.0636592 69.7165939,18.2838164 C73.4280826,19.4452548 76.9241869,18.9282036 80.6870976,18.5703225 C85.3024371,18.1316834 89.9139567,18.1745756 94.5322346,17.8739956 C97.6422336,17.6719334 102.422417,16.9769469 103.829321,13.1484895 C104.253038,11.9954284 103.815217,9.73353891 103.307462,8.50642195 C103.105007,8.01751871 102.56346,7.84963624 102.168833,8.14921095 C100.756052,9.22218432 97.9851444,10.4425994 95.5686071,10.7022978" transform="translate(84.5, 13.500000) scale(-1, 1) rotate(2.0) translate(-84.5, -13.500000)"/></g></g><g id="x0" stroke-width="1" fill-rule="evenodd"><defs><rect id="x14" x="0" y="0" width="264" height="280"/><path id="x13" d="M80.0203173,73.8104172 C78.0626651,79.5136273 77,85.6327143 77,92 L77,92 L77,98.1659169 C71.3245733,99.1180731 67,104.054007 67,110 L67,123 C67,129.018625 71.4308707,134.002364 77.2085808,134.867187 C78.9518066,155.114792 91.4692178,172.282984 109,180.610951 L109,191.55498 C104.295298,193.764912 99.0418843,195 93.5,195 C84.6936661,195 76.615743,191.881303 70.3104439,186.688122 C68.4019201,186.894245 66.4633102,187 64.5,187 C43.405572,187 25.1625605,174.791635 16.4510993,157.055039 C8.9342791,151.923647 4,143.288055 4,133.5 C4,131.385405 4.23029535,129.324599 4.66717333,127.341294 C2.29639351,121.011656 1,114.157223 1,107 C1,94.2436789 5.11811695,82.4491956 12.0974246,72.8734763 C12.0329017,72.0908558 12,71.2992702 12,70.5 C12,59.2025056 18.5734777,49.4403292 28.1042855,44.8296184 C36.5367477,26.7016558 54.5576512,13.9359054 75.6500672,13.049296 C80.7818839,8.06730831 87.7827378,5 95.5,5 C97.8269611,5 100.088787,5.27887473 102.253881,5.80502563 C111.775927,2.05800249 122.147627,0 133,0 C143.346018,0 153.255173,1.87043661 162.407758,5.29160393 C163.744126,5.09944416 165.11045,5 166.5,5 C174.217262,5 181.218116,8.06730831 186.349933,13.049296 C207.442349,13.9359054 225.463252,26.7016558 233.895715,44.8296184 C243.426522,49.4403292 250,59.2025056 250,70.5 C250,71.2992702 249.967098,72.0908558 249.902575,72.8734763 C256.881883,82.4491956 261,94.2436789 261,107 C261,114.157223 259.703606,121.011656 257.332827,127.341294 C257.769705,129.324599 258,131.385405 258,133.5 C258,143.288055 253.065721,151.923647 245.548901,157.055039 C236.837439,174.791635 218.594428,187 197.5,187 C195.53669,187 193.59808,186.894245 191.689556,186.688122 C185.384257,191.881303 177.306334,195 168.5,195 C164.481965,195 160.61557,194.350752 157,193.151442 L157,180.610951 C174.530782,172.282984 187.048193,155.114792 188.791419,134.867187 C194.569129,134.002364 199,129.018625 199,123 L199,110 C199,104.054007 194.675427,99.1180731 189,98.1659169 L189,92 C189,86.5585666 188.223906,81.2983998 186.776371,76.3241528 L188.153157,89.1947292 L176.812614,65.1945789 L131.676809,45.6707349 L101.563146,56.2283606 L80.0648273,76.419385 L80.0203173,73.8104172 Z"/></defs><mask id="x21" fill="#FFFFFF"><use xlink:href="#x14"/></mask><g id="x1"/><g id="x4" mask="url('#x21')"><g transform="translate(-1,0)"><mask id="x22" fill="#FFFFFF"><use xlink:href="#x13"/></mask><use id="x2" stroke="none" fill="#314756" fill-rule="evenodd" xlink:href="#x13"/><g id="x5" mask="url('#x22')" fill="#2C1B18"><g transform="translate(0,0) " id="x6"><rect x="0" y="0" width="264" height="280"/></g></g> <path id="x3" d="M76.6313898,98.975 C76.2155465,96.423245 76,93.8109442 76,91.1521739 C76,62.3493236 101.295912,39 132.5,39 C163.704088,39 189,62.3493236 189,91.1521739 C189,93.8109442 188.784453,96.423245 188.36861,98.975 C184.279562,73.883217 160.823662,54.6456522 132.5,54.6456522 C104.176338,54.6456522 80.7204382,73.883217 76.6313898,98.975 Z" stroke="none" fill="#92D9FF" fill-rule="evenodd"/><g id="x8" fill="none" transform="translate(62,85)"><defs><path id="x15" d="M80.4646192,16.3941179 C84.3801509,8.45869677 92.552602,3 102,3 C110.919691,3 118.702887,7.86591082 122.839921,15.0880638 C123.050197,15.0306504 123.271519,15 123.5,15 L131.5,15 C132.880712,15 134,16.1192881 134,17.5 C134,18.8807119 132.880712,20 131.5,20 L124.963126,20 C125.637355,22.2145921 126,24.5649459 126,27 C126,40.254834 115.254834,51 102,51 C88.745166,51 78,40.254834 78,27 C78,25.5781066 78.1236513,24.1850936 78.3607874,22.8311273 C78.2762458,18.4553035 74.9135957,15 70.8624171,15 C67.1256697,15 63.9747186,17.9397535 63.4417635,21.8300629 C63.8073299,23.4951922 64,25.2250958 64,27 C64,40.254834 53.254834,51 40,51 C26.745166,51 16,40.254834 16,27 C16,24.5649459 16.3626451,22.2145921 17.0368738,20 L10.5,20 C9.11928813,20 8,18.8807119 8,17.5 C8,16.1192881 9.11928813,15 10.5,15 L10.5,15 L18.5,15 C18.728481,15 18.9498033,15.0306504 19.1600793,15.0880638 C23.2971127,7.86591082 31.0803092,3 40,3 C49.3521568,3 57.4549431,8.34919095 61.415666,16.15488 C63.4929212,13.0392725 66.9494432,11 70.8624171,11 C74.8746823,11 78.4070368,13.1440781 80.4646192,16.3941179 Z M40,47 C51.045695,47 60,38.045695 60,27 C60,15.954305 51.045695,7 40,7 C28.954305,7 20,15.954305 20,27 C20,38.045695 28.954305,47 40,47 Z M102,47 C113.045695,47 122,38.045695 122,27 C122,15.954305 113.045695,7 102,7 C90.954305,7 82,15.954305 82,27 C82,38.045695 90.954305,47 102,47 Z"/><filter id="x33" x="-0.8%" y="-2.1%" width="101.6%" height="108.3%" filterUnits="objectBoundingBox" ><feOffset in="SourceAlpha" dx="0" dy="2" result="shadowOffsetOuter1"/><feColorMatrix in="shadowOffsetOuter1" values="0 0 0 0 0 0 0 0 0 0 0 0 0 0 0 0 0 0 0.1 0" type="matrix"/></filter></defs><g id="x7"><use fill="#000000" fill-opacity="1" filter="url('#x33')" xlink:href="#x15"/><use fill="#252C2F" fill-rule="evenodd" xlink:href="#x15"/></g></g> </g></g></g> </g></g></g></g></svg>