<?xml version="1.0" encoding="utf-8" ?><!DOCTYPE svg PUBLIC "-//W3C//DTD SVG 1.1//EN" "http://www.w3.org/Graphics/SVG/1.1/DTD/svg11.dtd"><svg width="280px" height="280px" viewBox="-6 0 274 280" version="1.1" xmlns="http://www.w3.org/2000/svg" xmlns:xlink="http://www.w3.org/1999/xlink"><desc>Py-Avataaars</desc> <g id="x22" stroke="none" stroke-width="1" fill="none" fill-rule="evenodd"><defs><circle id="x9" cx="120" cy="120" r="120"/><path id="x7" d="M12,160 C12,226.27417 65.72583,280 132,280 C198.27417,280 252,226.27417 252,160 L264,160 L264,-1.42108547e-14 L-3.19744231e-14,-1.42108547e-14 L-3.19744231e-14,160 L12,160 Z"/><path id="x10" d="M124,144.610951 L124,163 L128,163 L128,163 C167.764502,163 200,195.235498 200,235 L200,244 L0,244 L0,235 C-4.86974701e-15,195.235498 32.235498,163 72,163 L72,163 L76,163 L76,144.610951 C58.7626345,136.422372 46.3722246,119.687011 44.3051388,99.8812385 C38.4803105,99.0577866 34,94.0521096 34,88 L34,74 C34,68.0540074 38.3245733,63.1180731 44,62.1659169 L44,56 L44,56 C44,25.072054 69.072054,5.68137151e-15 100,0 L100,0 L100,0 C130.927946,-5.68137151e-15 156,25.072054 156,56 L156,62.1659169 C161.675427,63.1180731 166,68.0540074 166,74 L166,88 C166,94.0521096 161.51969,99.0577866 155.694861,99.8812385 C153.627775,119.687011 141.237365,136.422372 124,144.610951 Z"/></defs><g id="x20" transform="translate(-825,-1100)"><g transform="translate(825,1100)"> <g id="x16" stroke-width="1" fill-rule="evenodd" transform="translate(12,40)"><mask id="x8" fill="#FFFFFF"><use xlink:href="#x9"/></mask><use id="x15" fill="#E6E6E6" xlink:href="#x9"/><g id="x18" mask="url('#x8')" fill="#FFFFFF"><rect id="x19" x="0" y="0" width="240" height="240"/></g></g> <mask id="x4" fill="#FFFFFF"><use xlink:href="#x7"/></mask> <g id="x21" stroke-width="1" fill-rule="evenodd" mask="url('#x4')"><g id="x17" transform="translate(32,36)"><mask id="x6" fill="#FFFFFF"><use xlink:href="#x10"/></mask><use fill="#D0C6AC" xlink:href="#x10"/><g id="py-avataaars-skin-dark_brown" mask="url('#x6')" fill="#AE5D29"><g transform="translate(0,0)" id="x3"><rect x="0" y="0" width="264" height="280"/></g></g> <path id="x14" d="M156,79 L156,102 C156,132.927946 130.927946,158 100,158 C69.072054,158 44,132.927946 44,102 L44,79 L44,94 C44,124.927946 69.072054,150 100,150 C130.927946,150 156,124.927946 156,94 L156,79 Z" fill-opacity="0.1" fill="#000000" mask="url('#x6')"/></g><g id="x38" transform="translate(0,170)"><defs><path id="x11" d="M108,13.0708856 C90.0813006,15.075938 76.2798424,20.5518341 76.004203,34.6449676 C50.1464329,45.5680933 32,71.1646257 32,100.999485 L32,100.999485 L32,110 L232,110 L232,100.999485 C232,71.1646257 213.853567,45.5680933 187.995797,34.6449832 C187.720158,20.5518341 173.918699,15.075938 156,13.0708856 L156,32 L156,32 C156,45.254834 145.254834,56 132,56 L132,56 C118.745166,56 108,45.254834 108,32 L108,13.0708856 Z"/></defs><mask id="x12" fill="#FFFFFF"><use xlink:href="#x11"/></mask><use id="x37" fill="#B7C1DB" fill-rule="evenodd" xlink:href="#x11"/><g id="x39" mask="url('#x12')" fill-rule="evenodd" fill="#FFFFFF"><rect id="x40" x="0" y="0" width="264" height="110"/></g> <path id="x35" d="M102,61.7390531 L102,110 L95,110 L95,58.1502625 C97.2037542,59.4600576 99.5467694,60.6607878 102,61.7390531 Z M169,58.1502625 L169,98.5 C169,100.432997 167.432997,102 165.5,102 C163.567003,102 162,100.432997 162,98.5 L162,61.7390531 C164.453231,60.6607878 166.796246,59.4600576 169,58.1502625 Z" fill="#F4F4F4" fill-rule="evenodd" mask="url('#x12')"/><path id="x36" d="M90.9601329,12.7243537 C75.9093095,15.5711782 65.5,21.2428847 65.5,32.3076923 C65.5,52.0200095 98.5376807,68 132,68 C165.462319,68 198.5,52.0200095 198.5,32.3076923 C198.5,21.2428847 188.09069,15.5711782 173.039867,12.7243537 C182.124921,16.0744598 188,21.7060546 188,31.0769231 C188,51.4689754 160.178795,68 132,68 C103.821205,68 76,51.4689754 76,31.0769231 C76,21.7060546 81.8750795,16.0744598 90.9601329,12.7243537 Z" fill-opacity="0.16" fill="#000000" fill-rule="evenodd" mask="url('#x12')"/></g><g id="x34" transform="translate(76,82)" fill="#000000"><g id="x27" transform="translate(2,52)" fill-opacity="0.7"><path id="x26" d="M40,15 C40,22.7319865 46.2680135,29 54,29 L54,29 C61.7319865,29 68,22.7319865 68,15"/></g><g id="x25" transform="translate(28,40)" fill-opacity="0.16"><path id="x24" d="M16,8 C16,12.418278 21.372583,16 28,16 L28,16 C34.627417,16 40,12.418278 40,8"/></g><g id="x30" transform="translate(0,8)" fill-opacity="0.6"><circle id="x29" cx="30" cy="22" r="6"/><circle id="x28" cx="82" cy="22" r="6"/></g><g id="x33" fill-opacity="0.6"><path id="x32" d="M26.0390934,6.21012364 C20.2775554,6.98346216 11.2929313,12.0052479 12.04426,17.8178111 C12.0689481,18.0080543 12.3567302,18.0673468 12.4809077,17.9084937 C14.9674041,14.7203351 34.1927973,10.0365481 41.1942673,11.0147151 C41.8350523,11.1044465 42.2580662,10.4430343 41.8210501,10.0302067 C38.0765663,6.49485426 31.2003792,5.51224825 26.0390934,6.21012364" transform="translate(27,12) rotate(5.0) translate(-27,-12)"/><path id="x31" d="M85.0390934,6.21012364 C79.2775554,6.98346216 70.2929313,12.0052479 71.04426,17.8178111 C71.0689481,18.0080543 71.3567302,18.0673468 71.4809077,17.9084937 C73.9674041,14.7203351 93.1927973,10.0365481 100.194267,11.0147151 C100.835052,11.1044465 101.258066,10.4430343 100.82105,10.0302067 C97.0765663,6.49485426 90.2003792,5.51224825 85.0390934,6.21012364" transform="translate(86,12) scale(-1, 1) rotate(5.0) translate(-86,-12)"/></g></g><g id="x0" stroke-width="1" fill-rule="evenodd"><defs><rect id="x5" x="0" y="0" width="264" height="280"/><filter id="x23" x="-0.8%" y="-2.0%" width="101.5%" height="108.0%" filterUnits="objectBoundingBox"><feOffset dx="0" dy="2" in="SourceAlpha" result="shadowOffsetOuter1"/><feColorMatrix values="0 0 0 0 0 0 0 0 0 0 0 0 0 0 0 0 0 0 0.16 0" type="matrix" in="shadowOffsetOuter1" result="shadowMatrixOuter1"/><feMerge><feMergeNode in="shadowMatrixOuter1"/><feMergeNode in="SourceGraphic"/></feMerge></filter></defs><mask id="x13" fill="#FFFFFF"><use xlink:href="#x5"/></mask><g id="x1"/><g id="x2" mask="url('#x13')"><g transform="translate(-1,0)"> </g></g></g> </g></g></g></g></svg>