<?xml version="1.0" encoding="utf-8" ?><!DOCTYPE svg PUBLIC "-//W3C//DTD SVG 1.1//EN" "http://www.w3.org/Graphics/SVG/1.1/DTD/svg11.dtd"><svg width="280px" height="280px" viewBox="-6 0 274 280" version="1.1" xmlns="http://www.w3.org/2000/svg" xmlns:xlink="http://www.w3.org/1999/xlink"><desc>Py-Avataaars</desc> <g id="x32" stroke="none" stroke-width="1" fill="none" fill-rule="evenodd"><defs><circle id="x20" cx="120" cy="120" r="120"/><path id="x16" d="M12,160 C12,226.27417 65.72583,280 132,280 C198.27417,280 252,226.27417 252,160 L264,160 L264,-1.42108547e-14 L-3.19744231e-14,-1.42108547e-14 L-3.19744231e-14,160 L12,160 Z"/><path id="x23" d="M124,144.610951 L124,163 L128,163 L128,163 C167.764502,163 200,195.235498 200,235 L200,244 L0,244 L0,235 C-4.86974701e-15,195.235498 32.235498,163 72,163 L72,163 L76,163 L76,144.610951 C58.7626345,136.422372 46.3722246,119.687011 44.3051388,99.8812385 C38.4803105,99.0577866 34,94.0521096 34,88 L34,74 C34,68.0540074 38.3245733,63.1180731 44,62.1659169 L44,56 L44,56 C44,25.072054 69.072054,5.68137151e-15 100,0 L100,0 L100,0 C130.927946,-5.68137151e-15 156,25.072054 156,56 L156,62.1659169 C161.675427,63.1180731 166,68.0540074 166,74 L166,88 C166,94.0521096 161.51969,99.0577866 155.694861,99.8812385 C153.627775,119.687011 141.237365,136.422372 124,144.610951 Z"/></defs><g id="x30" transform="translate(-825,-1100)"><g transform="translate(825,1100)"> <g id="x31" stroke-width="1" fill-rule="evenodd" mask="url('#py-avataaars-path-cbba325d-5987-43fd-901a-fa55dc170838')"><g id="x29" transform="translate(32,36)"><mask id="x19" fill="#FFFFFF"><use xlink:href="#x23"/></mask><use fill="#D0C6AC" xlink:href="#x23"/><g id="x14" mask="url('#x19')" fill="#F8D25C"><g transform="translate(0,0)" id="x15"><rect x="0" y="0" width="264" height="280"/></g></g> <path id="x28" d="M156,79 L156,102 C156,132.927946 130.927946,158 100,158 C69.072054,158 44,132.927946 44,102 L44,79 L44,94 C44,124.927946 69.072054,150 100,150 C130.927946,150 156,124.927946 156,94 L156,79 Z" fill-opacity="0.1" fill="#000000" mask="url('#x19')"/></g><g id="x50" transform="translate(0,170)"><defs><path id="x22" d="M165.960472,29.2949161 C202.936473,32.3249982 232,63.2942856 232,101.051724 L232,110 L32,110 L32,101.051724 C32,62.9525631 61.591985,31.7649812 99.0454063,29.2195264 C99.0152598,29.5931145 99,29.9692272 99,30.3476251 C99,42.2107177 113.998461,51.8276544 132.5,51.8276544 C151.001539,51.8276544 166,42.2107177 166,30.3476251 C166,29.9946691 165.986723,29.6437014 165.960472,29.2949161 Z"/></defs><mask id="x26" fill="#FFFFFF"><use xlink:href="#x22"/></mask><use id="x49" fill="#E6E6E6" fill-rule="evenodd" xlink:href="#x22"/><g id="py-avataaars-clothes-clothe-color-palette-pastel_orange" mask="url('#x26')" fill-rule="evenodd" fill="#FFDEB5"><rect id="x51" x="0" y="0" width="264" height="110"/></g> <g id="x47" opacity="0.6" stroke-width="1" fill-rule="evenodd" mask="url('#x26')" fill-opacity="0.16" fill="#000000"><g transform="translate(92,4)" id="x48"><ellipse cx="40.5" cy="27.8476251" rx="39.6351047" ry="26.9138272"/></g></g></g><g id="x46" transform="translate(76,82)" fill="#000000"><g id="x38" transform="translate(2,52)" fill-opacity="0.7" fill="#000000"><path id="x37" d="M40.0582943,16.6539438 C40.7076459,23.6831146 46.7016363,28.3768187 54,28.3768187 C61.3416045,28.3768187 67.3633339,23.627332 67.9526838,16.5287605 C67.9840218,16.1513016 67.0772329,15.8529531 66.6289111,16.077395 C61.0902255,18.8502083 56.8805885,20.2366149 54,20.2366149 C51.1558456,20.2366149 47.0072148,18.8804569 41.5541074,16.168141 C41.0473376,15.9160792 40.0197139,16.2363147 40.0582943,16.6539438 Z" transform="translate(54.005357, 22.188409) scale(1, -1) translate(-54.005357, -22.188409)"/></g><g id="x36" transform="translate(28,40)" fill-opacity="0.16"><path id="x35" d="M16,8 C16,12.418278 21.372583,16 28,16 L28,16 C34.627417,16 40,12.418278 40,8"/></g><g id="x41" transform="translate(0,8)" fill-opacity="0.8" fill-rule="nonzero" fill="#FF5353"><path id="x40" d="M35.9583333,10 C33.4074091,10 30.8837273,11.9797894 29.5,13.8206358 C28.1106364,11.9797894 25.5925909,10 23.0416667,10 C17.5523182,10 14,13.3341032 14,17.6412715 C14,23.3708668 18.4118636,26.771228 23.0416667,30.376724 C24.695,31.6133636 27.8223436,34.7777086 28.2083333,35.470905 C28.5943231,36.1641015 30.3143077,36.1885229 30.7916667,35.470905 C31.2690257,34.7532872 34.3021818,31.6133636 35.9583333,30.376724 C40.5853182,26.771228 45,23.3708668 45,17.6412715 C45,13.3341032 41.4476818,10 35.9583333,10 Z"/><path id="x39" d="M88.9583333,10 C86.4074091,10 83.8837273,11.9797894 82.5,13.8206358 C81.1106364,11.9797894 78.5925909,10 76.0416667,10 C70.5523182,10 67,13.3341032 67,17.6412715 C67,23.3708668 71.4118636,26.771228 76.0416667,30.376724 C77.695,31.6133636 80.8223436,34.7777086 81.2083333,35.470905 C81.5943231,36.1641015 83.3143077,36.1885229 83.7916667,35.470905 C84.2690257,34.7532872 87.3021818,31.6133636 88.9583333,30.376724 C93.5853182,26.771228 98,23.3708668 98,17.6412715 C98,13.3341032 94.4476818,10 88.9583333,10 Z"/></g><g id="x45" fill-opacity="0.6"><g id="x44" transform="translate(12,6)"><path id="x43" d="M3.63024536,11.1585767 C7.54515501,5.64986673 18.2779197,2.56083721 27.5230268,4.83118046 C28.5957248,5.0946055 29.6788665,4.43856013 29.9422916,3.36586212 C30.2057166,2.2931641 29.5496712,1.21002236 28.4769732,0.94659732 C17.7403633,-1.69001789 5.31209962,1.88699832 0.369754639,8.84142326 C-0.270109626,9.74178291 -0.0589363917,10.9903811 0.84142326,11.6302454 C1.74178291,12.2701096 2.9903811,12.0589364 3.63024536,11.1585767 Z" fill-rule="nonzero"/><path id="x42" d="M61.6302454,11.1585767 C65.545155,5.64986673 76.2779197,2.56083721 85.5230268,4.83118046 C86.5957248,5.0946055 87.6788665,4.43856013 87.9422916,3.36586212 C88.2057166,2.2931641 87.5496712,1.21002236 86.4769732,0.94659732 C75.7403633,-1.69001789 63.3120996,1.88699832 58.3697546,8.84142326 C57.7298904,9.74178291 57.9410636,10.9903811 58.8414233,11.6302454 C59.7417829,12.2701096 60.9903811,12.0589364 61.6302454,11.1585767 Z" fill-rule="nonzero" transform="translate(73.000154, 6.039198) scale(-1, 1) translate(-73.000154, -6.039198)"/></g></g></g><g id="x0" stroke-width="1" fill-rule="evenodd"><defs><rect id="x18" x="0" y="0" width="264" height="280"/><path id="x21" d="M1,64 C1.34685629,65.488448 2.67275588,65.2226722 3,64 C2.53726005,62.445722 6.29594493,35.2480719 16,28 C19.618222,25.4833872 39.0082164,23.2319099 58.3126144,23.245568 C77.4086061,23.2590787 96.4208396,25.5105561 100,28 C109.704055,35.2480719 113.46274,62.445722 113,64 C113.327244,65.2226722 114.653144,65.488448 115,64 C115.719178,53.7019177 115,0.274362825 58,1 C1,1.72563718 0.280821545,53.7019177 1,64 Z"/><filter id="x34" x="-0.8%" y="-2.0%" width="101.5%" height="108.0%" filterUnits="objectBoundingBox"><feOffset dx="0" dy="2" in="SourceAlpha" result="shadowOffsetOuter1"/><feColorMatrix values="0 0 0 0 0 0 0 0 0 0 0 0 0 0 0 0 0 0 0.16 0" type="matrix" in="shadowOffsetOuter1" result="shadowMatrixOuter1"/><feMerge><feMergeNode in="shadowMatrixOuter1"/><feMergeNode in="SourceGraphic"/></feMerge></filter></defs><mask id="x24" fill="#FFFFFF"><use xlink:href="#x18"/></mask><g id="x1"/><g id="x4" mask="url('#x24')"><g transform="translate(-1,0)"><g id="x8" transform="translate(49,72)"><defs><path id="x17" d="M83.9980103,74.839711 C83.4569991,75.6087366 82.761047,76.2496937 81.949688,76.6891498 C73.0477917,81.5102869 63.8767499,77.3322546 58.8763101,77.6298353 C56.459601,77.7739966 53.3405442,79.4153191 52.2155358,77.6791014 C50.9768736,75.7669804 55.0680827,65.2207224 64.7214121,63.4643353 C71.7310704,62.1893309 81.4972391,63.6024033 83.9980103,66.9380109 C86.4987814,63.6024033 96.2649453,62.1893309 103.274279,63.4643353 C112.927938,65.2207224 117.019147,75.7669804 115.780485,77.6791014 C114.655476,79.4153191 111.53642,77.7739966 109.119711,77.6298353 C104.118941,77.3322546 94.948229,81.5102869 86.0463327,76.6891498 C85.2349736,76.2496937 84.5390216,75.6087366 83.9980103,74.839711 Z"/></defs><mask id="x27" fill="#FFFFFF"><use xlink:href="#x17"/></mask><use id="x6" fill="#28354B" fill-rule="evenodd" xlink:href="#x17"/><g id="x52" mask="url('#x27')" fill="#2C1B18"><g transform="translate(-32,0)" id="x7"><rect x="0" y="0" width="264" height="244"/></g></g></g> <g id="x2" stroke-width="1" fill-rule="evenodd" transform="translate(75,34)"><mask id="x25" fill="#FFFFFF"><use xlink:href="#x21"/></mask><use id="x3" fill="#28354B" xlink:href="#x21"/><g id="x5-blonde_golden" mask="url('#x25')" fill="#D6B370"><g transform="translate(0,0) " id="x5"><rect x="0" y="0" width="264" height="280"/></g></g> </g><g id="x13" fill="none" transform="translate(62,85)" stroke-width="1"><defs><filter id="x33" x="-0.8%" y="-2.4%" width="101.5%" height="109.8%" filterUnits="objectBoundingBox"><feOffset dx="0" dy="2" in="SourceAlpha" result="shadowOffsetOuter1"/><feColorMatrix values="0 0 0 0 0 0 0 0 0 0 0 0 0 0 0 0 0 0 0.2 0" type="matrix" in="shadowOffsetOuter1" result="shadowMatrixOuter1"/><feMerge><feMergeNode in="shadowMatrixOuter1"/><feMergeNode in="SourceGraphic"/></feMerge></filter></defs><g id="x9" filter="url('#x33')" transform="translate(6,7)" fill="#252C2F"><path id="x12" d="M34,41 L31.2421498,41 C17.3147125,41 9,33.3359286 9,20.5 C9,10.127 10.8170058,0 32.5299306,0 L35.4700694,0 C57.1829942,0 59,10.127 59,20.5 C59,32.5686429 48.7212748,41 34,41 Z M32.3853606,6 C13,6 13,12.8410159 13,21.5015498 C13,28.5719428 16.116254,37 30.9709365,37 L34,37 C46.3649085,37 55,30.6270373 55,21.5015498 C55,12.8410159 55,6 35.6146394,6 L32.3853606,6 Z" fill-rule="nonzero"/><path id="x11" d="M96,41 L93.2421498,41 C79.3147125,41 71,33.3359286 71,20.5 C71,10.127 72.8170058,0 94.5299306,0 L97.4700694,0 C119.182994,0 121,10.127 121,20.5 C121,32.5686429 110.721275,41 96,41 Z M94.3853606,6 C75,6 75,12.8410159 75,21.5015498 C75,28.5719428 78.1194833,37 92.9709365,37 L96,37 C108.364909,37 117,30.6270373 117,21.5015498 C117,12.8410159 117,6 97.6146394,6 L94.3853606,6 Z" fill-rule="nonzero"/><path id="x10" d="M2.95454545,5.77156439 C3.64590909,5.09629136 11.2095455,0 32.5,0 C50.3513636,0 54.1302273,1.85267217 59.8502273,4.6518809 L60.2689233,4.85850899 C60.6666014,4.99901896 62.7002447,5.68982981 65.0790606,5.76579519 C67.2462948,5.67278567 69.1000195,5.08540191 69.641698,4.89719767 C76.1703915,1.7220864 82.5610971,0 97.5,0 C118.790455,0 126.354091,5.09629136 127.045455,5.77156439 C128.679318,5.77156439 130,7.06150904 130,8.65734659 L130,11.5431288 C130,13.1389663 128.679318,14.428911 127.045455,14.428911 C127.045455,14.428911 120.143997,14.428911 120.143997,17.3146932 C120.143997,20.2004754 118.181818,13.1389663 118.181818,11.5431288 L118.181818,8.73240251 C114.578575,7.35340151 108.128411,4.78617535 97.5,4.78617535 C85.6584651,4.78617535 79.7610984,6.88602813 74.7022935,8.97112368 L74.7588636,9.10752861 L74.7563667,11.0937608 L72.5391666,16.4436339 L69.8004908,15.3608351 C69.5558969,15.2641292 69.0281396,15.090392 68.2963505,14.9099044 C66.256272,14.4067419 64.1589087,14.253569 62.3040836,14.6343084 C61.6235903,14.7739931 60.9922286,14.9836085 60.4128127,15.266732 L57.7704824,16.5578701 L55.1266751,11.3962031 L55.2440909,9.10175705 L55.3248203,8.90683855 C50.9620526,6.87386374 46.9392639,4.78617535 32.5,4.78617535 C21.8721459,4.78617535 15.422131,7.3524397 11.8181818,8.7314671 L11.8181818,11.5431288 C11.8181818,13.1389663 8.86363636,20.2004754 8.86363636,17.3146932 C8.86363636,14.428911 2.95454545,14.428911 2.95454545,14.428911 C1.32363636,14.428911 0,13.1389663 0,11.5431288 L0,8.65734659 C0,7.06150904 1.32363636,5.77156439 2.95454545,5.77156439 Z" fill-rule="nonzero"/></g></g> </g></g></g> </g></g></g></g></svg>