<?xml version="1.0" encoding="utf-8" ?><!DOCTYPE svg PUBLIC "-//W3C//DTD SVG 1.1//EN" "http://www.w3.org/Graphics/SVG/1.1/DTD/svg11.dtd"><svg width="280px" height="280px" viewBox="-6 0 274 280" version="1.1" xmlns="http://www.w3.org/2000/svg" xmlns:xlink="http://www.w3.org/1999/xlink"><desc>Py-Avataaars</desc> <g id="x42" stroke="none" stroke-width="1" fill="none" fill-rule="evenodd"><defs><circle id="x24" cx="120" cy="120" r="120"/><path id="x21" d="M12,160 C12,226.27417 65.72583,280 132,280 C198.27417,280 252,226.27417 252,160 L264,160 L264,-1.42108547e-14 L-3.19744231e-14,-1.42108547e-14 L-3.19744231e-14,160 L12,160 Z"/><path id="x16" d="M124,144.610951 L124,163 L128,163 L128,163 C167.764502,163 200,195.235498 200,235 L200,244 L0,244 L0,235 C-4.86974701e-15,195.235498 32.235498,163 72,163 L72,163 L76,163 L76,144.610951 C58.7626345,136.422372 46.3722246,119.687011 44.3051388,99.8812385 C38.4803105,99.0577866 34,94.0521096 34,88 L34,74 C34,68.0540074 38.3245733,63.1180731 44,62.1659169 L44,56 L44,56 C44,25.072054 69.072054,5.68137151e-15 100,0 L100,0 L100,0 C130.927946,-5.68137151e-15 156,25.072054 156,56 L156,62.1659169 C161.675427,63.1180731 166,68.0540074 166,74 L166,88 C166,94.0521096 161.51969,99.0577866 155.694861,99.8812385 C153.627775,119.687011 141.237365,136.422372 124,144.610951 Z"/></defs><g id="x40" transform="translate(-825,-1100)"><g transform="translate(825,1100)"> <g id="x36" stroke-width="1" fill-rule="evenodd" transform="translate(12,40)"><mask id="x17" fill="#FFFFFF"><use xlink:href="#x24"/></mask><use id="x35" fill="#E6E6E6" xlink:href="#x24"/><g id="x38" mask="url('#x17')" fill="#FFFFFF"><rect id="x39" x="0" y="0" width="240" height="240"/></g></g> <mask id="x15" fill="#FFFFFF"><use xlink:href="#x21"/></mask> <g id="x41" stroke-width="1" fill-rule="evenodd" mask="url('#x15')"><g id="x37" transform="translate(32,36)"><mask id="x26" fill="#FFFFFF"><use xlink:href="#x16"/></mask><use fill="#D0C6AC" xlink:href="#x16"/><g id="x13" mask="url('#x26')" fill="#D08B5B"><g transform="translate(0,0)" id="x12"><rect x="0" y="0" width="264" height="280"/></g></g> <path id="x34" d="M156,79 L156,102 C156,132.927946 130.927946,158 100,158 C69.072054,158 44,132.927946 44,102 L44,79 L44,94 C44,124.927946 69.072054,150 100,150 C130.927946,150 156,124.927946 156,94 L156,79 Z" fill-opacity="0.1" fill="#000000" mask="url('#x26')"/></g><g id="x71" transform="translate(0,170)"><defs><path id="x23" d="M165.624032,29.2681342 C202.760022,32.1373245 232,63.1798426 232,101.051724 L232,110 L32,110 L32,101.051724 C32,62.8348009 61.7752018,31.5722494 99.3929298,29.1967444 C99.1342224,30.2735458 99,31.3767131 99,32.5 C99,44.3741221 113.998461,54 132.5,54 C151.001539,54 166,44.3741221 166,32.5 C166,31.4015235 165.871641,30.3222877 165.624025,29.2681336 Z"/></defs><mask id="x29" fill="#FFFFFF"><use xlink:href="#x23"/></mask><use id="x70" fill="#E6E6E6" fill-rule="evenodd" xlink:href="#x23"/><g id="py-avataaars-clothes-clothe-color-palette-gray_01" mask="url('#x29')" fill-rule="evenodd" fill="#E6E6E6"><rect id="x72" x="0" y="0" width="264" height="110"/></g><g id="x69" mask="url('#x29'" stroke-width="1" fill-rule="evenodd"><g transform="translate(77,58)" id="x60"><g transform="translate(3,9)"><path id="x65" d="M102.565245,21.0710109 C99.4833509,20.4054313 97.3728781,24.6059197 100.65303,25.85541 C103.46796,26.9271503 105.497722,21.7103865 102.565245,21.0710109" fill="#FFFFFF"/><path id="x64" d="M101.191001,18 C104.847558,18 103.499462,12.0185653 103.512139,10.034892 C103.52569,7.89835492 105.057378,1.43936922 102.622588,0.300988793 C98.4060734,-1.67043963 99.5622709,6.62567562 99.5876242,8.26886181 C99.6156003,10.0850565 99.7546063,11.9885455 99.3594446,13.7770905 C99.009744,15.3574722 98.2303489,18 101.191001,18" fill="#FFFFFF"/><path id="x67" d="M96.057932,1.97392328 C94.9756601,1.35173361 93.2567577,1.65427333 92.0711316,1.60022061 C90.7220251,1.53916824 89.3807782,1.40539746 88.0356015,1.30662485 C85.8592683,1.14718875 83.080101,0.743543202 80.9175222,1.23857286 C79.6922049,1.51933595 78.5800664,2.46389764 79.1565707,3.84671419 C79.777482,5.33646958 81.4602301,4.95187859 82.7370279,4.87682696 C83.3217848,4.84221766 84.7703158,4.58750876 85.3421043,4.78816493 C86.3390991,5.13853549 85.9154647,4.67967061 86.1430012,5.85522022 C86.491969,7.66229234 86.2825097,9.85512207 86.2675764,11.6929148 C86.2420326,14.8668599 86.2322081,18.0567485 86.1650082,21.2287493 C86.1386784,22.4645735 85.7244756,23.8606116 86.9218911,24.6768466 C87.9196719,25.3569777 89.1379155,24.9023904 89.6550795,23.8835548 C90.1694927,22.8705522 89.6806234,20.8169375 89.6259989,19.6876632 C89.5599779,18.3406226 89.4900272,17.0122476 89.5293254,15.6628738 C89.6330726,12.0775058 89.8110933,8.49563763 89.8971563,4.90910305 C90.8399197,4.95537841 91.8188373,4.92737987 92.7525621,5.05842857 C93.4359574,5.15409023 94.4184119,5.59351169 95.0754775,5.55890239 C96.9743656,5.45818543 97.7689748,2.97175996 96.057932,1.97392328" fill="#FFFFFF"/><path id="x68" d="M67.7216119,8.81264097 C67.7100258,8.75972031 67.6397369,8.1691564 67.7216119,8.81264097 M67.6853088,8.53730013 C67.6887847,8.56222653 67.685695,8.5449698 67.6853088,8.53730013 M69.1169633,5.42725256 C72.533315,1.44593148 73.7004204,9.77441647 76.3625176,9.42199554 C80.623109,8.85827545 75.4217272,2.46944776 73.6942412,1.64649312 C70.1786354,-0.0289443454 67.0886252,1.72587411 65.4167525,4.9126183 C63.3188978,8.91234656 64.6466637,11.6208874 68.6751471,13.3572987 C70.1461943,13.9915796 75.714469,15.8848355 74.2051877,18.3157346 C73.4451402,19.5398125 70.6791544,19.6445033 69.5047111,19.402142 C67.1492591,18.916269 67.5161519,17.3159942 66.3699015,15.8288469 C65.3371947,14.4885737 63.3397528,14.8820273 63.028087,16.6100019 C62.7828481,17.9675319 64.198282,20.0348891 65.1433208,20.9897619 C67.3759602,23.2457927 71.1831493,23.4271802 74.0298516,22.3998291 C78.4155727,20.816811 78.9473743,16.6909168 75.8357368,13.4953526 C74.0870096,11.6995014 71.9026455,11.154572 69.7225296,10.0773681 C67.0781977,8.7712248 67.5725376,7.68673472 69.1169633,5.42725256" fill="#FFFFFF"/><path id="x66" d="M58.749962,20.5676943 C58.1855671,15.7434329 58.0538346,10.8505093 57.9696387,6.00460433 C57.9426476,4.45075032 58.6758373,0.798596322 56.5169562,0.139962235 C53.6023258,-0.749287073 53.9890632,2.83233897 54.0502966,4.30372379 C54.255348,9.21679823 54.8922562,14.0929294 55.1210758,19.0000333 C55.193992,20.5568726 54.6924419,23.5739018 56.9520358,23.9463193 C59.7027058,24.4000865 58.9598476,21.8648117 58.749962,20.5676943" fill="#FFFFFF"/><path id="x61" d="M49.4716454,4.67909741 C47.1120678,1.521124 42.3181606,1.01110068 39.382093,3.92183601 C37.3101733,5.97595969 36.00495,10.8410892 37.9661116,13.3252251 C40.0904751,16.016404 45.3211527,13.6574039 46.6913436,16.7080638 C48.3726748,20.4511421 43.9611374,21.8560762 41.6168232,19.3708027 C40.7738094,18.4774087 40.9581453,16.917382 39.7163241,16.3637507 C37.9539791,15.5788077 36.853443,17.2916519 37.2001979,18.7227508 C38.0479082,22.2235205 41.8524287,24.1130716 45.3011927,23.9947614 C49.0689244,23.8650751 50.7028996,21.0184245 50.4641631,17.5957699 C50.1342371,12.8603265 46.4792204,12.1186123 42.4747091,11.597213 C40.7761576,11.3761397 40.5534673,11.3966165 40.6583549,9.64547322 C40.7855505,7.52650643 42.0277631,5.07763608 44.6491681,5.58159221 C46.7551372,5.98657727 46.942604,9.15327227 49.1037564,9.30040167 C52.5998763,9.53853896 50.3604497,5.86712943 49.4716454,4.67909741" fill="#FFFFFF"/><path id="x62" d="M31.7209696,20.4381695 C30.3835461,20.7580967 28.7579173,20.5355712 27.3944988,20.5112208 C26.3407598,20.4924897 22.8201338,20.9379153 22.1329619,20.2148947 C21.3727026,19.4150766 21.6202201,16.9680453 21.5881973,15.9288437 C21.5422351,14.4753101 21.1839563,14.2599024 22.4595946,13.9298603 C23.2085518,13.7361807 24.3674009,13.8332078 25.1415996,13.7976187 C26.6572206,13.727939 28.606845,14.008531 30.0716062,13.7099572 C31.4414292,13.4304891 32.5739067,11.958599 31.3223797,10.7058628 C30.4355361,9.81763391 28.7797682,10.2949024 27.6909924,10.3200021 C25.6573553,10.3664552 23.6222112,10.3555912 21.5881973,10.3915549 C21.5964855,8.82376157 21.5448723,7.2454788 21.6669357,5.68105705 C24.5143291,5.82154032 27.4788884,6.56329201 30.3255283,6.42655496 C31.766555,6.35724988 33.3654353,5.43530497 32.6368221,3.69630934 C32.0121888,2.20606276 30.1149312,2.40985716 28.792954,2.35066687 C27.1398233,2.27611708 25.4848088,2.23790563 23.8313013,2.18096308 C22.6068996,2.13900541 20.8260543,1.73628668 19.6721027,2.28847961 C17.3095724,3.41833976 18.121445,7.29867513 18.1873743,9.39955568 C18.2706336,12.0657409 18.2721406,14.6678658 18.3644416,17.3561538 C18.4484544,19.7885748 18.3271445,22.9972128 21.2159792,23.6808981 C24.1051906,24.364958 27.4611816,23.7142395 30.4084109,23.8565959 C31.6166129,23.9150369 33.2693669,24.2671816 33.8631075,22.8608504 C34.4319834,21.512211 33.1326106,20.086774 31.7209696,20.4381695" fill="#FFFFFF"/><path id="x63" d="M8.41021607,5.87934286 C10.7314099,6.38056324 11.3520318,8.89406466 11.4306011,11.0286326 C11.4842397,12.4898438 11.613048,12.4018284 10.4273316,12.768689 C9.23708235,13.1371074 7.50704692,12.9377097 6.28808963,12.8851342 C3.74516418,12.7756991 4.0526421,12.6070678 4.00353629,9.93973422 C3.99220418,9.31505862 3.52947636,6.4362544 3.89625898,6.02967003 C4.37220759,5.5015777 7.73482232,5.8267673 8.41021607,5.87934286 M13.4870013,20.7181143 C12.1966517,19.2140637 10.9010138,17.7773878 9.45277018,16.4318428 C11.6107816,16.3722571 13.9557729,15.9594416 14.7229567,13.6130136 C15.3711534,11.6307201 14.8079476,8.6132722 14.05474,6.74080322 C13.0612917,4.27092005 10.9928039,2.62238402 8.42003723,2.26253349 C6.62389782,2.01172858 2.14242611,1.58956627 0.799948834,2.97327723 C-0.664537495,4.48161175 0.351952758,8.62222952 0.4422319,10.4701632 C0.602014649,13.7411422 0.486049391,16.987586 0.285471047,20.2550599 C0.220500284,21.3096868 -0.296621662,23.0423437 0.243919977,23.9918195 C0.843766325,25.0456674 2.30296434,25.3089347 3.21255502,24.5288691 C4.19693763,23.6845445 3.74176455,22.6513373 3.68132663,21.5678912 C3.58802559,19.8917044 3.75574082,18.1644997 3.85546339,16.4937651 C5.46348977,17.806207 7.10551249,19.0851563 8.61683821,20.5163799 C10.1096548,21.9300785 11.1809169,23.7184265 12.6076296,25.143419 C13.618076,26.1528699 15.4266807,26.5676327 15.9381366,24.6947742 C16.377067,23.0871303 14.3667507,21.7435326 13.4870013,20.7181143" fill="#FFFFFF"/></g></g></g></g><g id="x59" transform="translate(76,82)" fill="#000000"><g id="x50" transform="translate(2,52)"><defs><path id="x19" d="M34.0082051,12.6020819 C35.1280248,23.0929366 38.2345159,31.9944054 53.9961505,31.9999974 C69.757785,32.0055894 72.9169073,23.0424631 73.9942614,12.5047938 C74.0809675,11.6567158 73.1738581,10.9999965 72.0369872,10.9999965 C65.3505138,10.9999965 62.6703194,12.4951994 53.9894323,12.4999966 C45.3085452,12.5047938 40.7567994,10.9999965 36.0924943,10.9999965 C34.9490269,10.9999965 33.8961688,11.5524868 34.0082051,12.6020819 Z"/><path id="x25" d="M59.9170416,36 L60,36 C60,39.3137085 62.6862915,42 66,42 C69.3137085,42 72,39.3137085 72,36 L72,35 L72,31 C72,27.6862915 69.3137085,25 66,25 L66,25 L42,25 L42,25 C38.6862915,25 36,27.6862915 36,31 L36,31 L36,35 L36,38 C36,41.3137085 38.6862915,44 42,44 C45.3137085,44 48,41.3137085 48,38 L48,36 L48.0829584,36 C48.5590365,33.1622867 51.0270037,31 54,31 C56.9729963,31 59.4409635,33.1622867 59.9170416,36 Z"/><filter id="x43" x="-1.4%" y="-2.6%" width="102.8%" height="105.3%" filterUnits="objectBoundingBox"><feOffset in="SourceAlpha" dx="0" dy="-1" result="shadowOffsetInner1"/><feComposite in="shadowOffsetInner1" in2="SourceAlpha" operator="arithmetic" k2="-1" k3="1" result="shadowInnerInner1"/><feColorMatrix values="0 0 0 0 0 0 0 0 0 0 0 0 0 0 0 0 0 0 0.1 0" type="matrix" in="shadowInnerInner1"/></filter><rect id="x22" x="39" y="2" width="31" height="16" rx="5"/></defs><mask id="x32" fill="#FFFFFF"><use xlink:href="#x19" transform="translate(54.0, 21.5) scale(1, -1) translate(-54.0, -21.5)"/></mask><use id="x49" fill-opacity="0.7" fill="#000000" fill-rule="evenodd" transform="translate(54.0, 21.5) scale(1, -1) translate(-54.0, -21.5)" xlink:href="#x19"/><use id="x48" stroke-width="1" fill-rule="evenodd" mask="url('#x32')" fill="#FFFFFF" xlink:href="#x22"/><g id="x47"><use fill="#000000" fill-opacity="1" filter="url('#x43')" xlink:href="#x25"/><use fill="#88C553" fill-rule="evenodd" xlink:href="#x25"/></g></g><g id="x46" transform="translate(28,40)" fill-opacity="0.16"><path id="x45" d="M16,8 C16,12.418278 21.372583,16 28,16 L28,16 C34.627417,16 40,12.418278 40,8"/></g><g id="x55" transform="translate(0,8)"><circle id="x52" fill="#FFFFFF" cx="30" cy="22" r="14"/><circle id="x51" fill="#FFFFFF" cx="82" cy="22" r="14"/><circle id="x54" fill-opacity="0.7" fill="#000000" cx="30" cy="14" r="6"/><circle id="x53" fill-opacity="0.7" fill="#000000" cx="82" cy="14" r="6"/></g><g id="x58" fill-opacity="0.6"><path id="x57" d="M22.7663531,5.57844898 L23.6772984,5.17582144 C28.9190996,3.09473425 36.8645466,3.96712704 41.7227321,6.29911638 C42.2897848,6.57148957 41.9021563,7.4519421 41.3211012,7.40711006 C26.4021788,6.25602197 16.3582869,15.5525942 12.9460869,21.8470939 C12.8449215,22.0337142 12.5391523,22.05489 12.4635344,21.8808353 C10.156283,16.5620676 16.9134476,7.89614725 22.7663531,5.57844898 Z" transform="translate(27,13) scale(-1, -1) translate(-27,-13)"/><path id="x56" d="M80.7663531,5.57844898 L81.6772984,5.17582144 C86.9190996,3.09473425 94.8645466,3.96712704 99.7227321,6.29911638 C100.289785,6.57148957 99.9021563,7.4519421 99.3211012,7.40711006 C84.4021788,6.25602197 74.3582869,15.5525942 70.9460869,21.8470939 C70.8449215,22.0337142 70.5391523,22.05489 70.4635344,21.8808353 C68.156283,16.5620676 74.9134476,7.89614725 80.7663531,5.57844898 Z" transform="translate(85,13) scale(1, -1) translate(-85,-13)"/></g></g><g id="x0" stroke-width="1" fill-rule="evenodd"><defs><rect id="x18" x="0" y="0" width="264" height="280"/><path id="x28" d="M65.1802189,77.7372986 C67.3631845,76.1045334 80.4065113,75.4786511 82.757829,74.0894494 C83.4916461,73.6553857 84.0610723,73.215719 84.4997781,72.7800074 C84.938814,73.215719 85.5085703,73.6553857 86.2423874,74.0894494 C88.593375,75.4786511 101.636702,76.1045334 103.819667,77.7372986 C106.030032,79.3908276 107.643571,83.1846831 107.466966,86.15095 C107.255041,89.7101408 103.361486,98.2028927 93.6723269,99.1811016 C91.5576925,96.8281927 88.2368647,95.3104528 84.4997781,95.3104528 C80.7633517,95.3104528 77.4421938,96.8281927 75.3275594,99.1811016 C65.6387308,98.2028927 61.7451757,89.7101408 61.5332501,86.15095 C61.3566455,83.1846831 62.9701849,79.3908276 65.1802189,77.7372986 M103.141638,94.9063813 C103.142958,94.9057221 103.144609,94.905063 103.145929,94.9047334 C103.144278,94.905063 103.142958,94.9057221 103.141638,94.9063813 M65.8453747,94.9014375 C65.8493359,94.9030855 65.8565982,94.9057221 65.8618798,94.9076997 C65.8565982,94.9057221 65.8509864,94.9034151 65.8453747,94.9014375 M144.86259,55.9853335 C144.47439,50.0303878 143.277769,44.1519058 142.233986,38.2862777 C141.952739,36.7072349 140.423706,26 139.734783,26 C139.502391,35.1094058 138.701893,44.0803858 137.669664,53.1393651 C137.361018,55.8475668 137.037848,58.5564277 136.825262,61.2741874 C136.653609,63.4695546 136.959614,66.1220564 136.427819,68.2455739 C135.749129,70.9524573 132.348087,73.4783984 129.702978,74.410795 C123.102915,76.7373371 117.597802,67.1077689 111.960977,64.2911336 C104.643272,60.6347152 92.0637391,59.7639895 84.5816434,64.5297918 C76.9361472,59.7639895 64.356614,60.6347152 57.0389092,64.2911336 C51.4024147,67.1077689 45.8969708,76.7373371 39.2972383,74.410795 C36.6521296,73.4783984 33.2504268,70.9524573 32.572397,68.2455739 C32.0402723,66.1220564 32.346277,63.4695546 32.174954,61.2741874 C31.9623682,58.5564277 31.6388681,55.8475668 31.3302226,53.1393651 C30.2983232,44.0803858 29.4974953,35.1094058 29.2654335,26 C28.5761802,26 27.0468169,36.7072349 26.7658999,38.2862777 C25.7221169,44.1519058 24.5258266,50.0303878 24.1376265,55.9853335 C23.738533,62.1047422 24.2148704,68.1674622 25.4695887,74.1632765 C26.0687242,77.0277016 26.7685407,79.8756475 27.518863,82.7041478 C28.352701,85.8467429 27.198994,91.9661516 27.5723395,95.1921317 C28.2787581,101.29572 31.1542781,113.199679 34.3833375,118.45096 C35.9440605,120.989096 37.7734867,122.573742 39.816489,124.619148 C41.7825775,126.58809 42.6038717,129.640049 44.7260985,131.73687 C48.6820428,135.645092 54.4456266,137.971304 60.3656788,138.543134 C65.6773527,143.050212 74.505605,146 84.4997781,146 C94.4946114,146 103.322534,143.050212 108.634538,138.543134 C114.55393,137.971304 120.317843,135.645092 124.274118,131.73687 C126.396015,129.640049 127.217309,126.58809 129.183727,124.619148 C131.2264,122.573742 133.055826,120.989096 134.616879,118.45096 C137.845608,113.199679 140.721458,101.29572 141.427547,95.1921317 C141.800892,91.9661516 140.647185,85.8467429 141.481353,82.7041478 C142.231676,79.8756475 142.931162,77.0277016 143.530628,74.1632765 C144.784686,68.1674622 145.261353,62.1047422 144.86259,55.9853335 Z"/><path id="x27" d="M153.503392,98.8736491 C157.89934,100.654655 161,104.965228 161,110 L161,123 C161,128.28759 157.580126,132.776426 152.8316,134.375285 C151.985668,145.321578 147.992514,155.385777 141.755762,163.66426 C141.964657,164.471736 142.166135,165.290125 142.311896,166.167999 C142.862922,169.494538 142.191903,172.260864 143.956619,175.261034 C144.414366,176.040649 145.140008,176.50834 145.478876,177.405464 C146.012313,178.819858 145.247,181.999219 147.428222,182 C150.534993,182.00039 148.803043,176.034013 148.024863,174.616105 C146.500469,171.843533 145.563369,171.165421 145.642135,167.571852 C147.387236,168.73171 153.172487,170.947581 155.089787,169.887664 C159.522305,167.44029 148.428013,164.951924 147.651918,164.434653 C149.356221,162.768846 151.308063,161.884996 152.848916,159.689035 C154.108583,157.895569 155.254913,155.292428 157.398137,155.187802 C158.584855,155.129634 162.056295,158.072417 163.10825,156.053694 C164.07308,154.203231 161.993578,153.931908 161.181077,153.276828 C159.678802,152.06661 159.340419,153.270972 159.706723,151.14333 C160.792178,152.307873 162.495834,151.571982 162.95061,150.127527 C163.441226,148.569468 161.823998,148.10412 161.853937,147.113692 C161.842192,147.500572 162.687735,141.999153 162.554381,142.176001 C163.413669,141.041128 166.462257,141.392482 167.966582,141.555666 C170.263178,141.804346 170.13091,141.873446 171.222117,143.992109 C172.103838,145.707106 174.419542,149.169502 174.928748,144.633135 C175.050449,143.548232 174.059985,141.228907 173.478827,140.295477 C172.851533,139.287873 170.962455,138.651922 170.567003,137.868403 C169.622984,135.99803 172.731819,131.833707 172.206,129.014288 C173.298856,129.431618 176.063377,135.941423 177.404406,130.612948 C178.111059,127.812658 170.89879,121.667871 173.890225,120.718825 C176.178665,119.993084 178.501504,122.944066 179.140297,124.762907 C179.612624,126.110544 179.400215,129.001405 180.207508,130.116368 C183.243976,134.318949 183.618438,127.375418 183.364612,125.543693 C182.806036,121.517569 181.381252,118.556438 177.742225,117.034295 C179.037272,115.426656 177.396605,114.146948 176.467109,113.140514 C177.994834,111.484467 187.90383,113.244749 185.67495,108.813788 C185.137049,107.742159 183.193837,107.552037 182.208315,107.158911 C179.717195,106.166532 177.22313,104.1482 175.950562,101.597371 C177.79234,101.136708 183.230278,102.394554 182.515816,98.6011044 C181.952817,95.619282 177.112955,96.5335826 175.237767,96.9915137 C176.930155,95.9749301 180.211017,96.8166176 180.67198,94.0499017 C181.203002,90.8666365 177.383839,90.9736042 175.591269,91.6482034 C175.17003,88.2904324 181.122531,85.8176826 182.804663,83.2477249 C183.373237,82.3806618 184.275583,82.0835727 183.551013,80.6153042 C182.244616,77.9719526 178.870779,81.7013778 177.758771,82.7050785 C178.635221,81.0771393 181.079608,74.3018671 180.708517,72.5829664 C180.162561,70.057123 178.355898,69.967723 176.919931,72.0153348 C175.988608,73.3450137 175.729666,76.7176196 175.238294,78.4419859 C173.199533,76.9046179 173.095791,78.6883239 172.991008,76.2507095 C172.923099,74.6707886 174.992708,71.5499862 175.522623,70.0032488 C175.978715,68.6739603 177.190719,66.2433729 176.465593,64.9570277 C174.690293,61.8139729 172.993447,66.1289878 172.525841,67.608968 C171.737261,64.1977131 174.740084,61.5524095 175.629329,58.1778516 C176.170088,56.1298495 177.605245,50.5995409 175.118415,49.6165311 C171.724815,48.2755308 172.918922,54.5725714 172.440664,56.6162793 C172.07606,58.1758997 171.519076,60.6935447 170.302082,61.4622287 C170.125896,61.5734908 167.481496,61.8046035 167.354151,61.6554733 C165.620359,59.6336275 170.392027,55.207741 170.637754,53.3037939 C170.861461,51.5731813 170.198398,50.4792998 168.576831,50.3754553 C167.767833,50.323533 166.456472,51.5751333 166.081721,51.4935411 C164.602506,51.1718572 166.529338,44.4051737 166.669221,42.5269926 C166.819045,40.5238856 166.575417,35.355081 163.186097,37.7423348 C163.413049,35.0454993 163.549887,32.5063826 163.920134,29.8505384 C164.114962,28.45176 165.31836,27.2060156 163.546466,26.0840259 C161.389659,24.7192116 160.195301,27.5757179 159.703512,29.2516754 C158.858129,32.1374612 160.604934,36.6265913 156.546177,36.7183337 C151.880955,36.8237399 155.102123,31.9875502 155.331481,28.8503513 C155.459059,27.1091981 154.318536,22.4287754 152.06891,25.5866651 C151.173373,26.8456828 151.481865,31.2813291 150.985494,32.7702884 C149.878539,32.2772219 151.717562,28.2546115 150.755804,27.2056252 C148.695236,24.958913 146.966535,28.2315783 145.655991,28.8975889 C145.57044,27.4527441 145.468923,26.0067281 145.407913,24.5603216 C145.315305,22.3600662 146.663012,17.7307849 145.2945,16.2125461 C142.95772,13.6238495 141.471891,16.6443209 140.789049,18.7364375 C140.175628,20.6196938 140.091904,22.4795265 137.555716,22.7360147 C137.763741,20.0192692 135.29832,14.3004008 136.520803,12.0087933 C137.073558,10.9742516 138.200031,11.7078002 138.699701,10.5498943 C139.521287,8.64672801 138.176249,7.83939509 136.714154,7.77771298 C129.921887,7.49233563 135.152043,16.9117402 132.745372,19.2693241 C131.646423,18.2285361 132.817064,17.1557359 131.680174,15.6730229 C130.456777,14.0782671 128.507084,14.2133431 126.762486,14.9351799 C126.706116,13.3220757 129.125524,2.01512054 123.682122,7.11833905 C122.329503,8.38945896 122.708203,10.5112454 121.988704,12.004499 C121.293397,13.448563 119.599928,15.6019713 118.647561,16.7751026 C118.138071,14.7079712 118.919891,12.1450405 119.467423,10.1091405 C119.848493,8.69357518 122.399415,4.30399525 121.855094,2.8653967 C120.275192,-1.30204956 115.532497,5.5840942 114.282756,6.69671451 C112.701004,8.10642397 106.402711,12.7415612 104.381766,11.3369268 C103.680648,10.8501066 104.312204,9.04610014 103.355021,8.20948774 C102.885296,7.799575 100.877713,7.60828238 100.304676,7.66059506 C100.663044,6.16656069 99.9590183,4.23411488 98.2500992,4.75060494 C96.1010516,5.40060944 97.031157,8.58855944 95.6691727,9.75271164 C93.1402627,11.9174413 90.1353523,7.6410754 87.4245062,7.76092608 C87.8388134,6.00571874 90.9097688,-0.301081675 86.0261697,1.61691959 C84.7804466,2.10647253 83.8958015,4.9680539 83.5854252,6.15758165 C82.7941498,9.19327834 83.364323,9.74958849 80.0771587,10.6065013 C80.3338947,8.84621888 79.876509,6.65923677 80.7256589,5.08595261 C81.4218191,3.79726501 85.0314735,0.441445987 81.1879964,0.0233349851 C76.4475113,-0.492764683 76.9137424,7.69455926 76.3331882,10.4628367 C72.1267344,7.91396017 69.3589223,11.5606221 66.8533479,14.7153886 C67.3001674,13.2963097 68.4061862,-0.841776108 63.8882057,3.47753307 C62.5963925,4.71468878 64.0256621,6.54407081 63.9388761,7.95573223 C63.8604755,9.23622158 63.4388415,10.377731 62.9428241,11.5742858 C62.1474037,13.4950198 61.2224184,15.460649 59.9693808,17.0979577 C58.3962141,19.1568908 58.9543722,19.318904 57.1484939,17.9212967 C54.7243438,16.0478003 53.5723002,11.2974971 53.6920659,8.39570525 C53.781581,6.23526987 54.8879763,1.84842269 51.3078111,2.86461591 C47.8009276,3.86128948 49.6590375,10.8387852 50.0116201,13.3177814 C50.3931233,16.0052474 50.6468605,18.7543956 50.1948883,21.4906608 C47.2109167,18.4409099 46.7758614,24.7926055 46.1779169,25.8763368 C45.1988562,27.6534061 43.310101,28.5232019 41.8428337,29.7357629 C41.0431153,26.9417195 44.2482173,24.5790605 43.6123112,22.3561622 C42.4186453,18.1910583 39.0417626,24.0719399 38.2998862,25.2263323 C37.6814572,26.1886512 35.6651905,31.6682087 34.9351609,32.1593232 C33.9115906,32.848367 27.3301947,29.6315279 26.6642795,29.0186108 C25.4417603,27.8938883 25.8867201,24.7465391 24.3487748,24.0297774 C19.6293173,21.8322547 22.4173261,29.7638712 23.3441752,31.4035222 C25.7628153,35.687696 26.8597232,40.8604044 26.2928172,45.9077967 C25.4350389,45.6056325 24.378271,44.5964663 23.8253733,43.8305151 C22.7491426,42.3411654 23.1404237,39.9656235 22.017351,38.8436337 C18.7294809,35.5639414 18.3438318,41.7216116 18.6111593,43.6353185 C19.1118632,47.2226407 20.9020846,48.3856217 22.3890054,51.3693961 C23.7571524,54.1197154 21.943774,57.4376663 21.5613192,60.4944442 C18.1321771,57.1944514 3.36588279,59.9510171 7.16521769,64.996067 C9.14262534,67.628878 11.4834592,62.6185731 13.763287,62.7450604 C17.8464603,62.9714884 19.9981829,68.0411331 19.730271,71.5921487 C19.2330959,69.6940575 17.308498,67.8307112 15.9842104,70.148475 C15.0865685,71.7213688 16.6185854,74.4088349 17.3583008,75.9707976 C16.4523462,75.5265303 11.9860935,73.4504198 11.1123314,73.8095815 C7.67255627,75.2239756 12.4125819,77.9610216 13.6493116,78.5079623 C17.8734551,80.3759933 20.5363542,82.427509 21.8496116,87.4998864 C19.4819334,86.7425238 19.8941915,85.6220957 18.2972545,84.4567723 C16.830792,83.3870952 16.5566308,83.9387206 15.2071591,83.5889284 C12.8451619,82.9775728 9.76564295,82.1620417 7.09694168,83.2707581 C5.12707484,84.0898028 1.809527,86.5809011 1.19123199,88.9213077 C0.433581882,91.7946008 2.03522104,92.5273687 4.0949367,91.063785 C6.54565844,89.3249741 6.99233616,85.9593953 10.6783285,86.1030599 C12.4468385,86.1721595 14.198865,87.0989527 15.3182307,88.4286316 C16.1532654,89.4217916 16.6409799,90.859219 17.4378821,91.9242113 C18.1406712,92.8638875 20.0019971,94.1826354 20.3954288,95.1781378 C21.8129983,98.7732678 19.1191629,101.97332 17.3124291,104.492136 C16.8931801,103.937778 13.8353612,102.734196 13.2017458,102.613565 C10.2619363,102.05257 9.16499332,103.411918 11.003339,106.125931 C11.5823428,106.981673 12.8005957,107.342006 13.4385893,108.120059 C14.1501828,108.989074 14.5506213,110.319534 15.2570206,111.263504 C16.6502186,113.127241 18.3720966,114.086046 20.0353361,115.585546 C19.4216552,115.995069 19.4893606,114.962089 18.9332619,115.176024 C18.5290809,115.331791 17.8260425,115.020647 17.3157029,115.190078 C16.4875948,115.464915 16.5976214,116.907417 16.0678004,117.11862 C12.7691062,118.433464 9.44069672,113.504361 6.48191847,113.343909 C4.86832034,113.256461 3.50714906,114.33785 4.28187338,116.365942 C4.82030298,117.777604 7.1521321,118.543555 8.31806645,119.133048 C11.5636759,120.776994 14.7956022,122.001266 18.2658233,120.739516 C21.0634173,123.177911 24.4247131,124.380712 27.9404633,124.415457 C25.9286815,125.412912 23.9404919,126.650458 23.2377959,129.136091 C22.0492883,127.906352 19.1297602,122.18397 17.6048295,126.674272 C16.5600021,129.760719 21.328009,133.54519 23.5253695,134.93577 C20.9696368,135.690791 18.8477815,135.842653 16.2480678,135.542832 C14.8906605,135.386674 11.9114372,133.569004 13.0097195,137.290621 C14.1918233,141.306595 21.2508358,139.501808 23.4900552,138.806518 C23.573221,137.609182 12.720439,150.91495 20.3316507,148.295803 C22.5082405,147.54781 22.7169752,143.295258 25.7496614,142.923213 C29.2527527,142.493 29.604919,146.000291 31.6318019,148.569078 C32.6420388,149.851129 37.301235,152.734182 37.0806939,153.833919 C36.8900419,154.785698 34.3317238,155.329905 33.7876434,156.661927 C33.1549566,158.211397 33.4406255,159.407952 34.3203529,160.740363 C35.8579788,163.072962 38.6803216,163.431343 40.9122645,164.344472 C44.0760798,165.639406 45.222862,167.210738 46.6413081,170.561482 C44.1404008,170.681333 37.0221866,177.920783 41.3837473,179.20908 C43.008912,179.689263 42.7562908,178.242857 43.4326768,177.443722 C43.7062927,176.928403 43.9803807,176.413865 44.2542196,175.898937 C44.712395,174.701211 45.2188422,174.627817 45.7732734,175.678365 C45.8972683,175.647914 47.3835007,176.067196 47.7210266,176.087887 C49.4285338,176.192512 50.5714284,174.896017 51.9872076,174.195261 C53.0103456,173.688921 54.0114437,173.77676 54.7822568,172.609485 C54.6931475,172.74417 55.3356677,170.098476 55.3468697,170.07271 C55.6226004,169.435623 56.3317095,169.525891 56.6573761,168.839152 C47.908417,159.753669 42.1996805,147.719969 41.1683996,134.375285 C36.4198742,132.776426 33,128.28759 33,123 L33,110 C33,104.965228 36.1006595,100.654655 40.4966083,98.8736491 C41.0282518,99.2483349 41.7670825,98.8748923 42,98.0318338 C41.5372601,96.526107 45.2959449,70.1780326 55,63.1563695 C58.618222,60.7183684 78.0082164,60.5372207 97.3126144,60.5504522 C116.408606,60.5635409 135.42084,60.7446886 139,63.1563695 C148.704055,70.1780326 152.46274,96.526107 152,98.0318338 C152.232917,98.8748923 152.971748,99.2483349 153.503392,98.8736491 Z"/></defs><mask id="x31" fill="#FFFFFF"><use xlink:href="#x18"/></mask><g id="x1"/><g id="x4" mask="url('#x31')"><g transform="translate(-1,0)"><g id="x9" transform="translate(49,72)"><defs><path id="x14" d="M65.1802189,77.7372986 C67.3631845,76.1045334 80.4065113,75.4786511 82.757829,74.0894494 C83.4916461,73.6553857 84.0610723,73.215719 84.4997781,72.7800074 C84.938814,73.215719 85.5085703,73.6553857 86.2423874,74.0894494 C88.593375,75.4786511 101.636702,76.1045334 103.819667,77.7372986 C106.030032,79.3908276 107.643571,83.1846831 107.466966,86.15095 C107.255041,89.7101408 103.361486,98.2028927 93.6723269,99.1811016 C91.5576925,96.8281927 88.2368647,95.3104528 84.4997781,95.3104528 C80.7633517,95.3104528 77.4421938,96.8281927 75.3275594,99.1811016 C65.6387308,98.2028927 61.7451757,89.7101408 61.5332501,86.15095 C61.3566455,83.1846831 62.9701849,79.3908276 65.1802189,77.7372986 M103.141638,94.9063813 C103.142958,94.9057221 103.144609,94.905063 103.145929,94.9047334 C103.144278,94.905063 103.142958,94.9057221 103.141638,94.9063813 M65.8453747,94.9014375 C65.8493359,94.9030855 65.8565982,94.9057221 65.8618798,94.9076997 C65.8565982,94.9057221 65.8509864,94.9034151 65.8453747,94.9014375 M144.86259,55.9853335 C144.47439,50.0303878 143.277769,44.1519058 142.233986,38.2862777 C141.952739,36.7072349 140.423706,26 139.734783,26 C139.502391,35.1094058 138.701893,44.0803858 137.669664,53.1393651 C137.361018,55.8475668 137.037848,58.5564277 136.825262,61.2741874 C136.653609,63.4695546 136.959614,66.1220564 136.427819,68.2455739 C135.749129,70.9524573 132.348087,73.4783984 129.702978,74.410795 C123.102915,76.7373371 117.597802,67.1077689 111.960977,64.2911336 C104.643272,60.6347152 92.0637391,59.7639895 84.5816434,64.5297918 C76.9361472,59.7639895 64.356614,60.6347152 57.0389092,64.2911336 C51.4024147,67.1077689 45.8969708,76.7373371 39.2972383,74.410795 C36.6521296,73.4783984 33.2504268,70.9524573 32.572397,68.2455739 C32.0402723,66.1220564 32.346277,63.4695546 32.174954,61.2741874 C31.9623682,58.5564277 31.6388681,55.8475668 31.3302226,53.1393651 C30.2983232,44.0803858 29.4974953,35.1094058 29.2654335,26 C28.5761802,26 27.0468169,36.7072349 26.7658999,38.2862777 C25.7221169,44.1519058 24.5258266,50.0303878 24.1376265,55.9853335 C23.738533,62.1047422 24.2148704,68.1674622 25.4695887,74.1632765 C26.0687242,77.0277016 26.7685407,79.8756475 27.518863,82.7041478 C28.352701,85.8467429 27.198994,91.9661516 27.5723395,95.1921317 C28.2787581,101.29572 31.1542781,113.199679 34.3833375,118.45096 C35.9440605,120.989096 37.7734867,122.573742 39.816489,124.619148 C41.7825775,126.58809 42.6038717,129.640049 44.7260985,131.73687 C48.6820428,135.645092 54.4456266,137.971304 60.3656788,138.543134 C65.6773527,143.050212 74.505605,146 84.4997781,146 C94.4946114,146 103.322534,143.050212 108.634538,138.543134 C114.55393,137.971304 120.317843,135.645092 124.274118,131.73687 C126.396015,129.640049 127.217309,126.58809 129.183727,124.619148 C131.2264,122.573742 133.055826,120.989096 134.616879,118.45096 C137.845608,113.199679 140.721458,101.29572 141.427547,95.1921317 C141.800892,91.9661516 140.647185,85.8467429 141.481353,82.7041478 C142.231676,79.8756475 142.931162,77.0277016 143.530628,74.1632765 C144.784686,68.1674622 145.261353,62.1047422 144.86259,55.9853335 Z"/></defs><mask id="x33" fill="#FFFFFF"><use xlink:href="#x14"/></mask><use id="x8" fill="#5E7AA9" fill-rule="evenodd" xlink:href="#x14"/><g id="color-facial-hair-brown_dark" mask="url('#x33')" fill="#4A312C"><g transform="translate(-32,0)" id="x7"><rect x="0" y="0" width="264" height="244"/></g></g></g><g id="x2" stroke-width="1" fill-rule="evenodd" transform="translate(36,0)"><mask id="x30" fill="#FFFFFF"><use xlink:href="#x27"/></mask><use id="x3" fill="#2E3257" xlink:href="#x27"/><g id="x5" mask="url('#x30')" fill="#2C1B18"><g transform="translate(0,0) " id="x6"><rect x="0" y="0" width="264" height="280"/></g></g> </g><g id="x11" fill="none" transform="translate(62,85)"><defs><path id="x20" d="M80.4646192,16.3941179 C84.3801509,8.45869677 92.552602,3 102,3 C110.919691,3 118.702887,7.86591082 122.839921,15.0880638 C123.050197,15.0306504 123.271519,15 123.5,15 L131.5,15 C132.880712,15 134,16.1192881 134,17.5 C134,18.8807119 132.880712,20 131.5,20 L124.963126,20 C125.637355,22.2145921 126,24.5649459 126,27 C126,40.254834 115.254834,51 102,51 C88.745166,51 78,40.254834 78,27 C78,25.5781066 78.1236513,24.1850936 78.3607874,22.8311273 C78.2762458,18.4553035 74.9135957,15 70.8624171,15 C67.1256697,15 63.9747186,17.9397535 63.4417635,21.8300629 C63.8073299,23.4951922 64,25.2250958 64,27 C64,40.254834 53.254834,51 40,51 C26.745166,51 16,40.254834 16,27 C16,24.5649459 16.3626451,22.2145921 17.0368738,20 L10.5,20 C9.11928813,20 8,18.8807119 8,17.5 C8,16.1192881 9.11928813,15 10.5,15 L10.5,15 L18.5,15 C18.728481,15 18.9498033,15.0306504 19.1600793,15.0880638 C23.2971127,7.86591082 31.0803092,3 40,3 C49.3521568,3 57.4549431,8.34919095 61.415666,16.15488 C63.4929212,13.0392725 66.9494432,11 70.8624171,11 C74.8746823,11 78.4070368,13.1440781 80.4646192,16.3941179 Z M40,47 C51.045695,47 60,38.045695 60,27 C60,15.954305 51.045695,7 40,7 C28.954305,7 20,15.954305 20,27 C20,38.045695 28.954305,47 40,47 Z M102,47 C113.045695,47 122,38.045695 122,27 C122,15.954305 113.045695,7 102,7 C90.954305,7 82,15.954305 82,27 C82,38.045695 90.954305,47 102,47 Z"/><filter id="x44" x="-0.8%" y="-2.1%" width="101.6%" height="108.3%" filterUnits="objectBoundingBox" ><feOffset in="SourceAlpha" dx="0" dy="2" result="shadowOffsetOuter1"/><feColorMatrix in="shadowOffsetOuter1" values="0 0 0 0 0 0 0 0 0 0 0 0 0 0 0 0 0 0 0.1 0" type="matrix"/></filter></defs><g id="x10"><use fill="#000000" fill-opacity="1" filter="url('#x44')" xlink:href="#x20"/><use fill="#252C2F" fill-rule="evenodd" xlink:href="#x20"/></g></g> </g></g></g> </g></g></g></g></svg>