<?xml version="1.0" encoding="utf-8" ?><!DOCTYPE svg PUBLIC "-//W3C//DTD SVG 1.1//EN" "http://www.w3.org/Graphics/SVG/1.1/DTD/svg11.dtd"><svg width="280px" height="280px" viewBox="-6 0 274 280" version="1.1" xmlns="http://www.w3.org/2000/svg" xmlns:xlink="http://www.w3.org/1999/xlink"><desc>Py-Avataaars</desc> <g id="x32" stroke="none" stroke-width="1" fill="none" fill-rule="evenodd"><defs><circle id="x22" cx="120" cy="120" r="120"/><path id="x20" d="M12,160 C12,226.27417 65.72583,280 132,280 C198.27417,280 252,226.27417 252,160 L264,160 L264,-1.42108547e-14 L-3.19744231e-14,-1.42108547e-14 L-3.19744231e-14,160 L12,160 Z"/><path id="x17" d="M124,144.610951 L124,163 L128,163 L128,163 C167.764502,163 200,195.235498 200,235 L200,244 L0,244 L0,235 C-4.86974701e-15,195.235498 32.235498,163 72,163 L72,163 L76,163 L76,144.610951 C58.7626345,136.422372 46.3722246,119.687011 44.3051388,99.8812385 C38.4803105,99.0577866 34,94.0521096 34,88 L34,74 C34,68.0540074 38.3245733,63.1180731 44,62.1659169 L44,56 L44,56 C44,25.072054 69.072054,5.68137151e-15 100,0 L100,0 L100,0 C130.927946,-5.68137151e-15 156,25.072054 156,56 L156,62.1659169 C161.675427,63.1180731 166,68.0540074 166,74 L166,88 C166,94.0521096 161.51969,99.0577866 155.694861,99.8812385 C153.627775,119.687011 141.237365,136.422372 124,144.610951 Z"/></defs><g id="x30" transform="translate(-825,-1100)"><g transform="translate(825,1100)"> <g id="x31" stroke-width="1" fill-rule="evenodd" mask="url('#py-avataaars-path-a6cf609f-76ff-43e6-8617-b1dfc5f21314')"><g id="x29" transform="translate(32,36)"><mask id="x14" fill="#FFFFFF"><use xlink:href="#x17"/></mask><use fill="#D0C6AC" xlink:href="#x17"/><g id="x13" mask="url('#x14')" fill="#D08B5B"><g transform="translate(0,0)" id="x12"><rect x="0" y="0" width="264" height="280"/></g></g> <path id="x28" d="M156,79 L156,102 C156,132.927946 130.927946,158 100,158 C69.072054,158 44,132.927946 44,102 L44,79 L44,94 C44,124.927946 69.072054,150 100,150 C130.927946,150 156,124.927946 156,94 L156,79 Z" fill-opacity="0.1" fill="#000000" mask="url('#x14')"/></g><g id="x56" transform="translate(0,170)"><defs><path id="x16" d="M105.192402,29.0517235 L104,29.0517235 L104,29.0517235 C64.235498,29.0517235 32,61.2872215 32,101.051724 L32,110 L232,110 L232,101.051724 C232,61.2872215 199.764502,29.0517235 160,29.0517235 L160,29.0517235 L158.807598,29.0517235 C158.934638,30.0353144 159,31.0364513 159,32.0517235 C159,45.8588423 146.911688,57.0517235 132,57.0517235 C117.088312,57.0517235 105,45.8588423 105,32.0517235 C105,31.0364513 105.065362,30.0353144 105.192402,29.0517235 Z"/></defs><mask id="x26" fill="#FFFFFF"><use xlink:href="#x16"/></mask><use id="x53" fill="#E6E6E6" fill-rule="evenodd" xlink:href="#x16"/><g id="x51" mask="url('#x26')" fill-rule="evenodd" fill="#262E33"><rect id="x55" x="0" y="0" width="264" height="110"/></g><g id="x54" stroke-width="1" fill-rule="evenodd" transform="translate(32,28)"><path id="x49" d="M68.784807,1.12222847 C30.512317,2.80409739 1.24427139e-14,34.3646437 0,73.0517235 L0,82 L69.3616767,82 C65.9607412,69.9199941 64,55.7087296 64,40.5 C64,26.1729736 65.7399891,12.7311115 68.784807,1.12222847 Z M131.638323,82 L200,82 L200,73.0517235 C200,34.7067641 170.024954,3.36285166 132.228719,1.17384225 C135.265163,12.7709464 137,26.1942016 137,40.5 C137,55.7087296 135.039259,69.9199941 131.638323,82 Z" fill="#3A4C5A"/><path id="x50" d="M149,58 L158.555853,50.83311 L158.555853,50.83311 C159.998897,49.7508275 161.987779,49.7682725 163.411616,50.8757011 L170,56 L149,58 Z" fill="#E6E6E6"/><path id="x48" d="M69,1.13686838e-13 C65,19.3333333 66.6666667,46.6666667 74,82 L58,82 L44,46 L50,37 L44,31 L63,1 C65.027659,0.369238637 67.027659,0.0359053037 69,1.13686838e-13 Z" fill="#2F4351"/><path id="x47" d="M151,1.13686838e-13 C147,19.3333333 148.666667,46.6666667 156,82 L140,82 L126,46 L132,37 L126,31 L145,1 C147.027659,0.369238637 149.027659,0.0359053037 151,1.13686838e-13 Z" fill="#2F4351" transform="translate(141,41) scale(-1, 1) translate(-141,-41)"/></g><path id="x52" d="M156,21.5390062 C162.772319,26.1359565 167,32.6563196 167,39.8878801 C167,47.2887711 162.572015,53.9447688 155.520105,58.5564942 L149.57933,53.8764929 L145,54.207887 L146,51.0567821 L145.922229,50.995516 C152.022491,47.8530505 156,42.7003578 156,36.8768102 L156,21.5390062 Z M108,21.5390062 C101.227681,26.1359565 97,32.6563196 97,39.8878801 C97,47.2887711 101.427985,53.9447688 108.479895,58.5564942 L114.42067,53.8764929 L119,54.207887 L118,51.0567821 L118.077771,50.995516 C111.977509,47.8530505 108,42.7003578 108,36.8768102 L108,21.5390062 Z" fill="#F2F2F2" fill-rule="evenodd"/></g><g id="x46" transform="translate(76,82)" fill="#000000"><g id="x38" transform="translate(2,52)"><g id="x37" opacity="0.6" stroke-width="1" transform="translate(28,6)" fill-opacity="0.6" fill="#000000"><path id="x57" d="M16.1906378,10.106319 C16.0179484,4.99553347 11.7923466,0.797193688 6.29352385,0 C9.66004124,1.95870633 11.9804619,5.49520667 11.9804619,9.67694348 C11.9804619,15.344608 6.50694731,20.2451296 0.176591694,20.2451296 C0.11761218,20.2451296 0.0587475828,20.2447983 0,20.244138 L8.8963743e-11,20.244138 C1.35764479,20.7317259 2.83995964,21 4.39225962,21 C9.71395931,21 14.2131224,17.8469699 15.6863572,13.5136402 C18.1609431,15.6698775 21.8629994,17.0394229 26,17.0394229 C30.1370006,17.0394229 33.8390569,15.6698775 36.3136428,13.5136402 C37.7868776,17.8469699 42.2860407,21 47.6077404,21 C49.1600404,21 50.6423552,20.7317259 52,20.244138 L52,20.244138 C51.9412524,20.2447983 51.8823878,20.2451296 51.8234083,20.2451296 C45.4930527,20.2451296 40.0195381,15.344608 40.0195381,9.67694348 C40.0195381,5.49520667 42.3399588,1.95870633 45.7064761,0 C40.2076534,0.797193688 35.9820516,4.99553347 35.8093622,10.106319 C33.2452605,11.8422828 29.7948543,12.9056086 26,12.9056086 C22.2051457,12.9056086 18.7547395,11.8422828 16.1906378,10.106319 Z"/></g><circle id="x36" fill-opacity="0.2" fill="#FF4646" cx="17" cy="15" r="9"/><circle id="x35" fill-opacity="0.2" fill="#FF4646" cx="91" cy="15" r="9"/></g><g id="x34" transform="translate(28,40)" fill-opacity="0.16"><path id="x33" d="M16,8 C16,12.418278 21.372583,16 28,16 L28,16 C34.627417,16 40,12.418278 40,8"/></g><g id="x42" transform="translate(0,8)"><circle id="x40" fill-opacity="0.6" fill="#000000" fill-rule="evenodd" cx="30" cy="22" r="6"/><path id="x41" d="M25,27 C25,27 19,34.2706667 19,38.2706667 C19,41.5846667 21.686,44.2706667 25,44.2706667 C28.314,44.2706667 31,41.5846667 31,38.2706667 C31,34.2706667 25,27 25,27 Z" fill="#92D9FF" fill-rule="nonzero"/><circle id="x39" fill-opacity="0.6" fill="#000000" fill-rule="evenodd" cx="82" cy="22" r="6"/></g><g id="x45" fill-opacity="0.6" fill-rule="nonzero"><path id="x44" d="M15.5914402,14.1619718 C20.0874642,7.83556966 29.6031809,4.65350252 39.3473715,7.79575991 C40.3986323,8.13476518 41.5256656,7.55736801 41.8646708,6.50610724 C42.2036761,5.45484647 41.6262789,4.32781316 40.5750182,3.98880789 C29.1665516,0.309863172 17.8358054,4.09887835 12.3309495,11.8448183 C11.6910852,12.7451779 11.9022584,13.9937761 12.8026181,14.6336404 C13.7029777,15.2735046 14.9515759,15.0623314 15.5914402,14.1619718 Z"/><path id="x43" d="M73.6376405,21.1577995 C77.5525501,15.6490895 88.2853148,12.56006 97.5304219,14.8304032 C98.6031199,15.0938282 99.6862617,14.4377829 99.9496867,13.3650849 C100.213112,12.2923868 99.5570664,11.2092451 98.4843684,10.9458201 C87.7477584,8.30920485 75.3194947,11.8862211 70.3771498,18.840646 C69.7372855,19.7410057 69.9484587,20.9896038 70.8488184,21.6294681 C71.749178,22.2693324 72.9977762,22.0581591 73.6376405,21.1577995 Z" transform="translate(85.007549, 16.038421) scale(-1, 1) translate(-85.007549, -16.038421)"/></g></g><g id="x0" stroke-width="1" fill-rule="evenodd"><defs><rect id="x18" x="0" y="0" width="264" height="280"/><path id="x15" d="M222.384814,182.806274 C217.011239,188.518122 211.648364,192.127879 211.831204,198 C212.148076,209.888877 255.439069,245.051165 216.999964,267.00001 L16.0053198,267 C-22.4337677,245.051165 20.8572256,209.888877 21.1740982,198 C21.3569373,192.127879 15.9940628,188.518122 10.6204878,182.806274 C5.24691269,177.094426 -0.137362978,169.280486 0.00267373922,155 C0.944497502,125.971596 31.3716806,128.588232 31.2026676,109 C31.3716806,89.9992744 19.8139454,82.1607482 31.2026676,46 C42.8395963,9.53932757 72.9165934,0.768171773 116.002651,0.0159928999 L116.002651,0 C116.16951,0.002426813 116.336177,0.0049705256 116.502651,0.0076322645 C116.669125,0.0049705256 116.835791,0.002426813 117.002651,0 L117.002651,0.0159928999 C160.088708,0.768171773 190.165705,9.53932757 201.802634,46 C213.191356,82.1607482 201.633621,89.9992744 201.802634,109 C201.633621,128.588232 232.060804,125.971596 233.002628,155 C233.142665,169.280486 227.758389,177.094426 222.384814,182.806274 Z M182.884023,95.3249541 C161.364085,83.7373848 142.890027,67.1442914 130.845581,48.302359 C112.763849,73.9237118 76.5299076,78.5347548 51.2240944,94.679971 C51.0770557,95.4306015 51,96.2063021 51,97 L51,110 C51,116.018625 55.4308707,121.002364 61.2085808,121.867187 C62.9518066,142.114792 75.4692178,159.282984 93,167.610951 L93,186 L89,186 L89,186 C49.235498,186 17,218.235498 17,258 L17,267 L217,267 L217,258 C217,218.235498 184.764502,186 145,186 L141,186 L141,167.610951 C158.530782,159.282984 171.048193,142.114792 172.791419,121.867187 C178.569129,121.002364 183,116.018625 183,110 L183,97 C183,96.4315537 182.960475,95.8723389 182.884023,95.3249541 Z"/><path id="x21" d="M222.384814,182.806274 C217.011239,188.518122 211.648364,192.127879 211.831204,198 C212.148076,209.888877 255.439069,245.051165 216.999964,267.00001 L16.0053198,267 C-22.4337677,245.051165 20.8572256,209.888877 21.1740982,198 C21.3569373,192.127879 15.9940628,188.518122 10.6204878,182.806274 C5.24691269,177.094426 -0.137362978,169.280486 0.00267373922,155 C0.944497502,125.971596 31.3716806,128.588232 31.2026676,109 C31.3716806,89.9992744 19.8139454,82.1607482 31.2026676,46 C42.8395963,9.53932757 72.9165934,0.768171773 116.002651,0.0159928999 L116.002651,0 C116.16951,0.002426813 116.336177,0.0049705256 116.502651,0.0076322645 C116.669125,0.0049705256 116.835791,0.002426813 117.002651,0 L117.002651,0.0159928999 C160.088708,0.768171773 190.165705,9.53932757 201.802634,46 C213.191356,82.1607482 201.633621,89.9992744 201.802634,109 C201.633621,128.588232 232.060804,125.971596 233.002628,155 C233.142665,169.280486 227.758389,177.094426 222.384814,182.806274 Z M93,186 L89,186 L89,186 C49.235498,186 17,218.235498 17,258 L17,267 L217,267 L217,258 C217,218.235498 184.764502,186 145,186 L141,186 L141,140 L93,140 L93,186 Z"/></defs><mask id="x25" fill="#FFFFFF"><use xlink:href="#x18"/></mask><g id="x4"/><g id="x7" mask="url('#x25')"><g transform="translate(-1,0)"><g id="x6" stroke-width="1" fill="none" fill-rule="evenodd" transform="translate(16,13)"><mask id="x27" fill="#FFFFFF"><use xlink:href="#x15"/></mask><use fill="#314756" xlink:href="#x15"/><g id="x8-pastel_pink" mask="url('#x27')" fill="#F59797"><g transform="translate(0,0) " id="x8"><rect x="0" y="0" width="264" height="280"/></g></g> </g><g id="x3" stroke-width="1" fill="none" fill-rule="evenodd" transform="translate(16,13)"><mask id="x23" fill="#FFFFFF"><use xlink:href="#x21"/></mask><g id="x1"/><path id="x2" d="M30.0988695,115.056827 C27.7250732,118.08281 24.5296181,122.528485 24.3618393,122.19381 C26.2345006,119.810609 27.3747977,117.011661 27.3409475,113.436088 C27.517612,95.334874 15.4366324,87.8674306 27.3409475,53.4185647 C28.0096512,51.5090274 29.1070085,49.7044671 30.585889,48.0048838 C20.2433352,82.4586863 31.3685109,90.3556196 31.2026676,109 C31.2224682,111.294844 30.8223327,113.284923 30.0988695,115.056827 Z M202.419413,48.0048838 C203.898293,49.7044671 204.995651,51.5090274 205.664354,53.4185647 C215.822041,82.8130155 208.516445,92.5627534 206.263744,106.036479 C205.964379,106.841192 206.195125,107.789747 205.880216,108.603009 C175.207016,98.1454461 147.589972,78.5596292 131.494917,55.6119279 C108.710969,85.0357527 58.3544031,85.3732378 33.6737341,110.936101 C34.0607045,110.391798 34.4280855,109.884956 34.7584999,109.446288 C57.2940449,79.527377 108.24688,80.3241416 130.845581,48.302359 C146.243536,72.3904102 172.664446,92.9495135 202.009146,103.926748 C202.310417,103.073073 202.089664,102.077381 202.376063,101.232679 C204.483829,87.4002546 211.215481,77.3069293 202.419413,48.0048838 Z" fill-opacity="0.16" fill="#000000" mask="url('#x23')"/></g><path id="x5" d="M50.7584999,122.446288 C73.2940449,92.527377 124.24688,93.3241416 146.845581,61.302359 C162.243536,85.3904102 188.664446,105.949514 218.009146,116.926748 C218.310417,116.073073 218.089664,115.077381 218.376063,114.232679 C220.531197,100.089398 227.520377,89.8551619 217.802634,59 C206.165705,22.5393276 176.088708,13.7681718 133.002651,13.0159929 C132.336177,13.0049705 132.16951,13.0024268 132.002651,13 C88.9165934,13.7681718 58.8395963,22.5393276 47.2026676,59 C35.8139454,95.1607482 47.3716806,102.999274 47.2026676,122 C47.2350518,125.753256 46.1441426,128.691293 44.3525888,131.192923 C44.5361111,131.59459 48.5061717,125.436551 50.7584999,122.446288 Z" fill-opacity="0.1" fill="#FFFFFF" fill-rule="evenodd"/><g id="x11" transform="translate(49,72)"><defs><path id="x19" d='M105.017591,94.1296214 C101.150441,99.7213834 98.257542,95.9467308 94.1374777,92.8762163 C91.6567227,91.0272796 87.9608129,88.7275108 84.5044337,88.8410391 C81.0477114,88.7275108 77.3518016,91.0272796 74.8710466,92.8762163 C70.7509822,95.9467308 67.8580835,99.7213834 63.9909333,94.1296214 C61.0884259,89.9323547 62.3028943,82.8739117 65.014944,78.9027173 C68.8738581,73.2512381 74.1088724,75.9847769 79.9622738,75.3400279 C81.5538829,75.1648137 83.1526985,74.7228407 84.5044337,74 C85.856169,74.7228407 87.4546414,75.1648137 89.0462504,75.3400279 C94.899995,75.9847769 100.134666,73.2512381 103.993923,78.9027173 C106.70563,82.8739117 107.920098,89.9323547 105.017591,94.1296214 M140.39109,26 C136.966521,40.0748212 135.393023,54.4337754 132.909944,68.6711471 C132.392536,71.6390145 131.826063,74.5963095 131.224594,77.5496398 C131.098329,78.1697764 130.973781,80.4725746 130.362704,80.7643064 C128.511632,81.6484223 124.739149,76.9466834 123.730409,75.8851496 C121.196893,73.219256 118.684993,70.5292442 115.599415,68.437233 C109.364783,64.2102603 102.065485,61.7108818 94.4700836,61.117837 C91.2922091,60.8693859 86.9951134,61.3025234 84.000116,63.1104016 C81.0051185,61.3025234 76.7080229,60.8693859 73.5298053,61.117837 C65.9344039,61.7108818 58.6351055,64.2102603 52.4004739,68.437233 C49.3148957,70.5292442 46.8033387,73.219256 44.2694796,75.8851496 C43.2607395,76.9466834 39.4882573,81.6484223 37.6371849,80.7643064 C37.0261079,80.4725746 36.9015594,78.1697764 36.7752954,77.5496398 C36.1738255,74.5963095 35.6073527,71.6390145 35.0899445,68.6711471 C32.6072086,54.4337754 31.0337113,40.0748212 27.6091415,26 C26.6127533,26 25.7385119,44.7478165 25.6273446,46.4945731 C25.174784,53.5889755 24.6463963,60.5254529 25.3216346,67.6261326 C26.485803,79.8749043 27.6993791,95.2339402 37.032627,104.58753 C45.4659003,113.039493 57.7103052,114.806417 68.2713185,120.141327 C69.631059,120.828202 71.4347824,121.676306 73.3798667,122.37111 C75.4289129,123.934171 79.4926946,125 84.1740722,125 C89.0846465,125 93.3155222,123.827456 95.2540874,122.137856 C96.9548781,121.49261 98.5180822,120.752874 99.7285704,120.141327 C110.288776,114.805245 122.533989,113.039493 130.967262,104.58753 C140.30051,95.2339402 141.514086,79.8749043 142.678597,67.6261326 C143.353493,60.5254529 142.825105,53.5889755 142.372887,46.4945731 C142.261377,44.7478165 141.387136,26 140.39109,26 Z' /></defs><mask id="x24" fill="#FFFFFF"><use xlink:href="#x19"/></mask><use id="x10" fill="#252E32" fill-rule="evenodd" xlink:href="#x19"/><g id="x58" mask="url('#x24')" fill="#C93305"><g transform="translate(-32,0)" id="x9"><rect x="0" y="0" width="264" height="244"/></g></g></g> </g></g></g> </g></g></g></g></svg>