<?xml version="1.0" encoding="utf-8" ?><!DOCTYPE svg PUBLIC "-//W3C//DTD SVG 1.1//EN" "http://www.w3.org/Graphics/SVG/1.1/DTD/svg11.dtd"><svg width="280px" height="280px" viewBox="-6 0 274 280" version="1.1" xmlns="http://www.w3.org/2000/svg" xmlns:xlink="http://www.w3.org/1999/xlink"><desc>Py-Avataaars</desc> <g id="x53" stroke="none" stroke-width="1" fill="none" fill-rule="evenodd"><defs><circle id="x41" cx="120" cy="120" r="120"/><path id="x35" d="M12,160 C12,226.27417 65.72583,280 132,280 C198.27417,280 252,226.27417 252,160 L264,160 L264,-1.42108547e-14 L-3.19744231e-14,-1.42108547e-14 L-3.19744231e-14,160 L12,160 Z"/><path id="x33" d="M124,144.610951 L124,163 L128,163 L128,163 C167.764502,163 200,195.235498 200,235 L200,244 L0,244 L0,235 C-4.86974701e-15,195.235498 32.235498,163 72,163 L72,163 L76,163 L76,144.610951 C58.7626345,136.422372 46.3722246,119.687011 44.3051388,99.8812385 C38.4803105,99.0577866 34,94.0521096 34,88 L34,74 C34,68.0540074 38.3245733,63.1180731 44,62.1659169 L44,56 L44,56 C44,25.072054 69.072054,5.68137151e-15 100,0 L100,0 L100,0 C130.927946,-5.68137151e-15 156,25.072054 156,56 L156,62.1659169 C161.675427,63.1180731 166,68.0540074 166,74 L166,88 C166,94.0521096 161.51969,99.0577866 155.694861,99.8812385 C153.627775,119.687011 141.237365,136.422372 124,144.610951 Z"/></defs><g id="x51" transform="translate(-825,-1100)"><g transform="translate(825,1100)"> <g id="x48" stroke-width="1" fill-rule="evenodd" transform="translate(12,40)"><mask id="x31" fill="#FFFFFF"><use xlink:href="#x41"/></mask><use id="x47" fill="#E6E6E6" xlink:href="#x41"/><g id="x50-pastel_orange" mask="url('#x31')" fill="#FFDEB5"><rect id="x50" x="0" y="0" width="240" height="240"/></g></g> <mask id="x39" fill="#FFFFFF"><use xlink:href="#x35"/></mask> <g id="x52" stroke-width="1" fill-rule="evenodd" mask="url('#x39')"><g id="x49" transform="translate(32,36)"><mask id="x34" fill="#FFFFFF"><use xlink:href="#x33"/></mask><use fill="#D0C6AC" xlink:href="#x33"/><g id="x29" mask="url('#x34')" fill="#EDB98A"><g transform="translate(0,0)" id="x30"><rect x="0" y="0" width="264" height="280"/></g></g> <path id="x46" d="M156,79 L156,102 C156,132.927946 130.927946,158 100,158 C69.072054,158 44,132.927946 44,102 L44,79 L44,94 C44,124.927946 69.072054,150 100,150 C130.927946,150 156,124.927946 156,94 L156,79 Z" fill-opacity="0.1" fill="#000000" mask="url('#x34')"/></g><g id="x70" transform="translate(0,170)"><defs><path id="x36" d="M165.960472,29.2949161 C202.936473,32.3249982 232,63.2942856 232,101.051724 L232,110 L32,110 L32,101.051724 C32,62.9525631 61.591985,31.7649812 99.0454063,29.2195264 C99.0152598,29.5931145 99,29.9692272 99,30.3476251 C99,42.2107177 113.998461,51.8276544 132.5,51.8276544 C151.001539,51.8276544 166,42.2107177 166,30.3476251 C166,29.9946691 165.986723,29.6437014 165.960472,29.2949161 Z"/></defs><mask id="x43" fill="#FFFFFF"><use xlink:href="#x36"/></mask><use id="x69" fill="#E6E6E6" fill-rule="evenodd" xlink:href="#x36"/><g id="x71" mask="url('#x43')" fill-rule="evenodd" fill="#FF488E"><rect id="x72" x="0" y="0" width="264" height="110"/></g> <g id="x67" opacity="0.6" stroke-width="1" fill-rule="evenodd" mask="url('#x43')" fill-opacity="0.16" fill="#000000"><g transform="translate(92,4)" id="x68"><ellipse cx="40.5" cy="27.8476251" rx="39.6351047" ry="26.9138272"/></g></g></g><g id="x66" transform="translate(76,82)" fill="#000000"><g id="x58" transform="translate(2,52)" fill-opacity="0.7"><path id="x57" d="M40,15 C40,22.7319865 46.2680135,29 54,29 L54,29 C61.7319865,29 68,22.7319865 68,15"/></g><g id="x56" transform="translate(28,40)" fill-opacity="0.16"><path id="x55" d="M16,8 C16,12.418278 21.372583,16 28,16 L28,16 C34.627417,16 40,12.418278 40,8"/></g><g id="x62" transform="translate(0,8)"><circle id="x60" fill-opacity="0.6" fill="#000000" fill-rule="evenodd" cx="30" cy="22" r="6"/><path id="x61" d="M25,27 C25,27 19,34.2706667 19,38.2706667 C19,41.5846667 21.686,44.2706667 25,44.2706667 C28.314,44.2706667 31,41.5846667 31,38.2706667 C31,34.2706667 25,27 25,27 Z" fill="#92D9FF" fill-rule="nonzero"/><circle id="x59" fill-opacity="0.6" fill="#000000" fill-rule="evenodd" cx="82" cy="22" r="6"/></g><g id="x65" fill-opacity="0.6"><path id="x64" d="M22.7663531,1.57844898 L23.6772984,1.17582144 C28.9190996,-0.905265751 36.8645466,-0.0328729562 41.7227321,2.29911638 C42.2897848,2.57148957 41.9021563,3.4519421 41.3211012,3.40711006 C26.4021788,2.25602197 16.3582869,11.5525942 12.9460869,17.8470939 C12.8449215,18.0337142 12.5391523,18.05489 12.4635344,17.8808353 C10.156283,12.5620676 16.9134476,3.89614725 22.7663531,1.57844898 Z"/><path id="x63" d="M80.7663531,1.57844898 L81.6772984,1.17582144 C86.9190996,-0.905265751 94.8645466,-0.0328729562 99.7227321,2.29911638 C100.289785,2.57148957 99.9021563,3.4519421 99.3211012,3.40711006 C84.4021788,2.25602197 74.3582869,11.5525942 70.9460869,17.8470939 C70.8449215,18.0337142 70.5391523,18.05489 70.4635344,17.8808353 C68.156283,12.5620676 74.9134476,3.89614725 80.7663531,1.57844898 Z" transform="translate(85,9) scale(-1, 1) translate(-85,-9) "/></g></g><g id="x0"><defs><rect id="x32" x="0" y="0" width="264" height="280"/><path id="x38" d="M72,21 C126.772655,21 144,68.8032255 144,103.04488 L144,176.910255 C144,196.404852 121.366901,196.446757 121.366901,165.988782 L121.366901,86.5347425 C121.366901,80.4596103 117.635097,77.5347425 111.551408,77.5347425 L72,77.5347425 L32.4485915,77.5347425 C26.3649028,77.5347425 22.6330986,80.4596103 22.6330986,86.5347425 L22.6330986,165.988782 C22.6330986,196.446757 -1.41137102e-14,196.404852 0,176.910255 L0,103.04488 C-7.11930515e-15,68.8032255 17.2273451,21 72,21 Z"/><path id="x37" d="M101.428403,98.1685688 C98.9148372,100.462621 96.23722,101.494309 92.8529444,100.772863 C92.2705777,100.648833 89.8963391,96.2345713 83.9998344,96.2345713 C78.1033297,96.2345713 75.7294253,100.648833 75.1467245,100.772863 C71.7624488,101.494309 69.0848316,100.462621 66.5712661,98.1685688 C61.8461772,93.855604 57.9166219,87.9081858 60.2778299,81.4191814 C61.5083844,78.0369425 63.5097479,74.3237342 67.1506257,73.2459109 C71.0384163,72.0955419 76.4968931,73.2439051 80.4147542,72.4582708 C81.6840664,72.2035248 83.0706538,71.7508657 83.9998344,71 C84.929015,71.7508657 86.3159365,72.2035248 87.5845805,72.4582708 C91.5027758,73.2439051 96.9612525,72.0955419 100.849043,73.2459109 C104.489921,74.3237342 106.491284,78.0369425 107.722173,81.4191814 C110.083381,87.9081858 106.153826,93.855604 101.428403,98.1685688 M140.081033,26 C136.670693,34.4002532 137.987774,44.8580348 137.356666,53.6758724 C136.844038,60.8431942 135.33712,71.5857526 128.972858,76.214531 C125.718361,78.5816138 119.79436,82.5598986 115.54187,81.4501943 C112.614539,80.6863848 112.302182,72.290096 108.455284,69.1469801 C104.09172,65.5823153 98.6429854,64.0160432 93.1491481,64.2578722 C90.7785381,64.3622683 85.9841367,64.3374908 83.9999331,66.1604584 C82.0157295,64.3374908 77.2216647,64.3622683 74.8510547,64.2578722 C69.3568808,64.0160432 63.9081467,65.5823153 59.5445817,69.1469801 C55.6976839,72.290096 55.3856641,80.6863848 52.4583326,81.4501943 C48.2058427,82.5598986 42.2818421,78.5816138 39.0270077,76.214531 C32.6624096,71.5857526 31.1561652,60.8431942 30.642864,53.6758724 C30.0120926,44.8580348 31.3291729,34.4002532 27.9188335,26 C26.2597768,26 27.3540339,42.1288693 27.3540339,42.1288693 L27.3540339,62.4851205 C27.3856735,77.7732046 36.935095,100.655445 58.1080116,109.393004 C63.2861266,111.52982 75.0153111,115 83.9999331,115 C92.9845551,115 104.71374,111.860188 109.891855,109.723371 C131.064771,100.985813 140.614193,77.7732046 140.646169,62.4851205 L140.646169,42.1288693 C140.646169,42.1288693 141.740089,26 140.081033,26"/></defs><mask id="x45" fill="#FFFFFF"><use xlink:href="#x32"/></mask><g id="x6"/><g id="x19" transform="translate(-1,0)"><g id="x11" stroke-width="1" fill-rule="evenodd" transform="translate(61,0)" ><g id="x2" transform="translate(0,176)" fill="#F4F4F4" ><circle id="x5" cx="9" cy="65" r="9"/><rect x="8" y="0" width="2" height="58"/></g><g id="x1" transform="translate(126,168)" fill="#F4F4F4" ><circle id="x4" cx="9" cy="65" r="9"/><rect x="8" y="0" width="2" height="58"/></g><circle id="x3" fill="#F4F4F4" cx="72" cy="20" r="20"/><mask id="x42" fill="#FFFFFF"><use xlink:href="#x38"/></mask><use id="x17" fill="#F4F4F4" xlink:href="#x38"/><g id="py-avataaars-top-hat-color-pastel_yellow" mask="url('#x42')" fill-rule="evenodd" fill="#FFFFB1"><rect id="x20" x="0" y="0" width="264" height="280"/></g> <rect id="x18" fill-opacity="0.2" fill="#000000" x="-1" y="21" width="146" height="46" mask="url('#x42')"/><g id="x7" transform="translate(29,32)" fill="#FFFFFF" fill-opacity="0.5" ><polygon id="x10" transform="translate(12.5, 11.0) rotate(180.0) translate(-12.5, -11.0)" points="12.5 0 25 18 0 18"/><polygon id="x9" transform="translate(43.5, 11.0) rotate(180.0) translate(-43.5, -11.0)" points="43.5 0 56 18 31 18"/><polygon id="x8" transform="translate(74.5, 11.0) rotate(180.0) translate(-74.5, -11.0)" points="74.5 0 87 18 62 18"/></g><g id="x12" transform="translate(13,41)" fill="#000000" fill-opacity="0.5"><polygon id="x16" points="12.5 0 25 18 0 18"/><polygon id="x15" points="43.5 0 56 18 31 18"/><polygon id="x14" points="74.5 0 87 18 62 18"/><polygon id="x13" points="105.5 0 118 18 93 18"/></g></g><g id="x23" transform="translate(49,72)"><defs><path id="x40" d="M84.0002865,69.2970648 C77.2083681,65.7112456 67.5782013,65.1489138 62.3885276,67.1316942 C56.6144416,69.3374281 51.5052994,75.5829845 42.6388201,72.8283797 C42.2699314,72.7136458 41.9094725,73.0449523 42.0204089,73.408662 C43.3937943,77.9183313 51.0278347,81.0068878 53.6221945,81.1080652 C64.961124,81.549609 74.0949802,72.8302891 84.0002865,72.1614794 C93.9055921,72.8302891 103.03945,81.549609 114.378714,81.1080652 C116.972736,81.0068878 124.607113,77.9183313 125.980498,73.408662 C126.091098,73.0449523 125.730639,72.7136458 125.36175,72.8283797 C116.495271,75.5829845 111.386129,69.3374281 105.612044,67.1316942 C100.422371,65.1489138 90.7922044,65.7112456 84.0002865,69.2970648 Z"/></defs><mask id="x44" fill="#FFFFFF"><use xlink:href="#x40"/></mask><use id="x21" fill="#28354B" fill-rule="evenodd" xlink:href="#x40"/><g id="x73" mask="url('#x44')" fill="#C93305"><g transform="translate(-32,0)" id="x22"><rect x="0" y="0" width="264" height="244"/></g></g></g><g id="x28" fill="none" transform="translate(62,85)" stroke-width="1"><defs><filter id="x54" x="-0.8%" y="-2.0%" width="101.5%" height="108.0%" filterUnits="objectBoundingBox"><feOffset dx="0" dy="2" in="SourceAlpha" result="shadowOffsetOuter1"/><feColorMatrix values="0 0 0 0 0 0 0 0 0 0 0 0 0 0 0 0 0 0 0.16 0" type="matrix" in="shadowOffsetOuter1" result="shadowMatrixOuter1"/><feMerge><feMergeNode in="shadowMatrixOuter1"/><feMergeNode in="SourceGraphic"/></feMerge></filter></defs><g id="x24" filter="url('#x54')" transform="translate(5,2)"><path id="x25" d="M66,11.1111111 C54.9625586,11.1111111 53.3705645,2.0266011 30.6705882,0.740740741 C7.98552275,-0.283199952 0.815225204,6.4494855 0.776470588,11.1111111 C0.813236892,15.4042795 -0.352293566,26.5612661 14.3647059,39.6296296 C29.1367705,55.1420807 44.2704162,49.8818301 49.6941176,44.8148148 C55.1352081,42.4731118 61.3403442,21.4596351 66,21.4814815 C70.6596558,21.5033279 76.8647919,42.4731118 82.3058824,44.8148148 C87.7295838,49.8818301 102.86323,55.1420807 117.635294,39.6296296 C132.352294,26.5612661 131.186763,15.4042795 131.223529,11.1111111 C131.184775,6.4494855 124.014477,-0.283199952 101.329412,0.740740741 C78.6294355,2.0266011 77.0374414,11.1111111 66,11.1111111 Z" fill="#F4F4F4" fill-rule="nonzero"/><path id="x26" d="M55.1294118,21.4814815 C55.5103632,13.8233491 42.2156493,5.64243259 27.9529412,5.92592593 C13.6973442,6.22450879 11.8417942,15.3786982 11.6470588,18.8888889 C11.2982286,27.0220633 20.014463,45.3037598 36.1058824,44.8148148 C52.1972736,44.305848 54.9092435,26.5344305 55.1294118,21.4814815 Z" fill="#2F383B" fill-rule="nonzero"/><path id="x27" d="M120.352941,21.4814815 C120.733893,13.8233491 107.439179,5.64243259 93.1764706,5.92592593 C78.9208736,6.22450879 77.0653236,15.3786982 76.8705882,18.8888889 C76.521758,27.0220633 85.2379924,45.3037598 101.329412,44.8148148 C117.420803,44.305848 120.132773,26.5344305 120.352941,21.4814815 Z" fill="#2F383B" fill-rule="nonzero" transform="translate(98.611765, 25.370370) scale(-1, 1) translate(-98.611765, -25.370370)"/></g></g> </g></g> </g></g></g></g></svg>