<?xml version="1.0" encoding="utf-8" ?><!DOCTYPE svg PUBLIC "-//W3C//DTD SVG 1.1//EN" "http://www.w3.org/Graphics/SVG/1.1/DTD/svg11.dtd"><svg width="280px" height="280px" viewBox="-6 0 274 280" version="1.1" xmlns="http://www.w3.org/2000/svg" xmlns:xlink="http://www.w3.org/1999/xlink"><desc>Py-Avataaars</desc> <g id="x27" stroke="none" stroke-width="1" fill="none" fill-rule="evenodd"><defs><circle id="x12" cx="120" cy="120" r="120"/><path id="x13" d="M12,160 C12,226.27417 65.72583,280 132,280 C198.27417,280 252,226.27417 252,160 L264,160 L264,-1.42108547e-14 L-3.19744231e-14,-1.42108547e-14 L-3.19744231e-14,160 L12,160 Z"/><path id="x16" d="M124,144.610951 L124,163 L128,163 L128,163 C167.764502,163 200,195.235498 200,235 L200,244 L0,244 L0,235 C-4.86974701e-15,195.235498 32.235498,163 72,163 L72,163 L76,163 L76,144.610951 C58.7626345,136.422372 46.3722246,119.687011 44.3051388,99.8812385 C38.4803105,99.0577866 34,94.0521096 34,88 L34,74 C34,68.0540074 38.3245733,63.1180731 44,62.1659169 L44,56 L44,56 C44,25.072054 69.072054,5.68137151e-15 100,0 L100,0 L100,0 C130.927946,-5.68137151e-15 156,25.072054 156,56 L156,62.1659169 C161.675427,63.1180731 166,68.0540074 166,74 L166,88 C166,94.0521096 161.51969,99.0577866 155.694861,99.8812385 C153.627775,119.687011 141.237365,136.422372 124,144.610951 Z"/></defs><g id="x25" transform="translate(-825,-1100)"><g transform="translate(825,1100)"> <g id="x26" stroke-width="1" fill-rule="evenodd" mask="url('#py-avataaars-path-dabe311b-be5b-440c-bd13-02bdac710129')"><g id="x24" transform="translate(32,36)"><mask id="x11" fill="#FFFFFF"><use xlink:href="#x16"/></mask><use fill="#D0C6AC" xlink:href="#x16"/><g id="x9" mask="url('#x11')" fill="#EDB98A"><g transform="translate(0,0)" id="x10"><rect x="0" y="0" width="264" height="280"/></g></g> <path id="x23" d="M156,79 L156,102 C156,132.927946 130.927946,158 100,158 C69.072054,158 44,132.927946 44,102 L44,79 L44,94 C44,124.927946 69.072054,150 100,150 C130.927946,150 156,124.927946 156,94 L156,79 Z" fill-opacity="0.1" fill="#000000" mask="url('#x11')"/></g><g id="x42" transform="translate(0,170)"><defs><path id="x15" d="M181.544255,32.3304167 C210.784209,41.4878872 232,68.7921987 232,101.051724 L232,110 L32,110 L32,101.051724 C32,68.3969699 53.7388273,40.8195914 83.5340368,32.0020332 C83.182234,33.4201865 83,34.8712315 83,36.3476251 C83,52.6289957 105.161905,65.8276544 132.5,65.8276544 C159.838095,65.8276544 182,52.6289957 182,36.3476251 C182,34.9849859 181.844766,33.6439396 181.544255,32.3304167 Z"/></defs><mask id="x21" fill="#FFFFFF"><use xlink:href="#x15"/></mask><use id="x41" fill="#E6E6E6" fill-rule="evenodd" xlink:href="#x15"/><g id="py-avataaars-clothes-clothe-color-palette-pastel_red" mask="url('#x21')" fill-rule="evenodd" fill="#FFAFB9"><rect id="x43" x="0" y="0" width="264" height="110"/></g></g><g id="x40" transform="translate(76,82)" fill="#000000"><g id="x31" transform="translate(2,52)" fill-opacity="0.7" fill="#000000"><path id="x30" d="M40.0582943,16.6539438 C40.7076459,23.6831146 46.7016363,28.3768187 54,28.3768187 C61.3416045,28.3768187 67.3633339,23.627332 67.9526838,16.5287605 C67.9840218,16.1513016 67.0772329,15.8529531 66.6289111,16.077395 C61.0902255,18.8502083 56.8805885,20.2366149 54,20.2366149 C51.1558456,20.2366149 47.0072148,18.8804569 41.5541074,16.168141 C41.0473376,15.9160792 40.0197139,16.2363147 40.0582943,16.6539438 Z" transform="translate(54.005357, 22.188409) scale(1, -1) translate(-54.005357, -22.188409)"/></g><g id="x29" transform="translate(28,40)" fill-opacity="0.16"><path id="x28" d="M16,8 C16,12.418278 21.372583,16 28,16 L28,16 C34.627417,16 40,12.418278 40,8"/></g><g id="x36" transform="translate(0,8)"><circle id="x32" fill="#FFFFFF" cx="30" cy="22" r="14"/><circle id="x35" fill="#FFFFFF" cx="82" cy="22" r="14"/><circle id="x34" fill-opacity="0.7" fill="#000000" cx="30" cy="22" r="6"/><circle id="x33" fill-opacity="0.7" fill="#000000" cx="82" cy="22" r="6"/></g><g id="x39" fill-opacity="0.6" fill-rule="nonzero"><path id="x38" d="M15.6114904,15.1845247 C19.8515017,9.41618792 22.4892046,9.70087612 28.9238518,14.5564693 C29.1057771,14.6937504 29.2212592,14.7812575 29.5936891,15.063789 C34.4216439,18.7263562 36.7081807,20 40,20 C41.1045695,20 42,19.1045695 42,18 C42,16.8954305 41.1045695,16 40,16 C37.9337712,16 36.0986396,14.9777974 32.011227,11.8770179 C31.6358269,11.5922331 31.5189458,11.5036659 31.3332441,11.3635351 C27.5737397,8.52660822 25.3739873,7.28738405 22.6379899,6.99208688 C18.9538127,6.59445233 15.5799484,8.47367246 12.3885096,12.8154753 C11.7343147,13.7054768 11.9254737,14.9572954 12.8154753,15.6114904 C13.7054768,16.2656853 14.9572954,16.0745263 15.6114904,15.1845247 Z"/><path id="x37" d="M73.6114904,15.1845247 C77.8515017,9.41618792 80.4892046,9.70087612 86.9238518,14.5564693 C87.1057771,14.6937504 87.2212592,14.7812575 87.5936891,15.063789 C92.4216439,18.7263562 94.7081807,20 98,20 C99.1045695,20 100,19.1045695 100,18 C100,16.8954305 99.1045695,16 98,16 C95.9337712,16 94.0986396,14.9777974 90.011227,11.8770179 C89.6358269,11.5922331 89.5189458,11.5036659 89.3332441,11.3635351 C85.5737397,8.52660822 83.3739873,7.28738405 80.6379899,6.99208688 C76.9538127,6.59445233 73.5799484,8.47367246 70.3885096,12.8154753 C69.7343147,13.7054768 69.9254737,14.9572954 70.8154753,15.6114904 C71.7054768,16.2656853 72.9572954,16.0745263 73.6114904,15.1845247 Z" transform="translate(84.999934, 13.470064) scale(-1, 1) translate(-84.999934, -13.470064)"/></g></g><g id="x0" stroke-width="1" fill-rule="evenodd"><defs><rect id="x14" x="0" y="0" width="264" height="280"/><path id="x18" d="M38,79.3595521 L38,111 C38,133.339168 51.0804213,152.623239 70,161.610951 L70,174.74565 C50.3625813,177.434228 34.6409914,182.163507 23.3845374,181.000327 C9.16164761,179.530612 1.49623627,150.795665 1,126 C0.382878875,95.1640258 29.3189583,30.7950013 40,18 C47.9231015,8.50878211 69.6952966,0.550643437 94.0001685,1 C118.30504,1.44935656 140.861928,6.81215989 149.000169,17 C161.324059,32.4276364 186.868727,91.0786423 187.000169,126 C187.093514,150.800049 177.46255,175.65995 164.000169,177 C152.920532,178.102871 137.475571,175.511343 118,173.997342 L118,161.610951 C136.919579,152.623239 150,133.339168 150,111 L150,82.9882378 C140.478735,78.1305678 131.863294,72.248172 124.153679,65.3410505 C127.362309,70.6368571 130.848786,75.1475352 134.61311,78.8730846 C107.596314,71.2928169 86.1055278,58.4501118 70.1407506,40.3449693 C62.1597317,56.8095313 51.4461487,69.8143919 38.0000014,79.3595511 Z"/></defs><mask id="x20" fill="#FFFFFF"><use xlink:href="#x14"/></mask><g id="x1"/><g id="x4" mask="url('#x20')"><g transform="translate(-1,0)"><g id="x2" stroke-width="1" fill-rule="evenodd" transform="translate(39,19)"><mask id="x19" fill="#FFFFFF"><use xlink:href="#x18"/></mask><use id="x3" fill="#E6E6E6" xlink:href="#x18"/><g id="x5-silver_gray" mask="url('#x19')" fill="#E8E1E1"><g transform="translate(0,0) " id="x5"><rect x="0" y="0" width="264" height="280"/></g></g> </g><g id="x8" transform="translate(49,72)"><defs><path id="x17" d="M65.1802189,77.7372986 C67.3631845,76.1045334 80.4065113,75.4786511 82.757829,74.0894494 C83.4916461,73.6553857 84.0610723,73.215719 84.4997781,72.7800074 C84.938814,73.215719 85.5085703,73.6553857 86.2423874,74.0894494 C88.593375,75.4786511 101.636702,76.1045334 103.819667,77.7372986 C106.030032,79.3908276 107.643571,83.1846831 107.466966,86.15095 C107.255041,89.7101408 103.361486,98.2028927 93.6723269,99.1811016 C91.5576925,96.8281927 88.2368647,95.3104528 84.4997781,95.3104528 C80.7633517,95.3104528 77.4421938,96.8281927 75.3275594,99.1811016 C65.6387308,98.2028927 61.7451757,89.7101408 61.5332501,86.15095 C61.3566455,83.1846831 62.9701849,79.3908276 65.1802189,77.7372986 M103.141638,94.9063813 C103.142958,94.9057221 103.144609,94.905063 103.145929,94.9047334 C103.144278,94.905063 103.142958,94.9057221 103.141638,94.9063813 M65.8453747,94.9014375 C65.8493359,94.9030855 65.8565982,94.9057221 65.8618798,94.9076997 C65.8565982,94.9057221 65.8509864,94.9034151 65.8453747,94.9014375 M144.86259,55.9853335 C144.47439,50.0303878 143.277769,44.1519058 142.233986,38.2862777 C141.952739,36.7072349 140.423706,26 139.734783,26 C139.502391,35.1094058 138.701893,44.0803858 137.669664,53.1393651 C137.361018,55.8475668 137.037848,58.5564277 136.825262,61.2741874 C136.653609,63.4695546 136.959614,66.1220564 136.427819,68.2455739 C135.749129,70.9524573 132.348087,73.4783984 129.702978,74.410795 C123.102915,76.7373371 117.597802,67.1077689 111.960977,64.2911336 C104.643272,60.6347152 92.0637391,59.7639895 84.5816434,64.5297918 C76.9361472,59.7639895 64.356614,60.6347152 57.0389092,64.2911336 C51.4024147,67.1077689 45.8969708,76.7373371 39.2972383,74.410795 C36.6521296,73.4783984 33.2504268,70.9524573 32.572397,68.2455739 C32.0402723,66.1220564 32.346277,63.4695546 32.174954,61.2741874 C31.9623682,58.5564277 31.6388681,55.8475668 31.3302226,53.1393651 C30.2983232,44.0803858 29.4974953,35.1094058 29.2654335,26 C28.5761802,26 27.0468169,36.7072349 26.7658999,38.2862777 C25.7221169,44.1519058 24.5258266,50.0303878 24.1376265,55.9853335 C23.738533,62.1047422 24.2148704,68.1674622 25.4695887,74.1632765 C26.0687242,77.0277016 26.7685407,79.8756475 27.518863,82.7041478 C28.352701,85.8467429 27.198994,91.9661516 27.5723395,95.1921317 C28.2787581,101.29572 31.1542781,113.199679 34.3833375,118.45096 C35.9440605,120.989096 37.7734867,122.573742 39.816489,124.619148 C41.7825775,126.58809 42.6038717,129.640049 44.7260985,131.73687 C48.6820428,135.645092 54.4456266,137.971304 60.3656788,138.543134 C65.6773527,143.050212 74.505605,146 84.4997781,146 C94.4946114,146 103.322534,143.050212 108.634538,138.543134 C114.55393,137.971304 120.317843,135.645092 124.274118,131.73687 C126.396015,129.640049 127.217309,126.58809 129.183727,124.619148 C131.2264,122.573742 133.055826,120.989096 134.616879,118.45096 C137.845608,113.199679 140.721458,101.29572 141.427547,95.1921317 C141.800892,91.9661516 140.647185,85.8467429 141.481353,82.7041478 C142.231676,79.8756475 142.931162,77.0277016 143.530628,74.1632765 C144.784686,68.1674622 145.261353,62.1047422 144.86259,55.9853335 Z"/></defs><mask id="x22" fill="#FFFFFF"><use xlink:href="#x17"/></mask><use id="x7" fill="#5E7AA9" fill-rule="evenodd" xlink:href="#x17"/><g id="x44" mask="url('#x22')" fill="#B58143"><g transform="translate(-32,0)" id="x6"><rect x="0" y="0" width="264" height="244"/></g></g></g> </g></g></g> </g></g></g></g></svg>