<?xml version="1.0" encoding="utf-8" ?><!DOCTYPE svg PUBLIC "-//W3C//DTD SVG 1.1//EN" "http://www.w3.org/Graphics/SVG/1.1/DTD/svg11.dtd"><svg width="280px" height="280px" viewBox="-6 0 274 280" version="1.1" xmlns="http://www.w3.org/2000/svg" xmlns:xlink="http://www.w3.org/1999/xlink"><desc>Py-Avataaars</desc> <g id="x34" stroke="none" stroke-width="1" fill="none" fill-rule="evenodd"><defs><circle id="x23" cx="120" cy="120" r="120"/><path id="x14" d="M12,160 C12,226.27417 65.72583,280 132,280 C198.27417,280 252,226.27417 252,160 L264,160 L264,-1.42108547e-14 L-3.19744231e-14,-1.42108547e-14 L-3.19744231e-14,160 L12,160 Z"/><path id="x19" d="M124,144.610951 L124,163 L128,163 L128,163 C167.764502,163 200,195.235498 200,235 L200,244 L0,244 L0,235 C-4.86974701e-15,195.235498 32.235498,163 72,163 L72,163 L76,163 L76,144.610951 C58.7626345,136.422372 46.3722246,119.687011 44.3051388,99.8812385 C38.4803105,99.0577866 34,94.0521096 34,88 L34,74 C34,68.0540074 38.3245733,63.1180731 44,62.1659169 L44,56 L44,56 C44,25.072054 69.072054,5.68137151e-15 100,0 L100,0 L100,0 C130.927946,-5.68137151e-15 156,25.072054 156,56 L156,62.1659169 C161.675427,63.1180731 166,68.0540074 166,74 L166,88 C166,94.0521096 161.51969,99.0577866 155.694861,99.8812385 C153.627775,119.687011 141.237365,136.422372 124,144.610951 Z"/></defs><g id="x32" transform="translate(-825,-1100)"><g transform="translate(825,1100)"> <g id="x29" stroke-width="1" fill-rule="evenodd" transform="translate(12,40)"><mask id="x16" fill="#FFFFFF"><use xlink:href="#x23"/></mask><use id="x28" fill="#E6E6E6" xlink:href="#x23"/><g id="x31-gray_02" mask="url('#x16')" fill="#929598"><rect id="x31" x="0" y="0" width="240" height="240"/></g></g> <mask id="x21" fill="#FFFFFF"><use xlink:href="#x14"/></mask> <g id="x33" stroke-width="1" fill-rule="evenodd" mask="url('#x21')"><g id="x30" transform="translate(32,36)"><mask id="x17" fill="#FFFFFF"><use xlink:href="#x19"/></mask><use fill="#D0C6AC" xlink:href="#x19"/><g id="x12" mask="url('#x17')" fill="#FFDBB4"><g transform="translate(0,0)" id="x13"><rect x="0" y="0" width="264" height="280"/></g></g> <path id="x27" d="M156,79 L156,102 C156,132.927946 130.927946,158 100,158 C69.072054,158 44,132.927946 44,102 L44,79 L44,94 C44,124.927946 69.072054,150 100,150 C130.927946,150 156,124.927946 156,94 L156,79 Z" fill-opacity="0.1" fill="#000000" mask="url('#x17')"/></g><g id="x49" transform="translate(0,170)"><defs><path id="x20" d="M105.192402,29.0517235 L104,29.0517235 L104,29.0517235 C64.235498,29.0517235 32,61.2872215 32,101.051724 L32,110 L232,110 L232,101.051724 C232,61.2872215 199.764502,29.0517235 160,29.0517235 L160,29.0517235 L158.807598,29.0517235 C158.934638,30.0353144 159,31.0364513 159,32.0517235 C159,45.8588423 146.911688,57.0517235 132,57.0517235 C117.088312,57.0517235 105,45.8588423 105,32.0517235 C105,31.0364513 105.065362,30.0353144 105.192402,29.0517235 Z"/></defs><mask id="x26" fill="#FFFFFF"><use xlink:href="#x20"/></mask><use id="x48" fill="#E6E6E6" fill-rule="evenodd" xlink:href="#x20"/><g id="py-avataaars-clothes-clothe-color-palette-blue_01" mask="url('#x26')" fill-rule="evenodd" fill="#65C9FF"><rect id="x50" x="0" y="0" width="264" height="110"/></g> <path id="x47" d="M156,22.2794906 C162.181647,26.8351858 166,33.1057265 166,40.027915 C166,47.2334941 161.862605,53.7329769 155.228997,58.3271669 L149.57933,53.8764929 L145,54.207887 L146,51.0567821 L145.922229,50.995516 C152.022491,47.8530505 156,42.7003578 156,36.8768102 L156,22.2794906 Z M108,21.5714994 C101.232748,26.1740081 97,32.7397769 97,40.027915 C97,47.4261549 101.361602,54.080035 108.308428,58.6915723 L114.42067,53.8764929 L119,54.207887 L118,51.0567821 L118.077771,50.995516 C111.977509,47.8530505 108,42.7003578 108,36.8768102 L108,21.5714994 Z" fill="#F2F2F2" fill-rule="evenodd"/></g><g id="x46" transform="translate(76,82)" fill="#000000"><g id="x39" transform="translate(2,52)" fill-opacity="0.7"><path id="x38" d="M40,15 C40,22.7319865 46.2680135,29 54,29 L54,29 C61.7319865,29 68,22.7319865 68,15"/></g><g id="x37" transform="translate(28,40)" fill-opacity="0.16"><path id="x36" d="M16,8 C16,12.418278 21.372583,16 28,16 L28,16 C34.627417,16 40,12.418278 40,8"/></g><g id="x42" transform="translate(0,8)" fill-opacity="0.6" fill-rule="nonzero"><path id="x41" d="M29,25.2 L34.5,30.7 C35,31.1 35.7,31.1 36.1,30.7 L37.7,29.1 C38.1,28.6 38.1,27.9 37.7,27.5 L32.2,22 L37.7,16.5 C38.1,16 38.1,15.3 37.7,14.9 L36.1,13.3 C35.6,12.9 34.9,12.9 34.5,13.3 L29,18.8 L23.5,13.3 C23,12.9 22.3,12.9 21.9,13.3 L20.3,14.9 C19.9,15.3 19.9,16 20.3,16.5 L25.8,22 L20.3,27.5 C19.9,28 19.9,28.7 20.3,29.1 L21.9,30.7 C22.4,31.1 23.1,31.1 23.5,30.7 L29,25.2 Z"/><path id="x40" d="M83,25.2 L88.5,30.7 C89,31.1 89.7,31.1 90.1,30.7 L91.7,29.1 C92.1,28.6 92.1,27.9 91.7,27.5 L86.2,22 L91.7,16.5 C92.1,16 92.1,15.3 91.7,14.9 L90.1,13.3 C89.6,12.9 88.9,12.9 88.5,13.3 L83,18.8 L77.5,13.3 C77,12.9 76.3,12.9 75.9,13.3 L74.3,14.9 C73.9,15.3 73.9,16 74.3,16.5 L79.8,22 L74.3,27.5 C73.9,28 73.9,28.7 74.3,29.1 L75.9,30.7 C76.4,31.1 77.1,31.1 77.5,30.7 L83,25.2 Z"/></g><g id="x45" fill-opacity="0.6" fill-rule="nonzero"><path id="x44" d="M15.9726042,19.4088529 C17.452356,11.0203704 30.0622688,5.22829657 39.2106453,8.9774793 C40.2254706,9.39337449 41.4016967,8.94600219 41.8378196,7.97824531 C42.2739426,7.01048842 41.8048116,5.88881678 40.7899862,5.47292159 C29.3457328,0.782843812 13.9550264,7.85221132 12.0280273,18.7760684 C11.84479,19.8148122 12.5792704,20.798534 13.6685352,20.9732726 C14.7578,21.1480113 15.7893668,20.4475967 15.9726042,19.4088529 Z" transform="translate(27.000414, 12.500000) scale(-1, -1) translate(-27.000414, -12.500000)"/><path id="x43" d="M73.9726042,19.4088529 C75.452356,11.0203704 88.0622688,5.22829657 97.2106453,8.9774793 C98.2254706,9.39337449 99.4016967,8.94600219 99.8378196,7.97824531 C100.273943,7.01048842 99.8048116,5.88881678 98.7899862,5.47292159 C87.3457328,0.782843812 71.9550264,7.85221132 70.0280273,18.7760684 C69.84479,19.8148122 70.5792704,20.798534 71.6685352,20.9732726 C72.7578,21.1480113 73.7893668,20.4475967 73.9726042,19.4088529 Z" transform="translate(85.000414, 12.500000) scale(1, -1) translate(-85.000414, -12.500000)"/></g></g><g id="x0" stroke-width="1" fill-rule="evenodd"><defs><rect id="x22" x="0" y="0" width="264" height="280"/><path id="x18" d="M21,157.540812 L21,69.046252 C21,65.5140485 21.3981158,62.0748299 22.1519234,58.7710202 C25.205041,38.7314193 36.7752683,22.8108863 50,13 C69.9046441,-1.75961713 103.441939,-6.01828252 115.047069,11.5221046 C123.698343,7.68103538 136.519049,11.1821114 146,20 C155.565156,29.4150438 163.19967,50.1973768 158.657409,67.2035172 C158.762104,68.4691962 158.815476,69.7490355 158.815476,71.0408963 L158.815476,92.8921195 C157.934142,87.9183006 153.988995,84.0029116 149,83.1659169 L149,83 C142.963851,61.4642087 125.229516,51.5800472 114.429684,41.777113 C97.5353566,60.6732583 44.8226408,60.7398069 27,98 L27,108 C27,114.018625 31.4308707,119.002364 37.2085808,119.867187 C38.9518066,140.114792 51.4692178,157.282984 69,165.610951 L69,166 C71.9303712,209.855112 62.358462,264.797432 0,248 C13.6057325,240.037752 20.8081123,189.055563 21,157.540812 Z M117,165.610951 C134.530782,157.282984 147.048193,140.114792 148.791419,119.867187 C153.87876,119.105701 157.921895,115.150816 158.815476,110.107881 L158.815476,111.47039 L158.815476,111.47039 C158.815476,127.298552 162.572711,142.900645 169.7782,156.993609 L196.726668,209.701177 C203.689761,223.320048 201.645562,239.173573 192.790715,250.468968 C189.966212,213.288807 158.90349,184 121,184 L121,184 L117,184 L117,165.610951 Z"/><path id="x15" d="M65.1802189,77.7372986 C67.3631845,76.1045334 80.4065113,75.4786511 82.757829,74.0894494 C83.4916461,73.6553857 84.0610723,73.215719 84.4997781,72.7800074 C84.938814,73.215719 85.5085703,73.6553857 86.2423874,74.0894494 C88.593375,75.4786511 101.636702,76.1045334 103.819667,77.7372986 C106.030032,79.3908276 107.643571,83.1846831 107.466966,86.15095 C107.255041,89.7101408 103.361486,98.2028927 93.6723269,99.1811016 C91.5576925,96.8281927 88.2368647,95.3104528 84.4997781,95.3104528 C80.7633517,95.3104528 77.4421938,96.8281927 75.3275594,99.1811016 C65.6387308,98.2028927 61.7451757,89.7101408 61.5332501,86.15095 C61.3566455,83.1846831 62.9701849,79.3908276 65.1802189,77.7372986 M103.141638,94.9063813 C103.142958,94.9057221 103.144609,94.905063 103.145929,94.9047334 C103.144278,94.905063 103.142958,94.9057221 103.141638,94.9063813 M65.8453747,94.9014375 C65.8493359,94.9030855 65.8565982,94.9057221 65.8618798,94.9076997 C65.8565982,94.9057221 65.8509864,94.9034151 65.8453747,94.9014375 M144.86259,55.9853335 C144.47439,50.0303878 143.277769,44.1519058 142.233986,38.2862777 C141.952739,36.7072349 140.423706,26 139.734783,26 C139.502391,35.1094058 138.701893,44.0803858 137.669664,53.1393651 C137.361018,55.8475668 137.037848,58.5564277 136.825262,61.2741874 C136.653609,63.4695546 136.959614,66.1220564 136.427819,68.2455739 C135.749129,70.9524573 132.348087,73.4783984 129.702978,74.410795 C123.102915,76.7373371 117.597802,67.1077689 111.960977,64.2911336 C104.643272,60.6347152 92.0637391,59.7639895 84.5816434,64.5297918 C76.9361472,59.7639895 64.356614,60.6347152 57.0389092,64.2911336 C51.4024147,67.1077689 45.8969708,76.7373371 39.2972383,74.410795 C36.6521296,73.4783984 33.2504268,70.9524573 32.572397,68.2455739 C32.0402723,66.1220564 32.346277,63.4695546 32.174954,61.2741874 C31.9623682,58.5564277 31.6388681,55.8475668 31.3302226,53.1393651 C30.2983232,44.0803858 29.4974953,35.1094058 29.2654335,26 C28.5761802,26 27.0468169,36.7072349 26.7658999,38.2862777 C25.7221169,44.1519058 24.5258266,50.0303878 24.1376265,55.9853335 C23.738533,62.1047422 24.2148704,68.1674622 25.4695887,74.1632765 C26.0687242,77.0277016 26.7685407,79.8756475 27.518863,82.7041478 C28.352701,85.8467429 27.198994,91.9661516 27.5723395,95.1921317 C28.2787581,101.29572 31.1542781,113.199679 34.3833375,118.45096 C35.9440605,120.989096 37.7734867,122.573742 39.816489,124.619148 C41.7825775,126.58809 42.6038717,129.640049 44.7260985,131.73687 C48.6820428,135.645092 54.4456266,137.971304 60.3656788,138.543134 C65.6773527,143.050212 74.505605,146 84.4997781,146 C94.4946114,146 103.322534,143.050212 108.634538,138.543134 C114.55393,137.971304 120.317843,135.645092 124.274118,131.73687 C126.396015,129.640049 127.217309,126.58809 129.183727,124.619148 C131.2264,122.573742 133.055826,120.989096 134.616879,118.45096 C137.845608,113.199679 140.721458,101.29572 141.427547,95.1921317 C141.800892,91.9661516 140.647185,85.8467429 141.481353,82.7041478 C142.231676,79.8756475 142.931162,77.0277016 143.530628,74.1632765 C144.784686,68.1674622 145.261353,62.1047422 144.86259,55.9853335 Z"/></defs><mask id="x25" fill="#FFFFFF"><use xlink:href="#x22"/></mask><g id="x2"/><g id="x4" mask="url('#x25')"><g transform="translate(-1,0)"><g id="x3" stroke-width="1" fill="none" fill-rule="evenodd" transform="translate(40,15)"><mask id="x24" fill="#FFFFFF"><use xlink:href="#x18"/></mask><use fill="#272C2E" xlink:href="#x18"/><g id="x5" mask="url('#x24')" fill="#ECDCBF"><g transform="translate(0,0) " id="x6"><rect x="0" y="0" width="264" height="280"/></g></g> </g><path id="x1" d="M67,113 C84.8226408,80.6646674 137.535357,80.6069148 154.429684,64.2083647 C165.207546,72.6982916 182.891727,79.2665518 188.963018,97.8687161 C182.891727,76.423995 165.207546,66.5601054 154.429684,56.777113 C137.535357,75.6732583 84.8226408,75.7398069 67,113 Z" fill-opacity="0.16" fill="#000000" fill-rule="evenodd"/><g id="x11" fill="none" transform="translate(62,85)" stroke-width="1"><defs><filter id="x35" x="-0.8%" y="-2.0%" width="101.5%" height="108.0%" filterUnits="objectBoundingBox"><feOffset dx="0" dy="2" in="SourceAlpha" result="shadowOffsetOuter1"/><feColorMatrix values="0 0 0 0 0 0 0 0 0 0 0 0 0 0 0 0 0 0 0.16 0" type="matrix" in="shadowOffsetOuter1" result="shadowMatrixOuter1"/><feMerge><feMergeNode in="shadowMatrixOuter1"/><feMergeNode in="SourceGraphic"/></feMerge></filter></defs><g id="x7" filter="url('#x35')" transform="translate(5,2)"><path id="x8" d="M66,11.1111111 C54.9625586,11.1111111 53.3705645,2.0266011 30.6705882,0.740740741 C7.98552275,-0.283199952 0.815225204,6.4494855 0.776470588,11.1111111 C0.813236892,15.4042795 -0.352293566,26.5612661 14.3647059,39.6296296 C29.1367705,55.1420807 44.2704162,49.8818301 49.6941176,44.8148148 C55.1352081,42.4731118 61.3403442,21.4596351 66,21.4814815 C70.6596558,21.5033279 76.8647919,42.4731118 82.3058824,44.8148148 C87.7295838,49.8818301 102.86323,55.1420807 117.635294,39.6296296 C132.352294,26.5612661 131.186763,15.4042795 131.223529,11.1111111 C131.184775,6.4494855 124.014477,-0.283199952 101.329412,0.740740741 C78.6294355,2.0266011 77.0374414,11.1111111 66,11.1111111 Z" fill="#F4F4F4" fill-rule="nonzero"/><path id="x9" d="M55.1294118,21.4814815 C55.5103632,13.8233491 42.2156493,5.64243259 27.9529412,5.92592593 C13.6973442,6.22450879 11.8417942,15.3786982 11.6470588,18.8888889 C11.2982286,27.0220633 20.014463,45.3037598 36.1058824,44.8148148 C52.1972736,44.305848 54.9092435,26.5344305 55.1294118,21.4814815 Z" fill="#2F383B" fill-rule="nonzero"/><path id="x10" d="M120.352941,21.4814815 C120.733893,13.8233491 107.439179,5.64243259 93.1764706,5.92592593 C78.9208736,6.22450879 77.0653236,15.3786982 76.8705882,18.8888889 C76.521758,27.0220633 85.2379924,45.3037598 101.329412,44.8148148 C117.420803,44.305848 120.132773,26.5344305 120.352941,21.4814815 Z" fill="#2F383B" fill-rule="nonzero" transform="translate(98.611765, 25.370370) scale(-1, 1) translate(-98.611765, -25.370370)"/></g></g> </g></g></g> </g></g></g></g></svg>